<svg width="1440" height="363" viewBox="0 0 1440 363" fill="none" xmlns="http://www.w3.org/2000/svg">
<path fill-rule="evenodd" clip-rule="evenodd" d="M288.182 269.543C257.125 323.597 198.814 360 132 360C32.5887 360 -48 279.411 -48 180C-48 80.5887 32.5887 0 132 0C199.739 0 258.739 37.4181 289.457 92.7125C316.789 55.8742 360.606 32 410 32C467.102 32 516.752 63.9071 542.093 110.865C563.992 81.7951 598.801 63 638 63C684.349 63 724.561 89.2769 744.55 127.746C766.233 106.266 796.067 93 829 93C859.125 93 886.657 104.101 907.73 122.435C931.005 69.7597 983.709 33 1045 33C1090.2 33 1130.74 52.995 1158.24 84.6231C1190.37 35.4742 1245.89 3 1309 3C1408.41 3 1489 83.5887 1489 183C1489 282.411 1408.41 363 1309 363C1245.89 363 1190.37 330.526 1158.24 281.377C1130.74 313.005 1090.2 333 1045 333C998.517 333 956.972 311.856 929.458 278.662C908.026 311.385 871.037 333 829 333C782.651 333 742.439 306.723 722.45 268.254C700.767 289.734 670.933 303 638 303C598.423 303 563.321 283.841 541.463 254.291C515.934 300.616 466.632 332 410 332C359.831 332 315.415 307.371 288.182 269.543Z" fill="#D7137D"/>
</svg>
