<svg width="1440" height="800" viewBox="0 0 1440 800" fill="none" xmlns="http://www.w3.org/2000/svg">
<g style="mix-blend-mode:overlay" opacity="0.55">
<g style="mix-blend-mode:overlay">
<path d="M719.635 800L168.161 0H28.0554L719.635 800Z" fill="#091C44"/>
</g>
<g style="mix-blend-mode:overlay">
<path d="M719.635 800L0 187.22V301.272L719.635 800Z" fill="#091C44"/>
</g>
<g style="mix-blend-mode:overlay">
<path d="M719.635 800L0 444.611V523.183L719.635 800Z" fill="#091C44"/>
</g>
<g style="mix-blend-mode:overlay">
<path d="M719.635 800L0 638.517V700.602L719.635 800Z" fill="#091C44"/>
</g>
<g style="mix-blend-mode:overlay">
<path d="M719.635 800L1440 638.517V700.602L719.635 800Z" fill="#091C44"/>
</g>
<g style="mix-blend-mode:overlay">
<path d="M719.33 800L488.106 0H348L719.33 800Z" fill="#091C44"/>
</g>
<g style="mix-blend-mode:overlay">
<path d="M719.635 800L1439.23 187.22V301.272L719.635 800Z" fill="#091C44"/>
</g>
<g style="mix-blend-mode:overlay">
<path d="M719.635 800L1439.23 444.611V523.183L719.635 800Z" fill="#091C44"/>
</g>
<g style="mix-blend-mode:overlay">
<path d="M719.635 800L1270.84 0H1410.93L719.635 800Z" fill="#091C44"/>
</g>
<g style="mix-blend-mode:overlay">
<path d="M719.635 800L950.571 0H1090.66L719.635 800Z" fill="#091C44"/>
</g>
<g style="mix-blend-mode:overlay">
<path d="M719.635 800L629.841 0H797.772L719.635 800Z" fill="#091C44"/>
</g>
</g>
</svg>
