<svg width="120" height="180" viewBox="0 0 120 180" fill="none" xmlns="http://www.w3.org/2000/svg">
<path fill-rule="evenodd" clip-rule="evenodd" d="M38.4761 82.2938L53.669 76.0549L63.147 72.1638L78.3474 65.9321L115.873 153.073L87.9812 142.784L76.002 169.435L38.4761 82.2938Z" fill="#B31E09"/>
<path fill-rule="evenodd" clip-rule="evenodd" d="M69.8049 155.052L62.8652 138.929L71.1779 95.9021L80.5297 96.3658L69.8049 155.052Z" fill="#9B1C04"/>
<path fill-rule="evenodd" clip-rule="evenodd" d="M100.539 147.415L87.9811 142.784L83.1716 153.494L55.1904 79.5188L72.5061 73.2727L100.539 147.415Z" fill="url(#paint0_linear_602_4167)"/>
<path fill-rule="evenodd" clip-rule="evenodd" d="M67.8672 113.032L71.1774 95.9021L80.5292 96.3658L74.3467 130.176L67.8672 113.032Z" fill="#E7A305"/>
<path fill-rule="evenodd" clip-rule="evenodd" d="M35.366 79.3591L51.5757 82.2938L61.6846 84.1198L77.8869 87.0545L60.2373 180L42.7212 156.45L17.7163 172.305L35.366 79.3591Z" fill="#E31013"/>
<path fill-rule="evenodd" clip-rule="evenodd" d="M50.4032 166.783L42.7213 156.45L32.3379 163.037L45.178 86.8445L63.3918 89.7647L50.4032 166.783Z" fill="url(#paint1_linear_602_4167)"/>
<path fill-rule="evenodd" clip-rule="evenodd" d="M80.4184 3.3479C80.4184 3.3479 81.1086 3.52181 81.1977 4.93479C81.2868 6.34778 80.4555 20.3327 79.936 21.0501C79.8988 21.0501 77.8281 8.18828 80.4184 3.3479Z" fill="#A11506"/>
<path fill-rule="evenodd" clip-rule="evenodd" d="M63.6888 6.47095C63.6888 6.47095 63.1099 6.87673 63.5627 8.2245C64.0154 9.57227 70.0866 22.2601 70.8363 22.7167C70.8363 22.7456 67.8971 10.0433 63.6888 6.47095Z" fill="#A11506"/>
<path fill-rule="evenodd" clip-rule="evenodd" d="M73.9388 4.55098L70.1313 5.27559L63.689 6.47844C67.4 11.9637 68.7582 16.6882 70.8364 22.7531L75.349 21.7966L79.8987 21.072C79.5351 14.6882 79.0229 9.79714 80.3812 3.36987L73.9388 4.55098Z" fill="#E2000F"/>
<path fill-rule="evenodd" clip-rule="evenodd" d="M65.5742 9.47106C67.9567 13.7607 69.1813 17.8113 70.8736 22.7459L75.3862 21.7894L79.9359 21.0648C79.6242 15.565 79.1937 11.1739 79.9359 5.94946C79.1269 7.23926 78.7187 13.0361 78.7038 16.094C78.689 19.1518 77.9616 19.9779 76.8929 19.4851C75.8241 18.9924 75.6311 8.42038 72.6474 8.53631C69.6638 8.65225 74.1318 20.2387 73.3896 20.3909C70.1314 20.9778 67.1254 11.797 65.5742 9.47106Z" fill="#DD010E"/>
<path fill-rule="evenodd" clip-rule="evenodd" d="M63.4218 7.6664C63.4636 7.57265 63.5335 7.49343 63.6222 7.43912C63.7109 7.38481 63.8144 7.35795 63.9191 7.36207C64.2902 7.36207 64.7503 8.08668 64.7503 8.08668L64.1492 6.99977L63.689 6.43457C63.689 6.43457 63.0952 6.78963 63.4218 7.6664Z" fill="#E2000F"/>
<path fill-rule="evenodd" clip-rule="evenodd" d="M81.0794 4.36228C81.0053 4.28935 80.91 4.24048 80.8064 4.22233C80.7028 4.20418 80.596 4.21762 80.5005 4.26084C80.1665 4.40576 80.0181 5.26804 80.0181 5.26804L80.1665 4.04346L80.3743 3.31885C80.3743 3.31885 81.0497 3.43478 81.0794 4.36228Z" fill="#E2000F"/>
<path fill-rule="evenodd" clip-rule="evenodd" d="M72.4618 17.9488C72.343 17.3257 70.3613 11.0216 71.0219 9.13035C71.6825 7.23912 73.3227 7.68113 74.3024 8.40574C75.2821 9.13035 75.8685 7.78983 76.5736 6.7319C77.2787 5.67397 79.8022 4.55807 79.0526 4.50011C78.3029 4.44214 72.87 5.49282 70.0496 6.02178C67.2292 6.55074 65.7003 6.95653 65.5964 7.57244C65.3663 9.39846 73.9091 21.8907 72.4618 17.9488Z" fill="#E31016"/>
<path fill-rule="evenodd" clip-rule="evenodd" d="M67.4143 7.00674C67.2424 7.07893 67.0876 7.18485 66.9594 7.3179C66.8311 7.45096 66.7323 7.60832 66.669 7.78022C66.6056 7.95212 66.5792 8.1349 66.5912 8.3172C66.6032 8.49951 66.6535 8.67745 66.7389 8.84C67.162 9.92691 68.6538 13.2311 69.0249 13.1369C69.396 13.0427 67.9784 10.0139 68.7429 8.78927C69.5073 7.56469 69.9601 7.21688 72.0012 6.91254C74.0422 6.60821 78.399 5.09377 77.9388 4.98508C77.4786 4.87639 68.8616 6.53574 67.4143 7.00674Z" fill="#E6353B"/>
<path fill-rule="evenodd" clip-rule="evenodd" d="M69.4261 0.630615C69.4261 0.630615 70.1684 0.674092 70.5023 2.0436C70.8363 3.41311 72.729 17.3038 72.343 18.1082C72.343 18.1082 67.8453 5.84779 69.4261 0.630615Z" fill="#A11506"/>
<path fill-rule="evenodd" clip-rule="evenodd" d="M53.6315 6.73901C53.6315 6.73901 53.1416 7.24624 53.8393 8.48532C54.537 9.7244 62.9387 21.0862 63.77 21.4268C63.77 21.4268 58.441 9.48528 53.6315 6.73901Z" fill="#A11506"/>
<path fill-rule="evenodd" clip-rule="evenodd" d="M63.3471 2.98559L59.74 4.38408L53.6465 6.73906C58.3298 11.4563 60.5787 15.8546 63.785 21.4269L68.0304 19.6661L72.3575 18.1082C70.784 11.9055 69.3367 7.19556 69.4406 0.630615L63.3471 2.98559Z" fill="#E2000F"/>
<path fill-rule="evenodd" clip-rule="evenodd" d="M56.0215 9.35486C59.1833 13.1373 61.1575 16.8908 63.7701 21.4268L68.0155 19.666L72.3426 18.1081C70.9843 12.7605 69.7226 8.52156 69.4703 3.25366C68.921 4.66665 69.6335 10.4345 70.2125 13.4489C70.7914 16.4633 70.2125 17.398 69.0843 17.0719C67.9562 16.7459 65.7221 6.43469 62.8127 7.09408C59.9032 7.75348 66.5237 18.311 65.7815 18.6009C62.731 19.8182 58.0254 11.3475 56.0215 9.35486Z" fill="#DD010E"/>
<path fill-rule="evenodd" clip-rule="evenodd" d="M53.5947 7.9636C53.617 7.86397 53.6703 7.77352 53.7474 7.70474C53.8245 7.63595 53.9216 7.59222 54.0252 7.57956C54.3889 7.52159 54.9901 8.17374 54.9901 8.17374L54.1885 7.21725L53.6318 6.73901C53.6318 6.73901 53.1049 7.16653 53.5947 7.9636Z" fill="#E2000F"/>
<path fill-rule="evenodd" clip-rule="evenodd" d="M70.3085 1.50017C70.2225 1.44157 70.1202 1.41014 70.0154 1.41014C69.9105 1.41014 69.8082 1.44157 69.7222 1.50017C69.4179 1.70306 69.4327 2.57259 69.4327 2.57259L69.3511 1.348L69.4179 0.623396C69.4179 0.623396 70.1007 0.594412 70.3085 1.50017Z" fill="#E2000F"/>
<path fill-rule="evenodd" clip-rule="evenodd" d="M64.446 16.4126C64.2085 15.8257 61.0542 9.99259 61.3436 8.01441C61.6331 6.03623 63.3253 6.14492 64.4312 6.73185C65.5371 7.31879 65.8562 5.84783 66.3387 4.68121C66.8211 3.5146 69.0922 1.91321 68.3575 2.02915C67.6227 2.14509 62.4644 4.13776 59.7924 5.17395C57.1205 6.21014 55.7029 6.88402 55.74 7.50719C55.8439 9.31146 66.6281 20.0429 64.446 16.4126Z" fill="#E31016"/>
<path fill-rule="evenodd" clip-rule="evenodd" d="M57.4103 6.59423C57.2556 6.69646 57.1242 6.82873 57.0243 6.98278C56.9243 7.13684 56.858 7.30937 56.8294 7.48958C56.8009 7.66979 56.8107 7.85382 56.8583 8.03016C56.9059 8.2065 56.9902 8.37136 57.106 8.51444C57.722 9.50716 59.8225 12.478 60.1713 12.3186C60.5202 12.1592 58.5459 9.4202 59.058 8.07968C59.5701 6.73915 59.9487 6.31164 61.9007 5.63775C63.8527 4.96386 67.8383 2.6886 67.3336 2.66686C66.8289 2.64512 58.724 5.86238 57.4103 6.59423Z" fill="#E6353B"/>
<path fill-rule="evenodd" clip-rule="evenodd" d="M56.8227 0.0151136C56.8227 0.0151136 57.565 -0.0863311 58.1736 1.18173C58.7822 2.4498 63.5917 15.6739 63.369 16.5144C63.4061 16.5144 56.3923 5.44243 56.8227 0.0151136Z" fill="#A11506"/>
<path fill-rule="evenodd" clip-rule="evenodd" d="M42.6773 9.21045C42.6773 9.21045 42.3062 9.80463 43.2563 10.877C44.2063 11.9495 54.8495 21.3404 55.7327 21.507C55.7327 21.507 47.9693 10.9133 42.6773 9.21045Z" fill="#A11506"/>
<path fill-rule="evenodd" clip-rule="evenodd" d="M51.368 3.56497L48.132 5.66634L42.6768 9.20967C48.2656 12.8327 51.4051 16.7094 55.7322 21.528L59.5026 18.9412L63.4066 16.5355C60.5416 10.7893 58.1221 6.4779 56.8232 0.0361328L51.368 3.56497Z" fill="#E2000F"/>
<path fill-rule="evenodd" clip-rule="evenodd" d="M45.5718 11.2823C49.4758 14.3329 52.2071 17.6009 55.7326 21.5065L59.503 18.9197L63.407 16.514C60.9354 11.5649 58.7979 7.67375 57.4248 2.57251C57.1947 4.07245 59.117 9.56497 60.3194 12.3909C61.5218 15.2169 61.1581 16.2604 60.0002 16.2024C58.8424 16.1444 54.4411 6.48539 51.7395 7.71722C49.0379 8.94906 57.7811 17.9342 57.1056 18.369C54.3743 20.1442 47.9617 12.8185 45.5718 11.2823Z" fill="#DD010E"/>
<path fill-rule="evenodd" clip-rule="evenodd" d="M42.9068 10.4127C42.9056 10.311 42.9373 10.2115 42.9972 10.1283C43.0571 10.0451 43.1423 9.98237 43.2407 9.94897C43.5896 9.81854 44.3095 10.333 44.3095 10.333L43.3075 9.57218L42.6544 9.22437C42.6544 9.22437 42.2536 9.73159 42.9068 10.4127Z" fill="#E2000F"/>
<path fill-rule="evenodd" clip-rule="evenodd" d="M57.8694 0.688603C57.7728 0.648612 57.6659 0.638986 57.5635 0.661062C57.461 0.683139 57.3682 0.735822 57.2979 0.811786C57.0455 1.07264 57.2459 1.92768 57.2459 1.92768L56.8971 0.739325L56.8154 0.0147173C56.8154 0.0147173 57.476 -0.159188 57.8694 0.688603Z" fill="#E2000F"/>
<path fill-rule="evenodd" clip-rule="evenodd" d="M55.3165 16.4704C54.9602 15.9414 50.6332 10.8764 50.4922 8.88374C50.3511 6.89107 52.0285 6.65195 53.2383 6.99976C54.4481 7.34758 54.4407 5.84039 54.6634 4.60856C54.886 3.37673 56.7638 1.34058 56.0736 1.60143C55.3833 1.86229 50.7297 4.86217 48.3695 6.42008C46.0092 7.97798 44.7327 8.92722 44.9034 9.52864C45.3858 11.2749 58.2334 19.5717 55.3165 16.4704Z" fill="#E31016"/>
<path fill-rule="evenodd" clip-rule="evenodd" d="M46.3211 8.2966C46.1922 8.42853 46.0925 8.58485 46.028 8.7559C45.9634 8.92696 45.9355 9.10911 45.946 9.29111C45.9564 9.4731 46.005 9.65108 46.0886 9.81404C46.1723 9.97699 46.2893 10.1215 46.4324 10.2385C47.2488 11.0863 49.9356 13.5645 50.2473 13.3399C50.5591 13.1152 48.0207 10.8545 48.2508 9.41249C48.4809 7.97052 48.7481 7.50677 50.4774 6.45609C52.2068 5.40541 55.6729 2.35481 55.1533 2.44176C54.6338 2.52872 47.4715 7.31113 46.3211 8.2966Z" fill="#E6353B"/>
<path fill-rule="evenodd" clip-rule="evenodd" d="M44.6885 1.89885C44.6885 1.89885 45.3565 1.65248 46.2471 2.76838C47.1378 3.88427 54.5672 15.8693 54.5672 16.7461C54.5672 16.7461 45.3936 7.29718 44.6885 1.89885Z" fill="#A11506"/>
<path fill-rule="evenodd" clip-rule="evenodd" d="M32.7464 13.7024C32.7464 13.7024 32.5089 14.3618 33.6593 15.2168C34.8097 16.0719 47.1897 23.1875 48.0878 23.1875C48.0878 23.1585 38.2906 14.3256 32.7464 13.7024Z" fill="#A11506"/>
<path fill-rule="evenodd" clip-rule="evenodd" d="M40.0791 6.44931L37.37 9.1521L32.7461 13.7026C38.9806 16.1736 42.8549 19.3183 48.0875 23.1225L51.2493 19.8401L54.5669 16.7098C50.5665 11.6375 47.3007 7.91302 44.6882 1.86255L40.0791 6.44931Z" fill="#E2000F"/>
<path fill-rule="evenodd" clip-rule="evenodd" d="M36.0122 15.1593C40.4654 17.3331 43.8276 20.0286 48.0879 23.1299L51.2497 19.8475L54.5674 16.7172C51.1161 12.3695 48.2141 8.97835 45.8019 4.25391C45.891 5.76109 48.9192 10.7754 50.6856 13.2898C52.4521 15.8042 52.311 16.9128 51.168 17.0867C50.0251 17.2606 43.7015 8.703 41.3116 10.4493C38.9217 12.1956 49.3496 19.2533 48.7781 19.8112C46.4773 22.0938 38.6693 16.1882 36.0122 15.1593Z" fill="#DD010E"/>
<path fill-rule="evenodd" clip-rule="evenodd" d="M33.2211 14.84C33.2001 14.7395 33.2109 14.6351 33.252 14.5407C33.2931 14.4462 33.3625 14.3662 33.4511 14.3111C33.7703 14.1227 34.5793 14.4777 34.5793 14.4777L33.4586 13.9198L32.7164 13.7024C32.7164 13.7024 32.4418 14.2966 33.2211 14.84Z" fill="#E2000F"/>
<path fill-rule="evenodd" clip-rule="evenodd" d="M45.8459 2.32622C45.7443 2.30644 45.6389 2.31816 45.5444 2.35973C45.4499 2.40131 45.3711 2.47066 45.319 2.5581C45.126 2.86968 45.4971 3.6595 45.4971 3.6595L44.9108 2.57259L44.6807 1.84798C44.6807 1.84798 45.2893 1.60161 45.8459 2.32622Z" fill="#E2000F"/>
<path fill-rule="evenodd" clip-rule="evenodd" d="M46.6401 18.3039C46.18 17.8618 40.888 13.7606 40.3314 11.8404C39.7747 9.92015 41.3705 9.34771 42.6322 9.44915C43.894 9.5506 43.5674 8.0724 43.5303 6.81883C43.4932 5.56526 44.9034 3.19579 44.2725 3.60157C43.6416 4.00735 39.7525 7.84777 37.7337 9.84044C35.7149 11.8331 34.698 13.0215 34.9875 13.5722C35.8336 15.188 50.1359 20.7675 46.6401 18.3039Z" fill="#E31016"/>
<path fill-rule="evenodd" clip-rule="evenodd" d="M36.1234 12.0865C36.0252 12.2421 35.9607 12.4156 35.9337 12.5964C35.9068 12.7772 35.918 12.9615 35.9666 13.138C36.0153 13.3144 36.1004 13.4793 36.2167 13.6224C36.333 13.7656 36.478 13.884 36.6429 13.9705C37.6152 14.6371 40.7622 16.5283 41.0145 16.2457C41.2669 15.9631 38.3426 14.2531 38.2461 12.8039C38.1496 11.3546 38.3351 10.8329 39.8418 9.45617C41.3485 8.07942 44.0575 4.38392 43.5528 4.59405C43.0481 4.80419 37.0511 10.8981 36.1234 12.0865Z" fill="#E6353B"/>
<path fill-rule="evenodd" clip-rule="evenodd" d="M32.7686 6.35506C32.7686 6.35506 33.3772 5.97826 34.4905 6.88402C35.6038 7.78978 45.4528 17.9778 45.6236 18.84C45.6384 18.84 34.6315 11.4853 32.7686 6.35506Z" fill="#A11506"/>
<path fill-rule="evenodd" clip-rule="evenodd" d="M23.6529 20.3542C23.6529 20.3542 23.5565 21.0425 24.8702 21.644C26.1839 22.2454 39.8108 26.6365 40.6866 26.4336C40.6866 26.4336 29.2046 19.818 23.6529 20.3542Z" fill="#A11506"/>
<path fill-rule="evenodd" clip-rule="evenodd" d="M29.2505 11.7461L27.1724 14.9488L23.6543 20.3472C30.2748 21.4775 34.7428 23.7528 40.725 26.4266L43.0704 22.6152L45.6384 18.8762C40.636 14.717 36.6281 11.7461 32.7686 6.35498L29.2505 11.7461Z" fill="#E2000F"/>
<path fill-rule="evenodd" clip-rule="evenodd" d="M27.1567 21.1009C31.9885 22.3473 35.848 24.2602 40.6871 26.4341L43.0696 22.6154L45.6377 18.8764C41.3254 15.2823 37.7554 12.5723 34.4007 8.45654C34.8089 9.90576 38.8539 14.1737 41.125 16.2896C43.3962 18.4054 43.4927 19.4923 42.4165 19.9126C41.3403 20.3329 33.2799 13.1955 31.3131 15.4055C29.3462 17.6156 41.0805 22.3618 40.6426 23.0284C38.8539 25.7239 29.9474 21.5647 27.1567 21.1009Z" fill="#DD010E"/>
<path fill-rule="evenodd" clip-rule="evenodd" d="M24.3598 21.3619C24.3171 21.2691 24.3048 21.1656 24.3248 21.0657C24.3447 20.9658 24.3958 20.8744 24.4711 20.804C24.7383 20.5504 25.6141 20.7315 25.6141 20.7315L24.3895 20.4417L23.6473 20.3765C23.6473 20.3765 23.484 20.9996 24.3598 21.3619Z" fill="#E2000F"/>
<path fill-rule="evenodd" clip-rule="evenodd" d="M34.008 6.55766C33.9035 6.55922 33.8019 6.592 33.717 6.65159C33.6321 6.71118 33.5679 6.79472 33.533 6.89098C33.4143 7.23154 33.9561 7.92717 33.9561 7.92717L33.1397 6.98518L32.7686 6.36201C32.7686 6.36201 33.2955 5.94899 34.008 6.55766Z" fill="#E2000F"/>
<path fill-rule="evenodd" clip-rule="evenodd" d="M38.2234 21.9924C37.6742 21.6518 31.6178 18.7317 30.6604 16.9709C29.7029 15.2101 31.1428 14.3188 32.3971 14.1594C33.6515 14 33.0132 12.6232 32.7014 11.4059C32.3897 10.1885 33.2729 7.58719 32.746 8.10166C32.219 8.61613 29.2428 13.1956 27.7212 15.5506C26.1997 17.9056 25.4352 19.2824 25.836 19.7678C26.979 21.1663 42.172 23.6807 38.2234 21.9924Z" fill="#E31016"/>
<path fill-rule="evenodd" clip-rule="evenodd" d="M26.6074 18.079C26.5442 18.2504 26.5178 18.4327 26.5296 18.6146C26.5414 18.7964 26.5913 18.9739 26.6762 19.1362C26.761 19.2985 26.879 19.4421 27.0229 19.5581C27.1669 19.6741 27.3336 19.7601 27.5129 19.8108C28.6113 20.26 32.0923 21.4629 32.2853 21.1368C32.4782 20.8107 29.2422 19.7166 28.834 18.3398C28.4258 16.9631 28.4926 16.3906 29.6653 14.7168C30.838 13.0429 32.7009 8.91992 32.2778 9.19528C31.8548 9.47063 27.2457 16.724 26.6074 18.079Z" fill="#E6353B"/>
<path fill-rule="evenodd" clip-rule="evenodd" d="M21.8652 13.3401C21.8652 13.3401 22.3699 12.8473 23.6539 13.4995C25.0493 14.2241 36.8133 22.0281 37.1844 22.8252C37.1844 22.8252 24.8118 17.9631 21.8652 13.3401Z" fill="#A11506"/>
<path fill-rule="evenodd" clip-rule="evenodd" d="M16.0464 28.9267C16.0464 28.9267 16.1132 29.6513 17.5308 29.9339C19.0597 30.2744 33.221 31.6657 34.0375 31.2889C34.03 31.3106 21.3532 27.2383 16.0464 28.9267Z" fill="#A11506"/>
<path fill-rule="evenodd" clip-rule="evenodd" d="M19.624 19.3543L18.2955 22.9194L16.0688 28.9264C22.7932 28.6438 27.6473 29.9191 34.0525 31.2886L35.5369 27.0207L37.2217 22.8252C31.4251 19.8543 26.8308 17.753 21.9026 13.3401L19.624 19.3543Z" fill="#E2000F"/>
<path fill-rule="evenodd" clip-rule="evenodd" d="M19.6392 28.9193C24.6342 29.1367 28.8202 30.1801 34.0305 31.3105L35.5149 27.0426L37.1997 22.8471C32.175 20.2602 28.1077 18.369 23.8994 15.0503C24.6416 16.3908 29.5105 19.7023 32.1899 21.2892C34.8692 22.8761 35.2106 23.9195 34.2458 24.5427C33.2809 25.1658 23.8549 19.9269 22.4447 22.492C21.0345 25.0571 33.5036 27.2237 33.2289 27.9628C32.1082 30.9699 22.5263 28.7816 19.6392 28.9193Z" fill="#DD010E"/>
<path fill-rule="evenodd" clip-rule="evenodd" d="M16.9603 29.7669C16.9003 29.6829 16.8681 29.583 16.8681 29.4806C16.8681 29.3783 16.9003 29.2784 16.9603 29.1944C17.1607 28.8973 18.0513 28.8901 18.0513 28.8901L16.797 28.8394L16.0548 28.9263C16.0548 28.9263 16.0251 29.593 16.9603 29.7669Z" fill="#E2000F"/>
<path fill-rule="evenodd" clip-rule="evenodd" d="M23.1121 13.275C23.0103 13.3008 22.9188 13.3562 22.8499 13.4338C22.781 13.5115 22.7379 13.6077 22.7262 13.7098C22.6891 14.0649 23.3645 14.6301 23.3645 14.6301L22.3625 13.9054L21.8652 13.3692C21.8652 13.3692 22.2809 12.8258 23.1121 13.275Z" fill="#E2000F"/>
<path fill-rule="evenodd" clip-rule="evenodd" d="M30.6378 27.463C30.0292 27.2456 23.4681 25.6732 22.147 24.1515C20.8259 22.6298 22.0282 21.4632 23.2158 21.0429C24.4033 20.6227 23.483 19.4126 22.9115 18.2822C22.34 17.1518 22.622 14.4418 22.2212 15.0577C21.8204 15.6736 19.9278 20.7531 18.9407 23.3907C17.9535 26.0282 17.5305 27.5137 18.0352 27.8977C19.4825 29.0281 34.8684 28.2818 30.6378 27.463Z" fill="#E31016"/>
<path fill-rule="evenodd" clip-rule="evenodd" d="M18.428 26.0857C18.4032 26.2668 18.4169 26.4509 18.4684 26.6265C18.5199 26.8021 18.6079 26.9655 18.7271 27.1063C18.8463 27.2471 18.9939 27.3624 19.1609 27.4449C19.3278 27.5274 19.5104 27.5753 19.6972 27.5857C20.8699 27.7958 24.5364 28.2378 24.6477 27.8755C24.7591 27.5132 21.3672 27.1509 20.6621 25.8683C19.957 24.5858 19.9199 24.0423 20.6621 22.1801C21.4043 20.3178 22.3395 15.8832 21.9906 16.2455C21.6418 16.6079 18.762 24.6293 18.428 26.0857Z" fill="#E6353B"/>
<path fill-rule="evenodd" clip-rule="evenodd" d="M12.7661 22.4414C12.7661 22.4414 13.1521 21.8544 14.5548 22.2167C15.9576 22.579 29.2802 27.7817 29.822 28.4846C29.822 28.4846 16.6627 26.3397 12.7661 22.4414Z" fill="#A11506"/>
<path fill-rule="evenodd" clip-rule="evenodd" d="M10.5244 38.8903C10.5244 38.8903 10.7397 39.5496 12.187 39.5641C13.753 39.5641 27.892 37.9555 28.6045 37.3903C28.6045 37.4121 15.3265 36.1223 10.5244 38.8903Z" fill="#A11506"/>
<path fill-rule="evenodd" clip-rule="evenodd" d="M11.9049 28.7885L11.3928 32.542L10.5244 38.8896C17.0261 37.194 22.0509 37.4404 28.6045 37.4404L29.0944 32.9623L29.8366 28.5132C23.513 26.8321 18.5996 25.7669 12.7659 22.47L11.9049 28.7885Z" fill="#E2000F"/>
<path fill-rule="evenodd" clip-rule="evenodd" d="M14.0273 38.1291C18.9482 37.2741 23.2752 37.4045 28.6043 37.4045L29.0941 32.9264L29.8363 28.4773C24.3885 27.0281 19.9873 26.0354 15.1481 23.6804C16.1501 24.8398 21.6498 27.0426 24.6186 28.0281C27.5874 29.0135 28.1515 29.9628 27.3425 30.7743C26.5335 31.5859 16.2094 28.4483 15.3633 31.2453C14.5172 34.0423 27.2386 33.5496 27.105 34.3322C26.6597 37.5059 16.7883 37.39 14.0273 38.1291Z" fill="#DD010E"/>
<path fill-rule="evenodd" clip-rule="evenodd" d="M11.6006 39.5129C11.5227 39.4459 11.4675 39.3574 11.4423 39.259C11.4171 39.1607 11.4231 39.0572 11.4596 38.9622C11.5932 38.6217 12.469 38.426 12.469 38.426L11.2221 38.6434L10.5244 38.8898C10.5244 38.8898 10.6506 39.5419 11.6006 39.5129Z" fill="#E2000F"/>
<path fill-rule="evenodd" clip-rule="evenodd" d="M13.9759 22.1155C13.8829 22.1616 13.8063 22.2339 13.756 22.3231C13.7057 22.4122 13.6841 22.5141 13.6939 22.6155C13.6939 22.9778 14.5177 23.3908 14.5177 23.3908L13.3747 22.8618L12.7661 22.4488C12.7661 22.4488 13.063 21.8474 13.9759 22.1155Z" fill="#E2000F"/>
<path fill-rule="evenodd" clip-rule="evenodd" d="M24.4483 34.3901C23.81 34.3103 17.0262 34.1509 15.4231 32.9408C13.8199 31.7307 14.6809 30.3395 15.7867 29.6801C16.8926 29.0207 15.6903 28.0352 14.8812 27.0498C14.0722 26.0643 13.7531 23.3398 13.4933 24.0644C13.2336 24.789 12.5062 30.0859 12.1351 32.8684C11.764 35.6509 11.6675 37.216 12.2464 37.4624C13.9015 38.2595 28.7605 34.3031 24.4483 34.3901Z" fill="#E31016"/>
<path fill-rule="evenodd" clip-rule="evenodd" d="M12.2241 35.6075C12.2402 35.7899 12.2945 35.9671 12.3837 36.128C12.473 36.289 12.5952 36.4303 12.7428 36.5431C12.8904 36.656 13.0603 36.7379 13.2417 36.7839C13.4232 36.8299 13.6124 36.8389 13.7976 36.8104C14.9851 36.7669 18.6665 36.4263 18.6962 36.0858C18.7258 35.7452 15.3265 36.035 14.3617 34.9336C13.3968 33.8322 13.2187 33.3105 13.5749 31.3106C13.9312 29.3107 13.8273 24.7891 13.5749 25.2311C13.3226 25.6732 12.2241 34.1148 12.2241 35.6075Z" fill="#E6353B"/>
<path fill-rule="evenodd" clip-rule="evenodd" d="M6.19775 32.6944C6.19775 32.6944 6.4501 32.0423 7.89741 32.1148C9.46346 32.1945 23.4837 34.6146 24.1517 35.1943C24.122 35.1943 10.7994 35.7233 6.19775 32.6944Z" fill="#A11506"/>
<path fill-rule="evenodd" clip-rule="evenodd" d="M7.42139 49.237C7.42139 49.237 7.77022 49.8456 9.18783 49.563C10.7242 49.2587 24.2249 44.8458 24.7742 44.1792C24.8038 44.1792 11.5406 45.5704 7.42139 49.237Z" fill="#A11506"/>
<path fill-rule="evenodd" clip-rule="evenodd" d="M6.64943 39.0782L6.93889 42.8534L7.42132 49.2372C13.4258 46.2808 18.3985 45.4982 24.8038 44.165L24.351 39.6796L24.1209 35.1798C17.5821 34.7958 12.55 34.7378 6.16699 32.6799L6.64943 39.0782Z" fill="#E2000F"/>
<path fill-rule="evenodd" clip-rule="evenodd" d="M10.687 47.7956C15.3332 45.9696 19.5934 45.2522 24.7889 44.1725L24.3361 39.6872L24.106 35.1874C18.4727 34.8541 13.9527 34.7671 8.72754 33.4338C9.94476 34.3613 15.7933 35.4265 18.9106 35.7961C22.0279 36.1656 22.7701 36.9772 22.154 37.9699C21.538 38.9626 10.7538 37.9264 10.5237 40.8321C10.2936 43.7378 22.6068 40.7089 22.6662 41.4987C22.9185 44.658 13.2327 46.5275 10.687 47.7956Z" fill="#DD010E"/>
<path fill-rule="evenodd" clip-rule="evenodd" d="M8.60891 49.6356C8.51814 49.5852 8.44532 49.5089 8.40022 49.4169C8.35511 49.325 8.33988 49.2217 8.35656 49.1211C8.41594 48.766 9.22495 48.3965 9.22495 48.3965L8.05226 48.8602L7.42139 49.237C7.42139 49.237 7.68116 49.8529 8.60891 49.6356Z" fill="#E2000F"/>
<path fill-rule="evenodd" clip-rule="evenodd" d="M7.28137 32.1367C7.19712 32.1976 7.13507 32.2832 7.10434 32.381C7.07362 32.4788 7.07583 32.5837 7.11067 32.6802C7.222 33.028 8.07553 33.2671 8.07553 33.2671L6.8509 32.9845L6.19775 32.7019C6.19775 32.7019 6.33135 32.0353 7.28137 32.1367Z" fill="#E2000F"/>
<path fill-rule="evenodd" clip-rule="evenodd" d="M20.1064 42.0496C19.4607 42.1003 12.818 43.2886 10.9699 42.4336C9.12177 41.5786 9.73038 40.0062 10.6507 39.1729C11.5711 38.3396 10.2054 37.5787 9.21084 36.7817C8.21628 35.9846 7.32564 33.3905 7.22173 34.1151C7.11782 34.8397 7.52603 40.2308 7.73385 43.0278C7.94166 45.8248 8.18659 47.3754 8.80262 47.5059C10.5988 47.9768 24.3073 41.1003 20.1064 42.0496Z" fill="#E31016"/>
<path fill-rule="evenodd" clip-rule="evenodd" d="M8.42472 45.694C8.48224 45.8628 8.57378 46.0186 8.69393 46.1523C8.81409 46.286 8.96043 46.3949 9.12435 46.4726C9.28826 46.5502 9.46644 46.5951 9.64838 46.6045C9.83033 46.6139 10.0124 46.5876 10.1837 46.5273C11.3416 46.2447 14.8745 45.1795 14.8225 44.81C14.7706 44.4404 11.5271 45.4621 10.3693 44.5781C9.21146 43.6941 8.88489 43.2158 8.84036 41.2014C8.79582 39.187 7.71963 34.7887 7.55634 35.2596C7.39306 35.7306 8.08331 44.2303 8.42472 45.694Z" fill="#E6353B"/>
<path fill-rule="evenodd" clip-rule="evenodd" d="M1.74463 44.6359C1.74463 44.6359 1.84854 43.9113 3.27357 43.7157C4.81736 43.4621 19.0454 42.8824 19.8322 43.3099C19.7951 43.3099 6.89554 46.6214 1.74463 44.6359Z" fill="#A11506"/>
<path fill-rule="evenodd" clip-rule="evenodd" d="M6.57568 60.5265C6.57568 60.5265 7.0507 61.0482 8.37182 60.4757C9.69295 59.9033 22.0136 52.7152 22.4737 51.9326C22.4366 51.9326 9.79686 56.0846 6.57568 60.5265Z" fill="#A11506"/>
<path fill-rule="evenodd" clip-rule="evenodd" d="M3.5853 50.7665L4.69861 54.3896L6.57639 60.5197C11.7718 56.375 16.47 54.5635 22.4373 51.9259L21.042 47.6579L19.8322 43.3103C13.323 44.303 8.42448 45.303 1.74463 44.6363L3.5853 50.7665Z" fill="#E2000F"/>
<path fill-rule="evenodd" clip-rule="evenodd" d="M9.44866 58.4329C13.5827 55.6794 17.6129 54.0852 22.4373 51.9114L21.0419 47.6579L19.8321 43.3103C14.2507 44.1653 9.81976 45.0276 4.4165 44.8247C5.81927 45.4769 11.7643 45.2812 14.8816 44.9914C17.9989 44.7015 18.9192 45.3392 18.5258 46.3971C18.1325 47.4551 7.39275 48.7521 7.80096 51.6361C8.20918 54.52 19.5575 48.9767 19.7653 49.7376C20.7079 52.8027 11.653 56.6721 9.44866 58.4329Z" fill="#DD010E"/>
<path fill-rule="evenodd" clip-rule="evenodd" d="M7.82259 60.6716C7.72214 60.6421 7.63339 60.5832 7.56835 60.5028C7.5033 60.4225 7.4651 60.3246 7.45891 60.2223C7.45891 59.86 8.14916 59.3311 8.14916 59.3311L7.11007 60.0557L6.57568 60.5556C6.57568 60.5556 6.93936 61.0774 7.82259 60.6716Z" fill="#E2000F"/>
<path fill-rule="evenodd" clip-rule="evenodd" d="M2.66418 43.8535C2.59743 43.9329 2.55734 44.0305 2.54938 44.1329C2.54141 44.2353 2.56595 44.3376 2.61965 44.426C2.8052 44.7375 3.69585 44.7955 3.69585 44.7955H2.4341L1.69189 44.6651C1.69189 44.6651 1.74385 43.9767 2.66418 43.8535Z" fill="#E2000F"/>
<path fill-rule="evenodd" clip-rule="evenodd" d="M17.3827 50.8749C16.7592 51.0561 10.5396 53.6139 8.54303 53.1719C6.5465 52.7299 6.80627 51.0778 7.50394 50.0489C8.20162 49.0199 6.71721 48.5997 5.56679 48.02C4.41637 47.4403 2.98391 45.1215 3.04329 45.8461C3.10267 46.5708 4.68356 51.7517 5.50741 54.44C6.33126 57.1283 6.89534 58.5703 7.54106 58.592C9.38915 58.5992 21.2719 49.0344 17.3827 50.8749Z" fill="#E31016"/>
<path fill-rule="evenodd" clip-rule="evenodd" d="M6.74669 56.86C6.83824 57.0192 6.96231 57.1583 7.11119 57.2688C7.26008 57.3792 7.43061 57.4587 7.61222 57.5021C7.79384 57.5456 7.98266 57.5522 8.167 57.5215C8.35133 57.4908 8.52725 57.4235 8.68384 57.3237C9.75262 56.8093 12.9589 55.0195 12.8328 54.6717C12.7066 54.3239 9.75262 55.9977 8.37954 55.3963C7.00646 54.7949 6.6502 54.3818 6.15292 52.4254C5.65565 50.469 3.65169 46.3967 3.59232 46.8894C3.53294 47.3821 6.11582 55.4977 6.74669 56.86Z" fill="#E6353B"/>
<path fill-rule="evenodd" clip-rule="evenodd" d="M0 56.4617C0 56.4617 -2.47738e-06 55.7371 1.3137 55.2588C2.62741 54.7806 16.5883 51.3314 17.4418 51.5995C17.4418 51.5995 5.49974 57.3964 0 56.4617Z" fill="#A11506"/>
<path fill-rule="evenodd" clip-rule="evenodd" d="M8.06006 71.0625C8.06006 71.0625 8.63898 71.4828 9.81166 70.6568C10.9843 69.8307 21.5682 60.3601 21.8206 59.5195C21.8206 59.5195 10.2941 66.0917 8.06006 71.0625Z" fill="#A11506"/>
<path fill-rule="evenodd" clip-rule="evenodd" d="M3.10984 62.0994L4.95051 65.4326L8.06035 71.0628C12.3132 65.9906 16.5215 63.2805 21.8208 59.5198L19.5571 55.6069L17.4418 51.5999C11.3112 53.8534 6.69469 55.8026 0 56.4692L3.10984 62.0994Z" fill="#E2000F"/>
<path fill-rule="evenodd" clip-rule="evenodd" d="M10.4424 68.447C13.9159 64.9326 17.5082 62.5777 21.8204 59.5198L19.5567 55.6069L17.4414 51.5999C12.1346 53.5346 7.9931 55.2229 2.66406 56.1142C4.14847 56.4837 9.95252 55.1142 12.9436 54.2157C15.9347 53.3172 16.9664 53.7592 16.8031 54.8751C16.6398 55.991 6.4122 59.3749 7.38449 62.1212C8.35678 64.8674 18.3617 57.2011 18.7477 57.8967C20.2989 60.7082 12.2311 66.2659 10.4424 68.447Z" fill="#DD010E"/>
<path fill-rule="evenodd" clip-rule="evenodd" d="M9.31439 70.954C9.21068 70.9466 9.11194 70.9077 9.03206 70.8427C8.95218 70.7777 8.89517 70.6899 8.86906 70.5917C8.77258 70.2366 9.35892 69.5845 9.35892 69.5845L8.48312 70.4395L8.06006 71.0337C8.06006 71.0337 8.55734 71.5264 9.31439 70.954Z" fill="#E2000F"/>
<path fill-rule="evenodd" clip-rule="evenodd" d="M0.787262 55.5051C0.737604 55.5959 0.7174 55.6993 0.729331 55.8015C0.741262 55.9037 0.784763 56 0.854061 56.0776C1.09899 56.3457 1.98964 56.2225 1.98964 56.2225L0.750152 56.4544H0.00794671C0.00794671 56.4544 -0.118229 55.8095 0.787262 55.5051Z" fill="#E2000F"/>
<path fill-rule="evenodd" clip-rule="evenodd" d="M16.6402 59.4472C16.0687 59.7515 10.5021 63.4905 8.47591 63.4398C6.44969 63.3891 6.33836 61.737 6.80595 60.5921C7.27354 59.4472 5.73717 59.3168 4.49769 58.9834C3.25821 58.6501 1.36558 56.643 1.56598 57.3386C1.76637 58.0342 4.4012 62.8021 5.75944 65.3093C7.11768 67.8164 7.98606 69.0772 8.60951 68.9323C10.4205 68.6207 20.0766 56.9111 16.6402 59.4472Z" fill="#E31016"/>
<path fill-rule="evenodd" clip-rule="evenodd" d="M7.47389 67.4395C7.59644 67.5768 7.74648 67.688 7.91477 67.7665C8.08306 67.845 8.26602 67.889 8.45239 67.8958C8.63876 67.9025 8.82457 67.872 8.99838 67.806C9.17219 67.74 9.33031 67.6399 9.463 67.512C10.3982 66.7874 13.174 64.4106 12.9811 64.0918C12.7881 63.773 10.2423 66.0048 8.79501 65.6642C7.34771 65.3237 6.88754 65.0121 5.98205 63.2006C5.07656 61.389 2.27102 57.7877 2.32298 58.2805C2.37493 58.7732 6.57582 66.2294 7.47389 67.4395Z" fill="#E6353B"/>
<path fill-rule="evenodd" clip-rule="evenodd" d="M0.942546 69.2656C0.942546 69.2656 0.749573 68.5917 1.95195 67.8164C3.15432 67.041 15.9871 60.7515 16.8851 60.8167C16.8851 60.8094 6.50909 68.9902 0.942546 69.2656Z" fill="#A11506"/>
<path fill-rule="evenodd" clip-rule="evenodd" d="M12.0615 81.8084C12.0615 81.8084 12.7147 82.091 13.6795 81.0403C14.6444 79.9897 22.8606 68.4974 22.92 67.6206C22.92 67.6206 13.1303 76.4681 12.0615 81.8084Z" fill="#A11506"/>
<path fill-rule="evenodd" clip-rule="evenodd" d="M5.23233 74.106L7.77068 76.961L12.0606 81.8014C15.074 75.9321 18.5846 72.3815 22.9191 67.6136L19.8167 64.2804L16.8478 60.8022C11.363 64.3021 7.28824 67.186 0.905273 69.2584L5.23233 74.106Z" fill="#E2000F"/>
<path fill-rule="evenodd" clip-rule="evenodd" d="M13.7983 78.7434C16.4109 74.5841 19.3945 71.4973 22.92 67.6206L19.8176 64.2874L16.8488 60.8093C12.1209 63.8309 8.43958 66.3888 3.42969 68.3597C4.9809 68.396 10.3174 65.8381 13.0784 64.3237C15.8394 62.8092 16.9007 63.0266 16.9898 64.1498C17.0788 65.2729 7.81612 70.7582 9.41187 73.2219C11.0076 75.6855 19.0605 66.0917 19.5578 66.7004C21.7028 69.1061 15.1046 76.2362 13.7983 78.7434Z" fill="#DD010E"/>
<path fill-rule="evenodd" clip-rule="evenodd" d="M13.2565 81.4388C13.152 81.4526 13.0458 81.4342 12.9526 81.3861C12.8594 81.3381 12.784 81.2627 12.7369 81.1707C12.5662 80.8518 12.9967 80.0837 12.9967 80.0837L12.3361 81.1344L12.0615 81.8083C12.0615 81.8083 12.6479 82.1561 13.2565 81.4388Z" fill="#E2000F"/>
<path fill-rule="evenodd" clip-rule="evenodd" d="M1.49149 68.1641C1.4643 68.2638 1.46891 68.3693 1.50472 68.4664C1.54052 68.5635 1.60582 68.6476 1.69189 68.7075C1.98877 68.9177 2.82746 68.6133 2.82746 68.6133L1.66962 69.0988L0.927416 69.2655C0.927416 69.2655 0.682487 68.6568 1.49149 68.1641Z" fill="#E2000F"/>
<path fill-rule="evenodd" clip-rule="evenodd" d="M17.8498 68.6495C17.3599 69.0625 12.7583 73.8957 10.7469 74.287C8.73551 74.6783 8.29018 73.0769 8.52027 71.8595C8.75035 70.6422 7.19172 70.8378 5.9077 70.7726C4.62369 70.7074 2.32285 69.1495 2.67911 69.7944C3.03537 70.4393 6.65733 74.5261 8.54253 76.6492C10.4277 78.7723 11.5114 79.852 12.1348 79.6128C13.8196 78.9245 20.6405 65.4468 17.8498 68.6495Z" fill="#E31016"/>
<path fill-rule="evenodd" clip-rule="evenodd" d="M10.6505 78.4101C10.8016 78.5183 10.9737 78.5952 11.1563 78.6361C11.339 78.6769 11.5283 78.6808 11.7125 78.6475C11.8968 78.6143 12.0721 78.5446 12.2277 78.4427C12.3833 78.3408 12.5159 78.2089 12.6173 78.055C13.3595 77.1565 15.5862 74.2436 15.2819 73.9755C14.9776 73.7074 13.0552 76.4247 11.5708 76.4029C10.0864 76.3812 9.56687 76.1638 8.27543 74.5842C6.98399 73.0045 3.45852 70.0916 3.61438 70.5626C3.77025 71.0336 9.52976 77.4029 10.6505 78.4101Z" fill="#E6353B"/>
<path fill-rule="evenodd" clip-rule="evenodd" d="M4.66838 81.4606C4.66838 81.4606 4.32697 80.8447 5.32895 79.8302C6.33093 78.8158 17.4789 69.9756 18.3695 69.8596C18.3695 69.8596 10.042 80.0331 4.66838 81.4606Z" fill="#A11506"/>
<path fill-rule="evenodd" clip-rule="evenodd" d="M18.2879 91.3736C18.2879 91.3736 19.0301 91.5185 19.7055 90.2867C20.3809 89.0548 25.9029 76.1061 25.7619 75.2366C25.7619 75.2366 18.1543 85.9318 18.2879 91.3736Z" fill="#A11506"/>
<path fill-rule="evenodd" clip-rule="evenodd" d="M9.90794 85.2865L13.0178 87.5545L18.2726 91.3732C19.9203 85.0112 22.5774 80.8302 25.7466 75.2362L21.9985 72.6131L18.3691 69.8596C13.7823 74.4246 10.4423 78.0984 4.66797 81.4533L9.90794 85.2865Z" fill="#E2000F"/>
<path fill-rule="evenodd" clip-rule="evenodd" d="M19.3117 88.0183C20.9446 83.4025 23.1786 79.7867 25.7615 75.2362L21.9985 72.6131L18.3691 69.8596C14.4206 73.7942 11.385 77.1057 6.92432 80.0549C8.40873 79.7578 13.0995 76.142 15.4226 74.0913C17.7457 72.0407 18.8664 72.019 19.2004 73.0986C19.5344 74.1783 11.6967 81.4751 13.7971 83.5475C15.8976 85.6198 21.62 74.5623 22.2657 75.0333C24.9005 76.9608 19.9946 85.3083 19.3117 88.0183Z" fill="#DD010E"/>
<path fill-rule="evenodd" clip-rule="evenodd" d="M19.3787 90.7644C19.2799 90.7973 19.1733 90.8004 19.0727 90.7732C18.9721 90.7461 18.8821 90.69 18.8147 90.6122C18.5772 90.3296 18.8147 89.4963 18.8147 89.4963L18.4064 90.663L18.2803 91.3876C18.2803 91.3876 18.9334 91.5905 19.3787 90.7644Z" fill="#E2000F"/>
<path fill-rule="evenodd" clip-rule="evenodd" d="M4.96513 80.2722C4.95819 80.3739 4.98372 80.4752 5.03822 80.5622C5.09272 80.6491 5.17351 80.7175 5.26944 80.7577C5.61085 80.9026 6.36048 80.4316 6.36048 80.4316L5.33624 81.1562L4.66825 81.4751C4.66825 81.4751 4.27488 80.9244 4.96513 80.2722Z" fill="#E2000F"/>
<path fill-rule="evenodd" clip-rule="evenodd" d="M21.0415 77.3085C20.6556 77.8158 17.2266 83.4967 15.3488 84.301C13.471 85.1053 12.6769 83.6416 12.6101 82.4098C12.5433 81.1779 11.1257 81.6852 9.81939 81.9026C8.51311 82.1199 5.95992 81.0692 6.44978 81.6199C6.93963 82.1706 11.3929 85.4024 13.6863 87.1052C15.9797 88.8081 17.3231 89.6051 17.8501 89.2428C19.3716 88.1921 23.0529 73.5913 21.0415 77.3085Z" fill="#E31016"/>
<path fill-rule="evenodd" clip-rule="evenodd" d="M16.1879 88.3299C16.3562 88.4055 16.5386 88.4466 16.7238 88.4508C16.909 88.4549 17.0931 88.4221 17.2648 88.3542C17.4365 88.2863 17.5922 88.1849 17.7222 88.0561C17.8523 87.9273 17.954 87.7739 18.0211 87.6053C18.5629 86.5691 20.0473 83.2577 19.7282 83.0548C19.409 82.8519 18.0731 85.888 16.5887 86.1851C15.1042 86.4822 14.5773 86.3735 12.9667 85.1054C11.3561 83.8374 7.27398 81.7215 7.52633 82.1563C7.77868 82.591 14.8445 87.6053 16.1879 88.3299Z" fill="#E6353B"/>
<path fill-rule="evenodd" clip-rule="evenodd" d="M11.103 92.7429C11.103 92.7429 10.6355 92.2139 11.3851 91.0111C12.1347 89.8082 21.0338 78.8014 21.8799 78.4971C21.8799 78.4971 16.0313 90.1995 11.103 92.7429Z" fill="#A11506"/>
<path fill-rule="evenodd" clip-rule="evenodd" d="M26.6156 99.5108C26.6156 99.5108 27.3578 99.5108 27.7511 98.1485C28.2039 96.6993 30.6309 82.9897 30.2969 82.1709C30.2969 82.1709 25.2648 94.2284 26.6156 99.5108Z" fill="#A11506"/>
<path fill-rule="evenodd" clip-rule="evenodd" d="M17.0858 95.3515L20.6335 96.9021L26.6157 99.5107C26.8013 92.9458 28.449 88.3083 30.3267 82.1708L26.0739 80.4318L21.9101 78.4971C18.4589 83.9316 16.017 88.2286 11.1333 92.7429L17.0858 95.3515Z" fill="#E2000F"/>
<path fill-rule="evenodd" clip-rule="evenodd" d="M26.8608 96.0181C27.4249 91.1632 28.7979 87.1634 30.2972 82.1708L26.0444 80.4318L21.8806 78.4971C18.9118 83.1853 16.6851 87.0257 12.9741 90.8806C14.3917 90.272 18.125 85.7504 19.936 83.2505C21.747 80.7506 22.838 80.497 23.4021 81.4752C23.9662 82.4534 17.9543 91.2574 20.4704 92.8298C22.9865 94.4022 26.0889 82.3882 26.8237 82.6853C29.8445 84.0186 26.9202 93.2211 26.8608 96.0181Z" fill="#DD010E"/>
<path fill-rule="evenodd" clip-rule="evenodd" d="M27.5357 98.6989C27.4504 98.7559 27.3495 98.7864 27.2462 98.7864C27.1429 98.7864 27.042 98.7559 26.9568 98.6989C26.6599 98.4743 26.7192 97.6047 26.7192 97.6047L26.5708 98.8293L26.6153 99.5539C26.6153 99.5539 27.2982 99.5829 27.5357 98.6989Z" fill="#E2000F"/>
<path fill-rule="evenodd" clip-rule="evenodd" d="M11.1258 91.5182C11.1432 91.6192 11.1915 91.7128 11.2643 91.7865C11.3372 91.8602 11.4312 91.9107 11.534 91.9312C11.9051 91.9965 12.5286 91.3733 12.5286 91.3733L11.6899 92.2935L11.111 92.7428C11.111 92.7428 10.5988 92.3008 11.1258 91.5182Z" fill="#E2000F"/>
<path fill-rule="evenodd" clip-rule="evenodd" d="M26.1555 85.1997C25.8883 85.7793 23.8175 92.0545 22.1624 93.2356C20.5073 94.4167 19.4088 93.1559 19.0674 91.9675C18.726 90.7791 17.4197 91.5979 16.2248 92.0762C15.0298 92.5544 12.2837 92.0762 12.8774 92.5182C13.4712 92.9602 18.5405 95.1558 21.1604 96.3006C23.7804 97.4455 25.2723 97.9672 25.7027 97.5035C26.9793 96.1702 27.2911 81.1418 26.1555 85.1997Z" fill="#E31016"/>
<path fill-rule="evenodd" clip-rule="evenodd" d="M23.8842 96.9887C24.0666 97.0239 24.2545 97.0222 24.4362 96.9837C24.618 96.9451 24.7896 96.8705 24.9406 96.7646C25.0916 96.6586 25.2187 96.5235 25.314 96.3676C25.4094 96.2117 25.4709 96.0384 25.4948 95.8583C25.7917 94.7352 26.5042 91.1918 26.1479 91.0614C25.7917 90.931 25.1682 94.2062 23.81 94.8004C22.4517 95.3946 21.8951 95.409 20.0396 94.5178C18.1841 93.6265 13.7308 92.4382 14.1019 92.8005C14.473 93.1628 22.4146 96.5684 23.8842 96.9887Z" fill="#E6353B"/>
<path fill-rule="evenodd" clip-rule="evenodd" d="M19.8323 102.322C19.8323 102.322 19.2534 101.909 19.721 100.568C20.2257 99.1193 26.4008 86.6125 27.1876 86.1343C27.1876 86.1198 24.0777 98.7859 19.8323 102.322Z" fill="#A11506"/>
<path fill-rule="evenodd" clip-rule="evenodd" d="M36.4724 105.633C36.4724 105.633 37.17 105.467 37.2814 104.061C37.4001 102.539 36.7247 88.6559 36.22 87.9241C36.22 87.9241 33.986 100.764 36.4724 105.633Z" fill="#A11506"/>
<path fill-rule="evenodd" clip-rule="evenodd" d="M26.2368 103.59L30.0369 104.351L36.4569 105.634C35.1804 99.1847 35.7667 94.3081 36.2046 87.9243L31.6771 87.1055L27.2239 86.0911C25.027 92.1778 23.5945 96.8732 19.8315 102.322L26.2368 103.59Z" fill="#E2000F"/>
<path fill-rule="evenodd" clip-rule="evenodd" d="M35.9447 102.17C35.4103 97.3152 35.863 93.1125 36.2193 87.9243L31.677 87.1055L27.2238 86.0911C25.3608 91.2937 24.0397 95.511 21.2861 100.062C22.533 99.1702 25.1753 93.9603 26.3851 91.1416C27.5949 88.3229 28.6117 87.8374 29.3539 88.6779C30.0961 89.5185 26.2366 99.4238 29.0125 100.409C31.7883 101.395 32.1817 89.0257 32.9759 89.1851C36.1822 89.8228 35.3806 99.4238 35.9447 102.17Z" fill="#DD010E"/>
<path fill-rule="evenodd" clip-rule="evenodd" d="M37.1916 104.626C37.1175 104.699 37.0222 104.748 36.9186 104.766C36.815 104.784 36.7082 104.771 36.6127 104.728C36.2787 104.576 36.1377 103.713 36.1377 103.713L36.2713 104.938L36.4717 105.663C36.4717 105.663 37.1545 105.561 37.1916 104.626Z" fill="#E2000F"/>
<path fill-rule="evenodd" clip-rule="evenodd" d="M19.5571 101.112C19.5965 101.207 19.6645 101.287 19.752 101.343C19.8396 101.398 19.9425 101.427 20.047 101.424C20.4181 101.424 20.8931 100.699 20.8931 100.699L20.2993 101.742L19.8318 102.308C19.8318 102.308 19.238 101.982 19.5571 101.112Z" fill="#E2000F"/>
<path fill-rule="evenodd" clip-rule="evenodd" d="M32.8496 91.7575C32.716 92.3807 32.1074 98.9456 30.7343 100.453C29.3612 101.96 28.0253 100.96 27.4315 99.8731C26.8377 98.7862 25.7393 99.8731 24.6853 100.598C23.6314 101.322 20.8333 101.446 21.5087 101.743C22.1841 102.04 27.6245 103.119 30.4152 103.685C33.2059 104.25 34.8016 104.409 35.1207 103.895C36.0633 102.322 33.05 87.5548 32.8496 91.7575Z" fill="#E31016"/>
<path fill-rule="evenodd" clip-rule="evenodd" d="M33.2431 103.771C33.4307 103.769 33.6158 103.729 33.7868 103.653C33.9577 103.578 34.1108 103.469 34.2363 103.332C34.3618 103.196 34.4571 103.036 34.5161 102.862C34.5751 102.688 34.5965 102.504 34.5791 102.322C34.6162 101.155 34.5271 97.5541 34.1486 97.4961C33.7701 97.4381 33.8963 100.771 32.6642 101.641C31.4321 102.51 30.9274 102.648 28.9532 102.163C26.9789 101.677 22.3327 101.438 22.7483 101.75C23.164 102.061 31.7216 103.648 33.2431 103.771Z" fill="#E6353B"/>
<path fill-rule="evenodd" clip-rule="evenodd" d="M30.438 109.785C30.438 109.785 29.7922 109.496 29.9481 108.097C30.1188 106.575 33.4068 93.0542 34.0377 92.4238C34.0377 92.4238 33.8076 105.445 30.438 109.785Z" fill="#A11506"/>
<path fill-rule="evenodd" clip-rule="evenodd" d="M47.427 109.517C47.427 109.517 48.0727 109.213 47.8649 107.815C47.6422 106.3 43.9163 92.8877 43.2632 92.2791C43.2632 92.2791 43.9237 105.286 47.427 109.517Z" fill="#A11506"/>
<path fill-rule="evenodd" clip-rule="evenodd" d="M36.9907 109.684L40.8798 109.619L47.4261 109.517C44.7542 103.496 44.242 98.6049 43.2623 92.2791L38.6532 92.4674L34.0367 92.424C33.2945 98.7788 32.916 103.677 30.437 109.815L36.9907 109.684Z" fill="#E2000F"/>
<path fill-rule="evenodd" clip-rule="evenodd" d="M46.1427 106.249C44.547 101.598 44.0497 97.4238 43.263 92.2791L38.6539 92.4674L34.0374 92.424C33.3768 97.902 33.0205 102.3 31.3506 107.322C32.3748 106.184 33.7999 100.54 34.3194 97.5325C34.839 94.5253 35.7519 93.837 36.6945 94.4891C37.6371 95.1413 35.9523 105.605 38.9211 105.989C41.8899 106.373 39.5965 94.2065 40.3387 94.1993C43.6489 94.1485 44.9849 103.692 46.1427 106.249Z" fill="#DD010E"/>
<path fill-rule="evenodd" clip-rule="evenodd" d="M47.9098 108.387C47.8524 108.472 47.7699 108.538 47.6733 108.577C47.5766 108.616 47.4702 108.625 47.368 108.604C47.0043 108.524 46.6777 107.713 46.6777 107.713L47.0785 108.88L47.4274 109.517C47.4274 109.517 48.0731 109.3 47.9098 108.387Z" fill="#E2000F"/>
<path fill-rule="evenodd" clip-rule="evenodd" d="M29.9479 108.67C30.0081 108.753 30.0929 108.816 30.1911 108.851C30.2893 108.886 30.3961 108.891 30.4971 108.865C30.8534 108.778 31.1577 107.952 31.1577 107.952L30.794 109.133L30.46 109.785C30.46 109.785 29.792 109.568 29.9479 108.67Z" fill="#E2000F"/>
<path fill-rule="evenodd" clip-rule="evenodd" d="M40.8132 96.7357C40.8132 97.3661 41.6594 103.917 40.6796 105.67C39.6999 107.424 38.1487 106.735 37.3249 105.801C36.501 104.866 35.6698 106.141 34.794 107.061C33.9182 107.982 31.2239 108.699 31.9513 108.844C32.6787 108.989 38.2229 108.902 41.0953 108.844C43.9676 108.786 45.5485 108.655 45.7341 108.061C46.2759 106.351 40.0859 92.5909 40.8132 96.7357Z" fill="#E31016"/>
<path fill-rule="evenodd" clip-rule="evenodd" d="M43.8653 108.365C44.0464 108.321 44.2163 108.241 44.3648 108.131C44.5132 108.021 44.6371 107.882 44.7288 107.723C44.8205 107.564 44.8781 107.389 44.898 107.208C44.918 107.027 44.9 106.844 44.845 106.669C44.6223 105.525 43.7391 102.025 43.3606 102.046C42.9821 102.068 43.8356 105.3 42.8633 106.394C41.891 107.488 41.3789 107.742 39.323 107.698C37.2671 107.655 32.7025 108.423 33.1701 108.604C33.6377 108.785 42.3512 108.582 43.8653 108.365Z" fill="#E6353B"/>
<path fill-rule="evenodd" clip-rule="evenodd" d="M42.8777 114.967C42.8777 114.967 42.1801 114.836 42.0094 113.43C41.8312 111.909 41.9426 98.0108 42.4176 97.2644C42.4176 97.2499 45.1712 110.003 42.8777 114.967Z" fill="#A11506"/>
<path fill-rule="evenodd" clip-rule="evenodd" d="M59.3765 111.017C59.3765 111.017 59.9331 110.583 59.3765 109.264C58.8124 107.815 52.1103 95.576 51.3384 95.1267C51.3755 95.1122 54.99 107.648 59.3765 111.017Z" fill="#A11506"/>
<path fill-rule="evenodd" clip-rule="evenodd" d="M49.2448 113.438L53.0152 112.532L59.3759 111.003C55.3977 105.714 53.7722 101.062 51.3749 95.1125L46.9217 96.3009L42.4165 97.2501C43.1142 103.612 43.9009 108.467 42.8767 114.952L49.2448 113.438Z" fill="#E2000F"/>
<path fill-rule="evenodd" clip-rule="evenodd" d="M57.4091 108.119C54.7965 103.96 53.364 99.9742 51.412 95.1338L46.9588 96.3221L42.4165 97.2496C43.0177 102.728 43.6783 107.097 43.2032 112.35C43.9454 111.017 44.0345 105.213 43.8935 102.155C43.7525 99.0974 44.4427 98.2424 45.5115 98.6771C46.5803 99.1119 47.367 109.662 50.3358 109.394C53.3047 109.126 48.2057 97.8003 48.9924 97.5975C52.2136 96.8439 55.6649 105.858 57.4091 108.119Z" fill="#DD010E"/>
<path fill-rule="evenodd" clip-rule="evenodd" d="M59.5842 109.8C59.55 109.896 59.4857 109.98 59.4005 110.038C59.3153 110.097 59.2134 110.128 59.1092 110.126C58.7381 110.126 58.2334 109.402 58.2334 109.402L58.8865 110.453L59.3764 110.996C59.3764 110.996 59.9553 110.655 59.5842 109.8Z" fill="#E2000F"/>
<path fill-rule="evenodd" clip-rule="evenodd" d="M42.127 113.988C42.2041 114.057 42.3006 114.101 42.4038 114.115C42.5071 114.129 42.6123 114.113 42.7059 114.068C43.0399 113.901 43.1438 113.032 43.1438 113.032L43.0547 114.264L42.884 114.988C42.884 114.988 42.2012 114.916 42.127 113.988Z" fill="#E2000F"/>
<path fill-rule="evenodd" clip-rule="evenodd" d="M49.9879 99.9884C50.1437 100.604 52.452 106.8 51.8954 108.72C51.3387 110.64 49.6687 110.314 48.6519 109.582C47.6351 108.85 47.123 110.307 46.4773 111.365C45.8315 112.423 43.3674 113.741 44.117 113.72C44.8667 113.698 50.2402 112.415 53.0235 111.742C55.8068 111.068 57.3209 110.589 57.3654 109.966C57.5435 108.162 48.3476 96.1045 49.9879 99.9884Z" fill="#E31016"/>
<path fill-rule="evenodd" clip-rule="evenodd" d="M55.6362 110.655C55.8031 110.574 55.9513 110.46 56.0714 110.321C56.1915 110.181 56.2811 110.019 56.3347 109.845C56.3882 109.67 56.4046 109.487 56.3828 109.306C56.3609 109.125 56.3013 108.951 56.2077 108.793C55.7327 107.728 54.0627 104.503 53.6916 104.612C53.3205 104.721 54.9014 107.677 54.2111 108.96C53.5209 110.242 53.0756 110.59 51.0568 110.996C49.038 111.402 44.7629 113.17 45.2601 113.22C45.7574 113.271 54.2111 111.206 55.6362 110.655Z" fill="#E6353B"/>
<path fill-rule="evenodd" clip-rule="evenodd" d="M56.4372 117.329C56.4372 117.329 55.6949 117.329 55.2348 116.017C54.7746 114.706 51.5757 101.018 51.8652 100.192C51.8652 100.192 57.5134 111.989 56.4372 117.329Z" fill="#A11506"/>
<path fill-rule="evenodd" clip-rule="evenodd" d="M71.5784 109.807C71.5784 109.807 72.0163 109.257 71.2073 108.083C70.3983 106.909 60.9426 96.3658 60.0742 96.105C60.0816 96.105 66.524 107.51 71.5784 109.807Z" fill="#A11506"/>
<path fill-rule="evenodd" clip-rule="evenodd" d="M62.2779 114.423L65.7366 112.706L71.5777 109.807C66.4713 105.539 63.8068 101.366 60.081 96.105L56.0285 98.2788L51.8647 100.228C54.0246 106.264 55.9098 110.815 56.4367 117.365L62.2779 114.423Z" fill="#E2000F"/>
<path fill-rule="evenodd" clip-rule="evenodd" d="M68.9513 107.394C65.4407 103.916 63.1176 100.358 60.0448 96.0759L55.9924 98.2498L51.8286 100.199C53.6915 105.402 55.3467 109.503 56.1037 114.727C56.5193 113.278 55.2576 107.59 54.4041 104.648C53.5505 101.706 54.033 100.706 55.1463 100.895C56.2596 101.083 59.503 111.184 62.3382 110.264C65.1735 109.343 57.5584 99.4309 58.2784 99.0686C61.2695 97.6121 66.7618 105.619 68.9513 107.394Z" fill="#DD010E"/>
<path fill-rule="evenodd" clip-rule="evenodd" d="M71.5112 108.583C71.5001 108.684 71.4571 108.78 71.3879 108.857C71.3188 108.933 71.227 108.987 71.1252 109.01C70.7615 109.097 70.1084 108.503 70.1084 108.503L70.9916 109.38L71.5928 109.807C71.5928 109.807 72.0604 109.336 71.5112 108.583Z" fill="#E2000F"/>
<path fill-rule="evenodd" clip-rule="evenodd" d="M55.4795 116.539C55.57 116.59 55.6746 116.612 55.7785 116.602C55.8825 116.591 55.9804 116.549 56.0584 116.481C56.3404 116.249 56.2365 115.38 56.2365 115.38L56.4444 116.597V117.322C56.4444 117.322 55.769 117.423 55.4795 116.539Z" fill="#E2000F"/>
<path fill-rule="evenodd" clip-rule="evenodd" d="M59.8884 101.156C60.1852 101.721 63.874 107.242 63.7849 109.235C63.6959 111.228 61.9888 111.279 60.8161 110.793C59.6434 110.308 59.4876 111.807 59.1165 113.018C58.7454 114.228 56.6672 116.017 57.4094 115.836C58.1516 115.655 63.0724 113.199 65.633 111.931C68.1936 110.663 69.5444 109.851 69.448 109.235C69.1362 107.445 57.4094 97.7428 59.8884 101.156Z" fill="#E31016"/>
<path fill-rule="evenodd" clip-rule="evenodd" d="M67.8528 110.293C67.9964 110.176 68.1141 110.032 68.1984 109.869C68.2827 109.707 68.332 109.529 68.3431 109.347C68.3542 109.165 68.327 108.983 68.2631 108.811C68.1992 108.64 68.1 108.483 67.9716 108.351C67.2294 107.423 64.8914 104.655 64.5574 104.844C64.2234 105.032 66.4501 107.561 66.0418 108.967C65.6336 110.372 65.2996 110.807 63.4441 111.648C61.5886 112.488 57.8182 115.133 58.3229 115.104C58.8276 115.075 66.5911 111.14 67.8528 110.293Z" fill="#E6353B"/>
<path fill-rule="evenodd" clip-rule="evenodd" d="M69.7079 116.691C69.7079 116.691 69.0176 116.865 68.2235 115.67C67.4293 114.474 61.2913 101.822 61.3804 100.953C61.3952 100.953 69.5595 111.25 69.7079 116.691Z" fill="#A11506"/>
<path fill-rule="evenodd" clip-rule="evenodd" d="M82.7933 106.105C82.7933 106.105 83.0976 105.474 82.0511 104.511C81.0046 103.547 69.4336 95.279 68.5059 95.2065C68.4984 95.2065 77.3455 104.953 82.7933 106.105Z" fill="#A11506"/>
<path fill-rule="evenodd" clip-rule="evenodd" d="M74.755 112.611L77.7238 110.191L82.7708 106.104C76.8332 103.039 73.2929 99.5395 68.476 95.2354L64.995 98.1918L61.373 100.981C64.8391 106.402 67.7041 110.445 69.6858 116.72L74.755 112.611Z" fill="#E2000F"/>
<path fill-rule="evenodd" clip-rule="evenodd" d="M79.6758 104.344C75.4601 101.706 72.3948 98.7281 68.476 95.2065L64.995 98.1629L61.373 100.953C64.3419 105.626 66.9025 109.278 68.7951 114.213C68.8619 112.699 66.3607 107.431 64.8688 104.735C63.377 102.04 63.6219 100.974 64.7724 100.916C65.9228 100.858 71.3409 110.018 73.9015 108.51C76.4621 107.003 66.7986 98.9673 67.422 98.4673C70.0272 96.4239 77.1523 103.047 79.6758 104.344Z" fill="#DD010E"/>
<path fill-rule="evenodd" clip-rule="evenodd" d="M82.4372 104.931C82.4492 105.032 82.4285 105.135 82.3779 105.225C82.3274 105.314 82.2495 105.386 82.1552 105.431C81.8212 105.59 81.0493 105.155 81.0493 105.155L82.1107 105.822L82.7935 106.105C82.7935 106.105 83.1572 105.547 82.4372 104.931Z" fill="#E2000F"/>
<path fill-rule="evenodd" clip-rule="evenodd" d="M68.5952 116.126C68.695 116.157 68.8022 116.157 68.902 116.126C69.0017 116.095 69.089 116.034 69.1519 115.952C69.3745 115.662 69.0851 114.836 69.0851 114.836L69.5527 115.981L69.7159 116.706C69.7159 116.706 69.0776 116.93 68.5952 116.126Z" fill="#E2000F"/>
<path fill-rule="evenodd" clip-rule="evenodd" d="M69.4412 100.148C69.8568 100.633 74.7034 105.22 75.0597 107.198C75.416 109.176 73.7683 109.575 72.5288 109.372C71.2893 109.169 71.4526 110.647 71.3635 111.901C71.2745 113.155 69.6193 115.357 70.2873 115.024C70.9553 114.691 75.2156 111.242 77.4273 109.452C79.6391 107.662 80.7821 106.59 80.552 106.01C79.8766 104.329 66.22 97.387 69.4412 100.148Z" fill="#E31016"/>
<path fill-rule="evenodd" clip-rule="evenodd" d="M79.2681 107.394C79.3823 107.249 79.4649 107.083 79.5108 106.906C79.5567 106.728 79.565 106.544 79.5351 106.363C79.5052 106.183 79.4378 106.01 79.337 105.856C79.2362 105.702 79.1041 105.569 78.949 105.467C78.0435 104.742 75.1117 102.525 74.8297 102.778C74.5477 103.032 77.2864 105.025 77.227 106.474C77.1677 107.923 76.945 108.43 75.3047 109.655C73.6644 110.88 70.5917 114.256 71.0816 114.119C71.5714 113.981 78.229 108.481 79.2681 107.394Z" fill="#E6353B"/>
<path fill-rule="evenodd" clip-rule="evenodd" d="M82.311 113.307C82.311 113.307 81.6802 113.619 80.6559 112.619C79.6317 111.619 70.8143 100.561 70.7178 99.6917C70.7178 99.6917 80.9602 108.025 82.311 113.307Z" fill="#A11506"/>
<path fill-rule="evenodd" clip-rule="evenodd" d="M92.746 100.214C92.746 100.214 92.9093 99.5325 91.6624 98.8152C90.4155 98.0978 77.271 92.4676 76.3804 92.5836C76.3804 92.5836 87.172 100.228 92.746 100.214Z" fill="#A11506"/>
<path fill-rule="evenodd" clip-rule="evenodd" d="M86.3554 108.257L88.7378 105.264L92.7606 100.192C86.2811 98.4526 82.058 95.7788 76.395 92.5615L73.6488 96.1846L70.7319 99.6699C75.3113 104.235 79.0075 107.575 82.3252 113.285L86.3554 108.257Z" fill="#E2000F"/>
<path fill-rule="evenodd" clip-rule="evenodd" d="M89.3245 99.1412C84.6337 97.4529 80.9747 95.1993 76.373 92.5835L73.6268 96.2065L70.71 99.6919C74.6585 103.627 77.9465 106.648 80.9079 111.068C80.6407 109.576 77.0336 104.96 74.9702 102.648C72.9069 100.337 72.9217 99.2354 74.035 98.9311C75.1483 98.6267 82.4591 106.438 84.6263 104.424C86.7936 102.409 75.5788 96.6051 76.0761 95.9819C78.1097 93.453 86.5635 98.4238 89.3245 99.1412Z" fill="#DD010E"/>
<path fill-rule="evenodd" clip-rule="evenodd" d="M92.1443 99.1411C92.1757 99.2379 92.1762 99.3417 92.1457 99.4388C92.1152 99.5359 92.0552 99.6216 91.9736 99.6846C91.6841 99.9164 90.8306 99.6846 90.8306 99.6846L92.0181 100.112L92.7603 100.243C92.7603 100.243 92.9755 99.5831 92.1443 99.1411Z" fill="#E2000F"/>
<path fill-rule="evenodd" clip-rule="evenodd" d="M81.1006 112.988C81.2051 112.997 81.3099 112.974 81.4004 112.922C81.4909 112.87 81.5625 112.792 81.6053 112.698C81.7612 112.372 81.2861 111.626 81.2861 111.626L82.0283 112.64L82.3401 113.3C82.3401 113.3 81.7537 113.677 81.1006 112.988Z" fill="#E2000F"/>
<path fill-rule="evenodd" clip-rule="evenodd" d="M78.3992 97.2497C78.9113 97.6338 84.6634 101.105 85.4427 102.952C86.222 104.8 84.7005 105.547 83.4462 105.583C82.1919 105.619 82.704 107.032 82.8673 108.3C83.0306 109.568 81.9321 112.046 82.511 111.582C83.0899 111.119 86.4892 106.844 88.2557 104.633C90.0221 102.423 90.8905 101.134 90.5343 100.612C89.51 99.0902 74.6362 95.1919 78.3992 97.2497Z" fill="#E31016"/>
<path fill-rule="evenodd" clip-rule="evenodd" d="M89.5842 102.206C89.6652 102.041 89.7102 101.861 89.7164 101.677C89.7225 101.494 89.6897 101.312 89.62 101.141C89.5502 100.971 89.4451 100.817 89.3112 100.688C89.1772 100.56 89.0175 100.46 88.842 100.395C87.7954 99.8438 84.4407 98.3294 84.2254 98.6338C84.0102 98.9381 87.12 100.308 87.3872 101.742C87.6544 103.177 87.5357 103.706 86.2071 105.249C84.8786 106.793 82.6297 110.735 83.075 110.496C83.5203 110.256 88.8123 103.496 89.5842 102.206Z" fill="#E6353B"/>
<path fill-rule="evenodd" clip-rule="evenodd" d="M93.7776 107.395C93.7776 107.395 93.2284 107.837 92.0111 107.076C90.7939 106.315 79.7573 97.3589 79.4604 96.5256C79.4604 96.5256 91.2986 102.525 93.7776 107.395Z" fill="#A11506"/>
<path fill-rule="evenodd" clip-rule="evenodd" d="M101.102 92.4311C101.102 92.4311 101.102 91.7065 99.7294 91.2934C98.245 90.8079 84.2841 88.0979 83.4009 88.395C83.438 88.4022 95.6547 93.6267 101.102 92.4311Z" fill="#A11506"/>
<path fill-rule="evenodd" clip-rule="evenodd" d="M96.6054 101.598L98.2754 98.1775L101.103 92.3806C94.3862 92.0328 89.6732 90.3082 83.4387 88.3518L81.5535 92.4603L79.4604 96.5254C84.9453 100.032 89.2798 102.518 93.7776 107.394L96.6054 101.598Z" fill="#E2000F"/>
<path fill-rule="evenodd" clip-rule="evenodd" d="M97.5331 92.1048C92.5752 91.431 88.5079 89.989 83.4312 88.4021L81.546 92.5106L79.4604 96.525C84.1883 99.5466 88.0626 101.815 91.9221 105.51C91.3357 104.104 86.7934 100.351 84.2848 98.5249C81.7761 96.6989 81.5312 95.6264 82.5554 95.0902C83.5797 94.554 92.4268 100.655 94.1042 98.2423C95.7815 95.8293 83.5574 92.4961 83.9063 91.7788C85.3164 88.8948 94.6682 91.9744 97.5331 92.1048Z" fill="#DD010E"/>
<path fill-rule="evenodd" clip-rule="evenodd" d="M100.272 91.511C100.327 91.5986 100.353 91.7005 100.346 91.8029C100.339 91.9053 100.301 92.0033 100.235 92.0834C99.9976 92.366 99.1069 92.2863 99.1069 92.2863L100.361 92.453H101.103C101.103 92.453 101.2 91.7718 100.272 91.511Z" fill="#E2000F"/>
<path fill-rule="evenodd" clip-rule="evenodd" d="M92.5299 107.351C92.6332 107.336 92.7293 107.291 92.8051 107.221C92.8809 107.151 92.9325 107.06 92.9529 106.96C93.0346 106.605 92.4111 105.974 92.4111 105.974L93.3315 106.822L93.7842 107.394C93.7842 107.394 93.3092 107.88 92.5299 107.351Z" fill="#E2000F"/>
<path fill-rule="evenodd" clip-rule="evenodd" d="M86.4377 92.5252C87.0166 92.7933 93.3921 94.9744 94.5648 96.6193C95.7375 98.2641 94.4164 99.3075 93.1917 99.6119C91.9671 99.9162 92.7687 101.206 93.1917 102.38C93.6148 103.554 93.1027 106.235 93.5628 105.662C94.023 105.09 96.4129 100.206 97.645 97.6917C98.877 95.1773 99.4559 93.7208 98.9958 93.2861C97.6895 92.018 82.3036 91.3151 86.4377 92.5252Z" fill="#E31016"/>
<path fill-rule="evenodd" clip-rule="evenodd" d="M98.4538 95.0761C98.4946 94.8977 98.4977 94.7131 98.4628 94.5335C98.4279 94.354 98.3557 94.1833 98.2507 94.0319C98.1458 93.8806 98.0102 93.7518 97.8524 93.6535C97.6946 93.5552 97.5178 93.4894 97.333 93.4602C96.19 93.1414 92.5829 92.3588 92.4345 92.7356C92.286 93.1124 95.6334 93.7646 96.2049 95.1051C96.7764 96.4456 96.7838 96.9963 95.8264 98.7789C94.8689 100.561 93.5329 104.887 93.9115 104.576C94.29 104.264 97.9788 96.4601 98.4538 95.0761Z" fill="#E6353B"/>
<path fill-rule="evenodd" clip-rule="evenodd" d="M103.804 99.1194C103.804 99.1194 103.359 99.6701 102.001 99.1773C100.517 98.6484 87.899 92.2863 87.4092 91.5327C87.4092 91.5327 100.301 94.8877 103.804 99.1194Z" fill="#A11506"/>
<path fill-rule="evenodd" clip-rule="evenodd" d="M107.627 82.9535C107.627 82.9535 107.471 82.2723 106.032 82.1346C104.473 81.9752 90.2448 82.2868 89.4878 82.7578C89.4878 82.7578 102.573 85.265 107.627 82.9535Z" fill="#A11506"/>
<path fill-rule="evenodd" clip-rule="evenodd" d="M105.275 92.902L106.151 89.2065L107.635 82.9676C101 84.0545 96.012 83.3662 89.4955 82.772L88.5825 87.1703L87.4321 91.518C93.5627 93.7788 98.35 95.2932 103.827 99.1046L105.275 92.902Z" fill="#E2000F"/>
<path fill-rule="evenodd" clip-rule="evenodd" d="M104.065 83.388C99.0773 83.7865 94.7948 83.2431 89.488 82.7576L88.5825 87.1704L87.4321 91.5181C92.7166 93.4673 97.0066 94.8585 101.593 97.6483C100.71 96.4019 95.4405 93.6991 92.583 92.4456C89.7255 91.192 89.2505 90.1993 90.1338 89.4602C91.017 88.7211 101.007 92.8079 102.106 90.0978C103.204 87.3878 90.5345 86.7139 90.7127 85.9458C91.4326 82.8445 101.245 83.8735 104.065 83.388Z" fill="#DD010E"/>
<path fill-rule="evenodd" clip-rule="evenodd" d="M106.61 82.2285C106.682 82.3025 106.729 82.3964 106.745 82.4974C106.761 82.5985 106.745 82.7019 106.699 82.7937C106.536 83.1198 105.645 83.2357 105.645 83.2357L106.907 83.1343L107.649 82.9531C107.649 82.9531 107.56 82.2937 106.61 82.2285Z" fill="#E2000F"/>
<path fill-rule="evenodd" clip-rule="evenodd" d="M102.573 99.3294C102.67 99.2926 102.754 99.2278 102.812 99.1436C102.87 99.0595 102.901 98.96 102.9 98.8584C102.9 98.4961 102.158 98.0178 102.158 98.0178L103.249 98.641L103.813 99.112C103.813 99.112 103.427 99.6844 102.573 99.3294Z" fill="#E2000F"/>
<path fill-rule="evenodd" clip-rule="evenodd" d="M93.3249 86.149C93.9557 86.294 100.665 87.0693 102.172 88.4243C103.679 89.7793 102.625 91.0836 101.497 91.6343C100.368 92.185 101.437 93.2864 102.142 94.3371C102.847 95.3878 102.884 98.1196 103.233 97.4602C103.582 96.8008 104.799 91.5329 105.46 88.8011C106.12 86.0693 106.343 84.5404 105.801 84.2143C104.168 83.2723 89.0275 85.8447 93.3249 86.149Z" fill="#E31016"/>
<path fill-rule="evenodd" clip-rule="evenodd" d="M105.653 86.0619C105.655 85.8793 105.617 85.6983 105.544 85.5303C105.471 85.3622 105.363 85.2107 105.227 85.085C105.092 84.9593 104.931 84.8622 104.755 84.7996C104.58 84.7371 104.393 84.7104 104.206 84.7214C103.018 84.6561 99.3222 84.6561 99.2554 85.0257C99.1886 85.3952 102.603 85.3518 103.464 86.5401C104.325 87.7285 104.451 88.2647 103.909 90.2066C103.367 92.1486 103.026 96.6556 103.323 96.2571C103.62 95.8586 105.475 87.5473 105.653 86.0619Z" fill="#E6353B"/>
<path fill-rule="evenodd" clip-rule="evenodd" d="M111.716 88.953C111.716 88.953 111.412 89.5834 109.972 89.395C108.421 89.1849 94.6606 85.6416 94.0371 85.0039C94.0371 85.0039 107.36 85.5619 111.716 88.953Z" fill="#A11506"/>
<path fill-rule="evenodd" clip-rule="evenodd" d="M111.873 72.3669C111.873 72.3669 111.576 71.7365 110.136 71.896C108.585 72.0771 94.7574 75.3813 94.1191 76.0045C94.1191 76.0045 107.457 75.6857 111.873 72.3669Z" fill="#A11506"/>
<path fill-rule="evenodd" clip-rule="evenodd" d="M111.776 82.5549L111.813 78.7652L111.872 72.3669C105.638 74.8234 100.62 75.2002 94.1188 75.99L94.193 80.4898L94.0371 84.9896C100.517 85.9099 105.526 86.3736 111.716 88.9387L111.776 82.5549Z" fill="#E2000F"/>
<path fill-rule="evenodd" clip-rule="evenodd" d="M108.495 73.5408C103.715 74.99 99.4033 75.3523 94.1188 76.0044L94.193 80.5043L94.0371 85.0041C99.6259 85.7939 104.116 86.2504 109.215 88.004C108.08 86.975 102.335 85.4461 99.2697 84.8302C96.2043 84.2142 95.5215 83.3302 96.2192 82.4317C96.9169 81.5332 107.575 83.4027 108.05 80.5187C108.525 77.6348 96.0039 79.6637 96.0039 78.8739C96.0039 75.6711 105.846 74.6059 108.495 73.5408Z" fill="#DD010E"/>
<path fill-rule="evenodd" clip-rule="evenodd" d="M110.73 71.8889C110.815 71.9476 110.88 72.0305 110.916 72.1263C110.952 72.2222 110.957 72.3264 110.93 72.4251C110.841 72.7729 110.002 73.07 110.002 73.07L111.212 72.7077L111.873 72.3816C111.873 72.3816 111.665 71.7295 110.73 71.8889Z" fill="#E2000F"/>
<path fill-rule="evenodd" clip-rule="evenodd" d="M110.559 89.4239C110.648 89.3693 110.717 89.289 110.757 89.1942C110.797 89.0993 110.806 88.9947 110.782 88.8949C110.7 88.5399 109.861 88.2283 109.861 88.2283L111.064 88.6123L111.717 88.9529C111.717 88.9529 111.502 89.5833 110.559 89.4239Z" fill="#E2000F"/>
<path fill-rule="evenodd" clip-rule="evenodd" d="M98.6167 78.5042C99.2699 78.5042 105.987 77.8593 107.761 78.8592C109.535 79.8592 108.792 81.3591 107.813 82.1345C106.833 82.9098 108.117 83.7576 109.045 84.6344C109.972 85.5111 110.626 88.1632 110.796 87.4603C110.967 86.7575 111.012 81.3374 111.041 78.5332C111.071 75.7289 110.96 74.1855 110.351 73.9826C108.622 73.3957 94.3565 79.1346 98.6167 78.5042Z" fill="#E31016"/>
<path fill-rule="evenodd" clip-rule="evenodd" d="M110.603 75.8233C110.563 75.6451 110.485 75.4768 110.376 75.3287C110.266 75.1807 110.127 75.0561 109.967 74.9624C109.806 74.8688 109.628 74.8082 109.442 74.7843C109.257 74.7603 109.068 74.7737 108.889 74.8234C107.716 75.0045 104.109 75.7871 104.124 76.1639C104.138 76.5407 107.464 75.7726 108.577 76.7508C109.69 77.7291 109.92 78.2 109.816 80.2434C109.712 82.2868 110.388 86.7214 110.559 86.2722C110.729 85.8229 110.789 77.3088 110.603 75.8233Z" fill="#E6353B"/>
<path fill-rule="evenodd" clip-rule="evenodd" d="M117.276 77.1493C117.276 77.1493 117.112 77.8232 115.673 77.9464C114.114 78.0769 99.8859 77.5696 99.1362 77.0914C99.1362 77.0914 112.258 74.7871 117.276 77.1493Z" fill="#A11506"/>
<path fill-rule="evenodd" clip-rule="evenodd" d="M113.691 60.9326C113.691 60.9326 113.26 60.3747 111.894 60.8457C110.41 61.3529 97.6664 67.5411 97.1914 68.2874C97.1914 68.2657 110.106 65.1136 113.691 60.9326Z" fill="#A11506"/>
<path fill-rule="evenodd" clip-rule="evenodd" d="M115.895 70.8887L115.071 67.186L113.691 60.9326C108.161 64.6426 103.344 66.0918 97.1914 68.2657L98.275 72.6133L99.136 77.0407C105.66 76.5407 110.655 75.9175 117.275 77.0986L115.895 70.8887Z" fill="#E2000F"/>
<path fill-rule="evenodd" clip-rule="evenodd" d="M110.655 62.8022C106.321 65.2297 102.201 66.5195 97.1914 68.2875L98.275 72.6352L99.136 77.0625C104.762 76.6278 109.252 76.106 114.618 76.7292C113.275 75.9684 107.33 75.7075 104.228 75.7582C101.125 75.809 100.234 75.1061 100.709 74.0771C101.184 73.0482 112.013 72.5845 111.843 69.6788C111.672 66.7731 99.9005 71.4251 99.7297 70.6498C98.9727 67.5412 108.317 64.4109 110.655 62.8022Z" fill="#DD010E"/>
<path fill-rule="evenodd" clip-rule="evenodd" d="M112.459 60.6936C112.556 60.732 112.638 60.7984 112.696 60.8839C112.753 60.9694 112.781 61.0699 112.778 61.1719C112.778 61.5342 112.036 62.0052 112.036 62.0052L113.135 61.3893L113.706 60.9328C113.706 60.9328 113.35 60.3531 112.459 60.6936Z" fill="#E2000F"/>
<path fill-rule="evenodd" clip-rule="evenodd" d="M116.252 77.8523C116.325 77.7783 116.372 77.6845 116.388 77.5834C116.404 77.4823 116.387 77.3789 116.341 77.2871C116.185 76.9611 115.302 76.8379 115.302 76.8379L116.557 76.9538L117.299 77.1422C117.299 77.1422 117.202 77.8016 116.252 77.8523Z" fill="#E2000F"/>
<path fill-rule="evenodd" clip-rule="evenodd" d="M102.142 69.7584C102.773 69.628 109.186 67.5846 111.138 68.1425C113.09 68.7005 112.704 70.3598 111.925 71.3308C111.145 72.3018 112.593 72.8525 113.691 73.5046C114.789 74.1568 116.029 76.6132 116.036 75.8813C116.044 75.1495 114.871 69.8671 114.262 67.1208C113.654 64.3746 113.209 62.9036 112.57 62.8312C110.73 62.6355 98.1195 71.2656 102.142 69.7584Z" fill="#E31016"/>
<path fill-rule="evenodd" clip-rule="evenodd" d="M113.223 64.5774C113.145 64.4114 113.033 64.2628 112.894 64.1409C112.754 64.0189 112.591 63.9262 112.413 63.8685C112.236 63.8107 112.048 63.7892 111.862 63.8052C111.676 63.8212 111.495 63.8744 111.33 63.9615C110.224 64.3962 106.877 65.9324 106.981 66.2947C107.085 66.657 110.158 65.2005 111.434 65.9179C112.711 66.6353 113.082 67.07 113.431 69.0555C113.779 71.0409 115.449 75.2581 115.546 74.7726C115.642 74.2871 113.742 65.9831 113.223 64.5774Z" fill="#E6353B"/>
<path fill-rule="evenodd" clip-rule="evenodd" d="M119.97 65.0411C119.97 65.0411 119.97 65.7657 118.575 66.157C117.09 66.599 103.055 69.0555 102.246 68.7004C102.216 68.7004 114.559 63.7441 119.97 65.0411Z" fill="#A11506"/>
<path fill-rule="evenodd" clip-rule="evenodd" d="M112.985 49.9184C112.985 49.9184 112.444 49.4692 111.204 50.201C109.965 50.9329 98.7351 59.6644 98.4233 60.4905C98.4233 60.4905 110.395 54.7443 112.985 49.9184Z" fill="#A11506"/>
<path fill-rule="evenodd" clip-rule="evenodd" d="M117.275 59.2081L115.68 55.7517L112.985 49.9548C108.376 54.7445 103.982 57.1429 98.4233 60.5269L100.427 64.5847L102.216 68.7367C108.495 66.9107 113.245 65.2803 119.97 65.1136L117.275 59.2081Z" fill="#E2000F"/>
<path fill-rule="evenodd" clip-rule="evenodd" d="M110.417 52.3677C106.706 55.6357 102.943 57.737 98.4233 60.4905L100.427 64.5483L102.216 68.7003C107.634 67.1279 111.909 65.7005 117.29 65.2005C115.806 64.7367 109.942 65.7005 106.899 66.3888C103.856 67.0772 102.854 66.57 103.099 65.4686C103.344 64.3672 113.832 61.6934 113.023 58.8891C112.214 56.0849 101.711 63.0412 101.385 62.3238C100.027 59.4036 108.473 54.4183 110.417 52.3677Z" fill="#DD010E"/>
<path fill-rule="evenodd" clip-rule="evenodd" d="M111.731 49.9405C111.834 49.9578 111.928 50.0052 112.002 50.0764C112.077 50.1476 112.127 50.2392 112.147 50.339C112.213 50.6941 111.583 51.31 111.583 51.31L112.518 50.4912L112.985 49.9187C112.985 49.9187 112.525 49.426 111.731 49.9405Z" fill="#E2000F"/>
<path fill-rule="evenodd" clip-rule="evenodd" d="M119.117 65.9396C119.178 65.856 119.211 65.756 119.211 65.6533C119.211 65.5507 119.178 65.4506 119.117 65.3671C118.894 65.0845 118.003 65.1425 118.003 65.1425L119.258 64.9976L120 65.0338C120 65.0338 120.037 65.7004 119.117 65.9396Z" fill="#E2000F"/>
<path fill-rule="evenodd" clip-rule="evenodd" d="M103.589 60.9184C104.176 60.6576 110.002 57.2954 112.036 57.4983C114.069 57.7012 114.047 59.346 113.52 60.4547C112.993 61.5633 114.5 61.8024 115.71 62.2155C116.919 62.6285 118.678 64.7733 118.515 64.0632C118.352 63.3531 116.088 58.4113 114.901 55.8606C113.713 53.31 112.964 51.9478 112.325 52.013C110.455 52.1941 99.9749 63.1937 103.589 60.9184Z" fill="#E31016"/>
<path fill-rule="evenodd" clip-rule="evenodd" d="M113.313 53.5776C113.201 53.4318 113.059 53.31 112.896 53.2198C112.734 53.1296 112.554 53.0729 112.369 53.0532C112.183 53.0335 111.995 53.0512 111.817 53.1053C111.638 53.1593 111.473 53.2486 111.331 53.3675C110.344 54.0196 107.397 56.2007 107.576 56.534C107.754 56.8673 110.448 54.8167 111.866 55.2514C113.283 55.6862 113.721 56.0413 114.493 57.9107C115.265 59.7802 117.788 63.5627 117.788 63.07C117.788 62.5772 114.122 54.8457 113.313 53.5776Z" fill="#E6353B"/>
<path fill-rule="evenodd" clip-rule="evenodd" d="M119.94 52.0925C119.94 52.0925 120.089 52.7736 118.834 53.4765C117.469 54.2011 104.332 59.5849 103.448 59.4545C103.426 59.4545 114.366 51.9838 119.94 52.0925Z" fill="#A11506"/>
<path fill-rule="evenodd" clip-rule="evenodd" d="M109.735 38.8322C109.735 38.8322 109.104 38.5061 108.065 39.4843C107.026 40.4626 98.023 51.3824 97.9043 52.2592C97.9043 52.2592 108.288 44.0856 109.735 38.8322Z" fill="#A11506"/>
<path fill-rule="evenodd" clip-rule="evenodd" d="M116.044 46.9764L113.706 43.9475L109.773 38.8318C106.351 44.4837 102.603 47.7662 97.9419 52.2588L100.799 55.7876L103.486 59.4541C109.201 56.3311 113.469 53.7225 119.978 52.0921L116.044 46.9764Z" fill="#E2000F"/>
<path fill-rule="evenodd" clip-rule="evenodd" d="M107.783 41.7666C104.881 45.7519 101.697 48.5997 97.9043 52.2589L100.762 55.7878L103.449 59.4543C108.369 56.7587 112.221 54.4545 117.365 52.8241C115.821 52.6792 110.307 54.8748 107.486 56.2008C104.666 57.5268 103.582 57.2442 103.575 56.1138C103.567 54.9835 113.223 50.1358 111.776 47.5707C110.329 45.0056 101.675 54.0487 101.192 53.4183C99.218 50.8749 106.343 44.1868 107.783 41.7666Z" fill="#DD010E"/>
<path fill-rule="evenodd" clip-rule="evenodd" d="M108.511 39.1217C108.615 39.1149 108.719 39.1399 108.808 39.1931C108.897 39.2463 108.967 39.3251 109.008 39.4188C109.156 39.7521 108.681 40.484 108.681 40.484L109.424 39.484L109.75 38.8319C109.75 38.8319 109.171 38.4478 108.511 39.1217Z" fill="#E2000F"/>
<path fill-rule="evenodd" clip-rule="evenodd" d="M119.316 53.15C119.35 53.0535 119.353 52.9494 119.325 52.8512C119.298 52.7529 119.24 52.6652 119.161 52.5993C118.871 52.3674 118.018 52.5993 118.018 52.5993L119.205 52.1935L119.947 52.0703C119.947 52.0703 120.163 52.7152 119.316 53.15Z" fill="#E2000F"/>
<path fill-rule="evenodd" clip-rule="evenodd" d="M103.034 51.5995C103.553 51.2155 108.481 46.7084 110.508 46.4548C112.534 46.2012 112.883 47.8243 112.593 49.0271C112.304 50.23 113.848 50.1285 115.124 50.2807C116.401 50.4329 118.583 52.143 118.279 51.4763C117.974 50.8097 114.634 46.491 112.912 44.2302C111.19 41.9695 110.144 40.8318 109.535 41.0275C107.776 41.5927 100.028 54.5849 103.034 51.5995Z" fill="#E31016"/>
<path fill-rule="evenodd" clip-rule="evenodd" d="M110.848 42.3318C110.706 42.2123 110.541 42.1227 110.362 42.0686C110.183 42.0145 109.995 41.9972 109.808 42.0176C109.622 42.038 109.443 42.0958 109.28 42.1872C109.118 42.2787 108.977 42.402 108.866 42.5492C108.05 43.397 105.675 46.1722 105.897 46.4403C106.12 46.7084 108.31 44.1506 109.794 44.2665C111.278 44.3825 111.776 44.6361 112.956 46.2954C114.136 47.9548 117.409 51.1068 117.32 50.6431C117.231 50.1793 111.946 43.397 110.848 42.3318Z" fill="#E6353B"/>
<path fill-rule="evenodd" clip-rule="evenodd" d="M117.261 40.1794C117.261 40.1794 117.55 40.8171 116.467 41.7591C115.383 42.7011 103.575 50.6645 102.684 50.708C102.684 50.708 111.784 41.2011 117.261 40.1794Z" fill="#A11506"/>
<path fill-rule="evenodd" clip-rule="evenodd" d="M104.466 29.2671C104.466 29.2671 103.783 29.0715 102.981 30.2453C102.18 31.4192 95.6705 43.9114 95.7373 44.7882C95.7299 44.7882 104.169 34.7017 104.466 29.2671Z" fill="#A11506"/>
<path fill-rule="evenodd" clip-rule="evenodd" d="M112.333 35.9698L109.401 33.4844L104.465 29.2744C102.32 35.4915 99.344 39.4189 95.7295 44.7955L99.2772 47.6939L102.677 50.7373C107.605 46.5346 111.234 43.1217 117.261 40.2087L112.333 35.9698Z" fill="#E2000F"/>
<path fill-rule="evenodd" clip-rule="evenodd" d="M103.181 32.5354C101.185 37.0135 98.6687 40.4481 95.7593 44.7885L99.307 47.6869L102.706 50.7303C106.959 47.1073 110.24 44.0712 114.923 41.4408C113.379 41.6147 108.451 44.8682 105.972 46.7377C103.493 48.6072 102.372 48.542 102.12 47.4623C101.868 46.3827 110.284 39.68 108.347 37.4555C106.41 35.2309 99.8043 45.803 99.1957 45.2595C96.7464 43.1509 102.283 35.1875 103.181 32.5354Z" fill="#DD010E"/>
<path fill-rule="evenodd" clip-rule="evenodd" d="M103.337 29.7959C103.437 29.7691 103.544 29.7728 103.642 29.8065C103.74 29.8401 103.825 29.9022 103.886 29.9843C104.101 30.2814 103.782 31.1002 103.782 31.1002L104.294 29.9698L104.465 29.2452C104.465 29.2452 103.842 29.0061 103.337 29.7959Z" fill="#E2000F"/>
<path fill-rule="evenodd" clip-rule="evenodd" d="M116.876 41.3461C116.888 41.2443 116.868 41.1414 116.819 41.0509C116.77 40.9604 116.694 40.8864 116.601 40.8388C116.275 40.6722 115.488 41.0852 115.488 41.0852L116.564 40.4403L117.254 40.1794C117.254 40.1794 117.61 40.7301 116.876 41.3461Z" fill="#E2000F"/>
<path fill-rule="evenodd" clip-rule="evenodd" d="M100.606 43.0783C101.029 42.6 104.903 37.2017 106.833 36.5568C108.763 35.9119 109.445 37.4191 109.416 38.6509C109.386 39.8828 110.9 39.477 112.162 39.3755C113.424 39.2741 115.94 40.4987 115.494 39.9117C115.049 39.3248 110.878 35.767 108.718 33.9192C106.558 32.0715 105.289 31.1512 104.732 31.4628C103.137 32.3613 98.2975 46.6361 100.606 43.0783Z" fill="#E31016"/>
<path fill-rule="evenodd" clip-rule="evenodd" d="M106.32 32.4555C106.156 32.3695 105.975 32.3171 105.789 32.3017C105.603 32.2862 105.415 32.308 105.238 32.3657C105.061 32.4233 104.898 32.5156 104.758 32.637C104.619 32.7583 104.507 32.9062 104.428 33.0714C103.812 34.0641 102.067 37.2452 102.372 37.477C102.676 37.7089 104.242 34.7525 105.727 34.5786C107.211 34.4047 107.745 34.5786 109.245 35.9264C110.744 37.2742 114.648 39.7306 114.44 39.2813C114.232 38.8321 107.597 33.2816 106.32 32.4555Z" fill="#E6353B"/>
<path fill-rule="evenodd" clip-rule="evenodd" d="M111.628 28.2598C111.628 28.2598 112.051 28.825 111.212 29.9698C110.374 31.1147 100.666 41.4549 99.8047 41.6867C99.8047 41.6867 106.522 30.4408 111.628 28.2598Z" fill="#A11506"/>
<path fill-rule="evenodd" clip-rule="evenodd" d="M96.6731 20.3906C96.6731 20.3906 95.9309 20.3906 95.4336 21.6659C94.8695 23.1151 91.4183 36.5784 91.7226 37.4189C91.6855 37.4189 97.6157 25.7527 96.6731 20.3906Z" fill="#A11506"/>
<path fill-rule="evenodd" clip-rule="evenodd" d="M105.861 25.2238L102.44 23.4267L96.6727 20.3906C95.9899 26.9121 93.9933 31.4336 91.6851 37.4189L95.7969 39.4551L99.8048 41.6868C103.657 36.5204 106.418 32.4046 111.628 28.2599L105.861 25.2238Z" fill="#E2000F"/>
<path fill-rule="evenodd" clip-rule="evenodd" d="M96.1608 23.8542C95.233 28.6584 93.563 32.5495 91.7075 37.4189L95.8193 39.4551L99.8272 41.6868C103.145 37.2305 105.654 33.564 109.624 29.9772C108.14 30.4844 104.095 34.7234 102.106 37.0856C100.117 39.4478 99.0034 39.629 98.5061 38.6073C98.0088 37.5856 104.681 29.2453 102.299 27.499C99.9163 25.7527 95.901 37.4986 95.1885 37.1291C92.2939 35.6074 95.8936 26.6367 96.1608 23.8542Z" fill="#DD010E"/>
<path fill-rule="evenodd" clip-rule="evenodd" d="M95.6855 21.1662C95.779 21.1177 95.8855 21.0985 95.9905 21.1115C96.0955 21.1245 96.1938 21.1689 96.2719 21.2387C96.5465 21.4778 96.4203 22.3401 96.4203 22.3401L96.6578 21.13V20.4054C96.6578 20.4054 96.0047 20.2749 95.6855 21.1662Z" fill="#E2000F"/>
<path fill-rule="evenodd" clip-rule="evenodd" d="M111.509 29.4771C111.501 29.3749 111.46 29.2778 111.392 29.1997C111.324 29.1216 111.233 29.0665 111.131 29.0423C110.774 28.9481 110.106 29.5278 110.106 29.5278L111.012 28.6655L111.621 28.2598C111.621 28.2598 112.096 28.738 111.509 29.4771Z" fill="#E2000F"/>
<path fill-rule="evenodd" clip-rule="evenodd" d="M96.0485 34.6944C96.3528 34.1437 98.8986 28.028 100.635 26.9701C102.372 25.9121 103.374 27.2454 103.604 28.4555C103.834 29.6656 105.222 28.9482 106.447 28.557C107.671 28.1657 110.381 28.8396 109.816 28.3613C109.252 27.8831 104.376 25.318 101.845 24.0137C99.3142 22.7094 97.8669 22.0572 97.3919 22.4847C96.0782 23.6948 94.6086 38.6652 96.0485 34.6944Z" fill="#E31016"/>
<path fill-rule="evenodd" clip-rule="evenodd" d="M99.2107 23.1009C99.0308 23.0513 98.8423 23.0383 98.6569 23.0628C98.4716 23.0872 98.2934 23.1485 98.1334 23.243C97.9733 23.3374 97.8349 23.4629 97.7265 23.6117C97.6182 23.7606 97.5424 23.9295 97.5037 24.1081C97.1251 25.2095 96.1454 28.6949 96.4943 28.8543C96.8431 29.0137 97.704 25.7892 99.0994 25.2892C100.495 24.7893 101.066 24.8182 102.81 25.8472C104.555 26.8761 108.948 28.3761 108.637 28.021C108.325 27.6659 100.636 23.6299 99.2107 23.1009Z" fill="#E6353B"/>
<path fill-rule="evenodd" clip-rule="evenodd" d="M103.663 18.1082C103.663 18.1082 104.205 18.5647 103.663 19.8617C103.122 21.1588 95.9074 33.2959 95.1207 33.7162C95.0984 33.7162 99.1583 21.3109 103.663 18.1082Z" fill="#A11506"/>
<path fill-rule="evenodd" clip-rule="evenodd" d="M87.3206 13.5793C87.3206 13.5793 86.5784 13.6953 86.4002 15.0865C86.1627 16.601 85.7768 30.4917 86.2221 31.2598C86.2221 31.2598 89.4284 18.6154 87.3206 13.5793Z" fill="#A11506"/>
<path fill-rule="evenodd" clip-rule="evenodd" d="M97.3628 16.3618L93.6517 15.3257L87.3504 13.5793C88.0926 20.1008 87.1797 24.9267 86.252 31.2598L90.7052 32.3757L95.1139 33.7162C97.7265 27.8541 99.5077 23.2529 103.679 18.1081L97.3628 16.3618Z" fill="#E2000F"/>
<path fill-rule="evenodd" clip-rule="evenodd" d="M87.5873 17.0718C87.7432 21.9556 86.9787 26.1076 86.2217 31.2596L90.6749 32.3755L95.0836 33.716C97.3102 28.6438 98.9728 24.5497 102.053 20.2093C100.732 21.0136 97.711 26.0062 96.286 28.738C94.861 31.4697 93.8219 31.8755 93.1093 30.977C92.3968 30.0785 97.0653 20.5427 94.3488 19.3326C91.6324 18.1225 90.3186 30.4553 89.5393 30.2017C86.3998 29.3684 87.9436 19.847 87.5873 17.0718Z" fill="#DD010E"/>
<path fill-rule="evenodd" clip-rule="evenodd" d="M86.5273 14.5289C86.6079 14.4626 86.7074 14.4222 86.8123 14.4131C86.9172 14.404 87.0225 14.4267 87.1137 14.4782C87.4328 14.6521 87.5071 15.5216 87.5071 15.5216L87.4699 14.2898L87.3215 13.5652C87.3215 13.5652 86.6387 13.6087 86.5273 14.5289Z" fill="#E2000F"/>
<path fill-rule="evenodd" clip-rule="evenodd" d="M103.82 19.3181C103.789 19.2208 103.729 19.1352 103.646 19.0729C103.564 19.0106 103.464 18.9748 103.36 18.9703C102.988 18.9703 102.454 19.6949 102.454 19.6949L103.152 18.6659L103.664 18.137C103.664 18.137 104.228 18.4775 103.82 19.3181Z" fill="#E2000F"/>
<path fill-rule="evenodd" clip-rule="evenodd" d="M89.8816 27.6872C90.0598 27.0785 91.1879 20.5788 92.6427 19.173C94.0974 17.7673 95.3888 18.8687 95.9009 19.9918C96.4131 21.115 97.5857 20.1295 98.6916 19.4918C99.7975 18.8542 102.596 18.9339 101.942 18.5861C101.289 18.2383 95.9529 16.7673 93.1919 15.9992C90.4309 15.2311 88.8722 14.9268 88.516 15.4413C87.4695 16.934 89.325 31.8536 89.8816 27.6872Z" fill="#E31016"/>
<path fill-rule="evenodd" clip-rule="evenodd" d="M90.3937 15.6953C90.2075 15.6854 90.0213 15.7128 89.8465 15.7759C89.6716 15.8389 89.5118 15.9362 89.3769 16.0618C89.242 16.1873 89.1349 16.3385 89.0621 16.5061C88.9894 16.6736 88.9525 16.8539 88.9538 17.0359C88.8276 18.1952 88.6421 21.7965 89.0206 21.8762C89.3991 21.9559 89.5253 18.63 90.7796 17.8474C92.0339 17.0648 92.5906 16.9779 94.55 17.6011C96.5094 18.2242 101.104 18.7822 100.71 18.4633C100.317 18.1445 91.9078 15.9055 90.3937 15.6953Z" fill="#E6353B"/>
<path fill-rule="evenodd" clip-rule="evenodd" d="M93.6806 9.89844C93.6806 9.89844 94.3115 10.2318 94.0443 11.623C93.7771 13.0143 89.4352 26.3688 88.7598 26.9629C88.7598 26.9629 89.9918 13.978 93.6806 9.89844Z" fill="#A11506"/>
<path fill-rule="evenodd" clip-rule="evenodd" d="M78.1909 21.3253C78.7698 23.9919 79.3117 26.1657 79.5417 26.3975C79.5417 26.3975 79.6085 24.1078 79.4378 21.1079L78.1909 21.3253Z" fill="#A11506"/>
<path fill-rule="evenodd" clip-rule="evenodd" d="M87.1422 9.52181L83.2604 9.29718L81.0338 9.16675C80.7815 13.8115 80.2916 20.5503 79.9131 21.0503L79.1709 21.1735C79.3119 22.8401 79.4232 24.5647 79.5643 26.4124L84.1808 26.5646L88.775 26.9414C90.0368 20.6663 90.7641 15.8042 93.6959 9.8986L87.1422 9.52181Z" fill="#E2000F"/>
<path fill-rule="evenodd" clip-rule="evenodd" d="M79.1562 21.1662C79.2973 22.8328 79.4086 24.5573 79.5496 26.4051L84.1661 26.5572L88.7604 26.9413C89.844 21.5285 90.5343 17.1663 92.5902 12.2825C91.4843 13.3476 89.6213 18.8619 88.8791 21.8256C88.1369 24.7892 87.1572 25.4051 86.274 24.6805C85.3908 23.9559 87.8326 13.652 84.9083 13.0868C81.9841 12.5216 83.3868 24.7892 82.5852 24.7167C81.2864 24.6443 80.4106 23.0864 79.7649 21.0937L79.1562 21.1662Z" fill="#DD010E"/>
<path fill-rule="evenodd" clip-rule="evenodd" d="M94.1037 11.0218C94.0514 10.9324 93.9717 10.8613 93.8759 10.8184C93.78 10.7755 93.6728 10.763 93.5694 10.7826C93.2057 10.8478 92.8271 11.6449 92.8271 11.6449L93.2725 10.4928L93.651 9.86963C93.651 9.86963 94.3116 10.145 94.1037 11.0218Z" fill="#E2000F"/>
<path fill-rule="evenodd" clip-rule="evenodd" d="M82.3326 22.1514C82.3771 21.521 82.0431 14.9054 83.1564 13.2533C84.2697 11.6012 85.7616 12.3765 86.5112 13.3692C87.2608 14.3619 88.1886 13.1518 89.1312 12.2968C90.0738 11.4417 92.8422 10.9273 92.1 10.7244C91.3578 10.5215 85.8506 10.2099 82.9857 10.0433C82.2435 9.99978 81.5533 9.96354 80.9743 9.9563C80.8036 12.9055 80.5439 16.4778 80.2915 18.7458C81.4122 21.8906 82.533 24.1948 82.3326 22.1514Z" fill="#E31016"/>
<path fill-rule="evenodd" clip-rule="evenodd" d="M80.8037 12.6808C80.8682 12.5648 80.948 12.4576 81.0412 12.362C82.0951 11.3331 82.6147 11.1302 84.6706 11.3258C86.7265 11.5215 91.3504 11.0939 90.8754 10.8693C90.4004 10.6447 83.5647 10.2969 80.9521 10.2969C80.9076 11.0795 80.8557 11.8765 80.8037 12.6808Z" fill="#E6353B"/>
<path fill-rule="evenodd" clip-rule="evenodd" d="M60.2225 11.6592C63.4585 11.6592 63.5104 18.1806 66.7093 18.7024C69.9082 19.2241 72.0235 12.9852 75.1037 13.9634C78.1838 14.9417 76.1576 21.2095 79.0374 22.6152C81.9171 24.021 85.9102 18.7821 88.5228 20.6371C91.1353 22.4921 87.2462 27.8179 89.5322 30.057C91.8181 32.296 97.2734 28.4918 99.1808 31.0424C101.088 33.5931 95.6925 37.4914 97.1546 40.3029C98.6168 43.1144 105.022 41.1435 106.017 44.1433C107.011 47.1432 100.658 49.2156 101.163 52.3387C101.667 55.4617 108.377 55.5124 108.377 58.6717C108.377 61.831 101.697 61.8817 101.163 64.9976C100.628 68.1134 107.019 70.193 106.017 73.1929C105.015 76.1927 98.5945 74.2291 97.1546 77.0405C95.7147 79.852 101.081 83.7432 99.1808 86.301C97.2808 88.8589 91.8181 85.0475 89.5322 87.2792C87.2462 89.511 91.1353 94.8442 88.5228 96.6992C85.9102 98.5541 81.9171 93.2862 79.0374 94.721C76.1576 96.1557 78.1764 102.402 75.1037 103.373C72.0309 104.344 69.9082 98.1411 66.7093 98.6339C63.5104 99.1266 63.4585 105.677 60.2225 105.677C56.9864 105.677 56.9345 99.1556 53.743 98.6339C50.5515 98.1121 48.4214 104.351 45.3487 103.373C42.2759 102.395 44.2873 96.1267 41.4076 94.721C38.5278 93.3152 34.5422 98.5541 31.9222 96.6992C29.3022 94.8442 33.2062 89.511 30.9202 87.2792C28.6342 85.0475 23.1716 88.8516 21.2715 86.301C19.3715 83.7504 24.7525 79.8593 23.268 77.0333C21.7836 74.2073 15.4007 76.1927 14.4061 73.1856C13.4116 70.1785 19.7648 68.1134 19.2601 64.9903C18.7554 61.8673 12.0459 61.8165 12.0459 58.6645C12.0459 55.5124 18.7257 55.4545 19.2601 52.3314C19.7945 49.2084 13.4338 47.1432 14.4358 44.1361C15.4378 41.129 21.8579 43.1072 23.2977 40.2957C24.7376 37.4842 19.3715 33.5858 21.2715 31.0352C23.1716 28.4846 28.6342 32.2815 30.9202 30.0497C33.2062 27.8179 29.3096 22.4921 31.9222 20.6298C34.5347 18.7676 38.5278 24.0645 41.4076 22.6152C44.2873 21.166 42.2685 14.9344 45.3487 13.9634C48.4288 12.9925 50.5441 19.1951 53.743 18.7024C56.9419 18.2096 56.9939 11.6592 60.2225 11.6592Z" fill="url(#paint2_linear_602_4167)"/>
<path d="M99.4431 67.3838C104.376 46.116 90.7159 24.9706 68.9316 20.1543C47.1472 15.338 25.4883 28.6746 20.5551 49.9424C15.6218 71.2102 29.2822 92.3556 51.0666 97.1719C72.8509 101.988 94.5098 88.6516 99.4431 67.3838Z" fill="#DB9200"/>
<path d="M75.4221 93.3564C95.3005 85.1625 104.611 62.7874 96.2185 43.3803C87.8256 23.9732 64.9072 14.8831 45.0287 23.077C25.1503 31.2709 15.8394 53.6459 24.2323 73.053C32.6252 92.4601 55.5437 101.55 75.4221 93.3564Z" fill="#FFDF50"/>
<path d="M87.8481 86.0752C103.106 71.1793 103.106 47.0282 87.8481 32.1323C72.5904 17.2364 47.8529 17.2364 32.5952 32.1323C17.3375 47.0282 17.3375 71.1793 32.5952 86.0752C47.8529 100.971 72.5904 100.971 87.8481 86.0752Z" fill="url(#paint3_linear_602_4167)"/>
<path fill-rule="evenodd" clip-rule="evenodd" d="M59.5326 24.0648C60.0447 24.0648 60.5569 24.0648 61.069 24.0648C51.832 24.4542 43.1057 28.3106 36.7107 34.8295C30.3157 41.3483 26.7458 50.0261 26.7458 59.0525C26.7458 68.0789 30.3157 76.7567 36.7107 83.2755C43.1057 89.7943 51.832 93.6508 61.069 94.0402C60.5569 94.0402 60.0447 94.0764 59.5326 94.0764C50.1075 93.944 41.1143 90.1958 34.4971 83.6419C27.8799 77.0881 24.1704 68.2551 24.1704 59.0525C24.1704 49.8499 27.8799 41.0169 34.4971 34.463C41.1143 27.9092 50.1075 24.1609 59.5326 24.0286V24.0648Z" fill="#FFE791"/>
<path d="M66.7837 93.7362C86.377 90.1978 99.3224 71.8225 95.6981 52.6938C92.0738 33.5651 73.2522 20.9266 53.6589 24.465C34.0656 28.0034 21.1202 46.3787 24.7446 65.5074C28.3689 84.6361 47.1905 97.2746 66.7837 93.7362Z" fill="#E7A000"/>
<path fill-rule="evenodd" clip-rule="evenodd" d="M95.9449 57.215C95.9419 65.2285 93.1892 73.0101 88.1262 79.3175C83.0632 85.6249 75.9818 90.0945 68.0123 92.013C60.0429 93.9314 51.6449 93.188 44.1588 89.9014C36.6728 86.6149 30.5303 80.9746 26.7119 73.881C28.7981 78.2023 31.7475 82.0731 35.3872 85.266C39.0268 88.459 43.2832 90.9099 47.9064 92.4747C52.5297 94.0395 57.4266 94.6867 62.3095 94.3783C67.1925 94.0699 71.9632 92.8121 76.3413 90.6787C80.7195 88.5454 84.617 85.5796 87.8049 81.9553C90.9928 78.3311 93.4068 74.1216 94.9052 69.5739C96.4037 65.0263 96.9563 60.2321 96.5307 55.4731C96.1051 50.714 94.7098 46.0859 92.4268 41.8606C94.7528 46.6602 95.9546 51.9053 95.9449 57.215Z" fill="#FFE45A"/>
<path fill-rule="evenodd" clip-rule="evenodd" d="M24.612 60.4182C24.6106 52.4156 27.3999 44.651 32.5209 38.4023C37.6419 32.1537 44.7894 27.7933 52.7869 26.0389C60.7844 24.2845 69.1555 25.2406 76.5223 28.7499C83.8891 32.2592 89.8126 38.1124 93.3179 45.3464C92.9691 44.4551 92.5757 43.5711 92.1675 42.716C87.8878 34.8091 80.6887 28.7865 72.0296 25.8692C63.3704 22.9519 53.899 23.3581 45.5352 27.0055C37.1714 30.6528 30.541 37.2684 26.9879 45.5113C23.4348 53.7542 23.2249 63.0076 26.4007 71.396C25.2135 67.8521 24.6098 64.1468 24.612 60.4182Z" fill="#DB9600"/>
<path fill-rule="evenodd" clip-rule="evenodd" d="M60.4161 25.4634C69.3393 25.4848 77.9042 28.8932 84.3 34.9681C90.6957 41.0429 94.421 49.308 94.688 58.0158C94.955 66.7235 91.7428 75.1914 85.7308 81.6289C79.7187 88.0664 71.3779 91.9689 62.472 92.5114C70.8466 90.8943 78.3052 86.2925 83.3956 79.6019C88.486 72.9113 90.8441 64.6107 90.0106 56.3161C89.1771 48.0215 85.2117 40.3266 78.8865 34.7293C72.5613 29.1321 64.329 26.0331 55.7921 26.0358C55.1093 26.0358 54.4191 26.0358 53.7437 26.0938C55.9416 25.6727 58.1763 25.4616 60.4161 25.4634Z" fill="#F2A911"/>
<path d="M68.9181 88.8636C85.753 84.1725 95.5051 67.0457 90.7 50.61C85.895 34.1743 68.3523 24.6534 51.5174 29.3445C34.6825 34.0357 24.9304 51.1624 29.7355 67.5982C34.5406 84.0339 52.0833 93.5548 68.9181 88.8636Z" fill="url(#paint4_linear_602_4167)"/>
<path d="M65.9455 88.2323C82.4266 85.1454 93.224 69.5992 90.0622 53.5088C86.9004 37.4185 70.9766 26.8771 54.4955 29.964C38.0144 33.0508 27.217 48.597 30.3788 64.6874C33.5406 80.7777 49.4644 91.3191 65.9455 88.2323Z" fill="#E7A000"/>
<path d="M83.2936 75.7838C92.7291 63.3439 90.0486 45.7916 77.3065 36.5798C64.5645 27.368 46.586 29.985 37.1504 42.4249C27.7149 54.8649 30.3954 72.4171 43.1375 81.6289C55.8796 90.8407 73.8581 88.2238 83.2936 75.7838Z" fill="url(#paint5_linear_602_4167)"/>
<path d="M65.662 84.2205C79.8748 81.2863 88.9602 67.659 85.9547 53.7832C82.9492 39.9073 68.991 31.0373 54.7781 33.9715C40.5653 36.9058 31.4799 50.533 34.4854 64.4089C37.4909 78.2848 51.4491 87.1548 65.662 84.2205Z" fill="url(#paint6_linear_602_4167)"/>
<path d="M64.49 41.9043H55.9546V75.4174H64.49V41.9043Z" fill="#FFD43C"/>
<path d="M63.0581 43.3027H57.3877V74.0261H63.0581V43.3027Z" fill="#E7A000"/>
<defs>
<linearGradient id="paint0_linear_602_4167" x1="86.6154" y1="108.663" x2="67.1471" y2="119.873" gradientUnits="userSpaceOnUse">
<stop stop-color="#FAB900"/>
<stop offset="0.41" stop-color="#FFCF31"/>
<stop offset="1" stop-color="#DE8500"/>
</linearGradient>
<linearGradient id="paint1_linear_602_4167" x1="64.9133" y1="120.358" x2="27.013" y2="135.345" gradientUnits="userSpaceOnUse">
<stop stop-color="#FAB900"/>
<stop offset="0.41" stop-color="#FFCF31"/>
<stop offset="1" stop-color="#DE8500"/>
</linearGradient>
<linearGradient id="paint2_linear_602_4167" x1="27.9143" y1="52.5053" x2="108.513" y2="68.6235" gradientUnits="userSpaceOnUse">
<stop stop-color="#E39700"/>
<stop offset="0.24" stop-color="#FBBE11"/>
<stop offset="0.54" stop-color="#FFE45A"/>
<stop offset="1" stop-color="#DE8500"/>
</linearGradient>
<linearGradient id="paint3_linear_602_4167" x1="47.6356" y1="39.2184" x2="79.7371" y2="92.4126" gradientUnits="userSpaceOnUse">
<stop stop-color="#FAB900"/>
<stop offset="0.4" stop-color="#FFE45A"/>
<stop offset="1" stop-color="#DE8500"/>
</linearGradient>
<linearGradient id="paint4_linear_602_4167" x1="46.7957" y1="54.189" x2="99.7353" y2="74.531" gradientUnits="userSpaceOnUse">
<stop stop-color="#FAB900"/>
<stop offset="0.4" stop-color="#FFE45A"/>
<stop offset="1" stop-color="#DE8500"/>
</linearGradient>
<linearGradient id="paint5_linear_602_4167" x1="48.0679" y1="54.653" x2="96.0056" y2="73.0757" gradientUnits="userSpaceOnUse">
<stop stop-color="#FAB900"/>
<stop offset="0.4" stop-color="#FFE45A"/>
<stop offset="1" stop-color="#DE8500"/>
</linearGradient>
<linearGradient id="paint6_linear_602_4167" x1="72.1537" y1="47.241" x2="45.9127" y2="74.6015" gradientUnits="userSpaceOnUse">
<stop stop-color="#FAB900"/>
<stop offset="0.41" stop-color="#FFCF31"/>
<stop offset="1" stop-color="#DE8500"/>
</linearGradient>
</defs>
</svg>
