<svg width="120" height="180" viewBox="0 0 120 180" fill="none" xmlns="http://www.w3.org/2000/svg">
<path fill-rule="evenodd" clip-rule="evenodd" d="M38.4688 82.2546L53.6691 76.0132L63.1471 72.1205L78.34 65.8792L115.866 153.056L87.9738 142.762L75.9946 169.431L38.4688 82.2546Z" fill="url(#paint0_linear_602_4420)"/>
<path fill-rule="evenodd" clip-rule="evenodd" d="M69.8044 155.042L62.8574 138.913L71.1701 95.8608L80.5219 96.332L69.8044 155.042Z" fill="#007683"/>
<path fill-rule="evenodd" clip-rule="evenodd" d="M100.539 147.401L87.9732 142.762L83.1637 153.476L55.1826 79.4709L72.4982 73.2295L100.539 147.401Z" fill="url(#paint1_linear_602_4420)"/>
<path fill-rule="evenodd" clip-rule="evenodd" d="M67.8594 113.005L71.1696 95.8608L80.5214 96.332L74.3462 130.156L67.8594 113.005Z" fill="#B2B3B3"/>
<path fill-rule="evenodd" clip-rule="evenodd" d="M35.3586 79.3188L51.5683 82.2547L61.6772 84.0814L77.8869 87.0173L60.2373 180L42.7139 156.441L17.709 172.302L35.3586 79.3188Z" fill="url(#paint2_linear_602_4420)"/>
<path fill-rule="evenodd" clip-rule="evenodd" d="M50.4037 166.778L42.7145 156.441L32.3311 163.03L45.1712 86.7996L63.3849 89.7281L50.4037 166.778Z" fill="url(#paint3_linear_602_4420)"/>
<path fill-rule="evenodd" clip-rule="evenodd" d="M80.6108 4.13208C80.6108 4.13208 81.3011 4.29881 81.3902 5.71236C81.4941 7.2419 80.648 21.1165 80.1284 21.8414C80.1284 21.8631 78.0577 8.97441 80.6108 4.13208Z" fill="#006B77"/>
<path fill-rule="evenodd" clip-rule="evenodd" d="M63.9183 7.24927C63.9183 7.24927 63.3394 7.66246 63.7922 9.00352C64.2746 10.4533 70.3161 23.0448 71.0658 23.5015C71.0658 23.5305 68.1192 10.8303 63.9183 7.24927Z" fill="#006B77"/>
<path fill-rule="evenodd" clip-rule="evenodd" d="M74.1463 5.3354L70.3314 6.06029L63.8965 7.26363C67.6075 12.7511 68.9657 17.4847 71.0439 23.5449L75.5788 22.588L80.1285 21.8631C79.7648 15.4767 79.2453 10.5837 80.6109 4.15381L74.1463 5.3354Z" fill="#36A3B2"/>
<path fill-rule="evenodd" clip-rule="evenodd" d="M65.7666 10.2649C68.1491 14.5563 69.3737 18.6085 71.066 23.5378L75.5785 22.5882L80.1283 21.8633C79.8165 16.354 79.3861 11.9611 80.1283 6.73462C79.3267 8.02494 78.9185 13.8241 78.8962 16.8832C78.8739 19.9423 78.154 20.7687 77.0927 20.283C76.0313 19.7973 75.8309 9.21377 72.8472 9.32976C69.8636 9.44574 74.3317 21.0369 73.5894 21.1819C70.3609 21.7618 67.3549 12.5773 65.7666 10.2649Z" fill="#0097A4"/>
<path fill-rule="evenodd" clip-rule="evenodd" d="M63.6518 8.44522C63.6914 8.35139 63.7597 8.27179 63.8474 8.2173C63.9351 8.16281 64.0378 8.13608 64.1416 8.14076C64.5127 8.14076 64.9803 8.86566 64.9803 8.86566L64.3791 7.78556L63.919 7.21289C63.919 7.21289 63.3252 7.57534 63.6518 8.44522Z" fill="#E2000F"/>
<path fill-rule="evenodd" clip-rule="evenodd" d="M81.309 5.14713C81.2352 5.07385 81.1403 5.02421 81.0369 5.0048C80.9335 4.98538 80.8265 4.9971 80.7301 5.03839C80.3961 5.19062 80.2402 6.046 80.2402 6.046L80.3887 4.82817L80.6039 4.10327C80.6039 4.10327 81.2793 4.21201 81.309 5.14713Z" fill="#36A3B2"/>
<path fill-rule="evenodd" clip-rule="evenodd" d="M72.6622 18.7316C72.536 18.1082 70.5617 11.8015 71.2223 9.90955C71.8829 8.01756 73.5231 8.45975 74.5029 9.18465C75.4826 9.90955 76.0689 8.56848 76.7666 7.51738C77.4642 6.46628 80.0026 5.29919 79.253 5.27744C78.5033 5.25569 73.063 6.2778 70.2426 6.80698C67.4222 7.33616 65.9007 7.73485 65.7894 8.35826C65.5964 10.1778 74.1466 22.6968 72.6622 18.7316Z" fill="#45B3C2"/>
<path fill-rule="evenodd" clip-rule="evenodd" d="M67.6376 7.78549C67.4661 7.85917 67.3119 7.96635 67.1844 8.10043C67.0569 8.23451 66.9588 8.39266 66.8962 8.56514C66.8336 8.73761 66.8079 8.92078 66.8205 9.10335C66.8331 9.28592 66.8838 9.46403 66.9696 9.62673C67.3926 10.7141 68.8845 14.0124 69.2556 13.9254C69.6267 13.8384 68.2091 10.8011 68.9513 9.53975C69.6935 8.27842 70.1685 7.95946 72.2096 7.66226C74.2506 7.36505 78.6074 5.84276 78.1101 5.73402C77.6128 5.62529 69.0923 7.31431 67.6376 7.78549Z" fill="#54BECD"/>
<path fill-rule="evenodd" clip-rule="evenodd" d="M69.4262 0.630859C69.4262 0.630859 70.1684 0.674354 70.5024 2.04441C70.8364 3.41447 72.729 17.318 72.343 18.1154C72.343 18.1154 67.8527 5.85738 69.4262 0.630859Z" fill="#006B77"/>
<path fill-rule="evenodd" clip-rule="evenodd" d="M53.6319 6.7417C53.6319 6.7417 53.1421 7.25638 53.8398 8.48871C54.582 9.82977 62.9392 21.0947 63.7705 21.4354C63.7556 21.4354 58.4488 9.49632 53.6319 6.7417Z" fill="#006B77"/>
<path fill-rule="evenodd" clip-rule="evenodd" d="M63.3325 3.01593L59.7254 4.41498L53.6318 6.77091C58.3151 11.49 60.564 15.8901 63.7704 21.4646L68.0158 19.6886L72.3428 18.1301C70.7694 11.9249 69.3221 7.2131 69.426 0.645508L63.3325 3.01593Z" fill="#36A3B2"/>
<path fill-rule="evenodd" clip-rule="evenodd" d="M56.0215 9.35869C59.1833 13.1427 61.165 16.8976 63.7701 21.4355L68.0155 19.6885L72.3426 18.13C70.9843 12.7802 69.7226 8.53955 69.4703 3.26953C68.921 4.71933 69.6335 10.4533 70.2125 13.4689C70.7914 16.4844 70.2124 17.4196 69.0843 17.1296C67.9561 16.8396 65.7295 6.48808 62.8201 7.14774C59.9106 7.8074 66.5311 18.3692 65.7889 18.6591C62.7384 19.8262 58.0254 11.3522 56.0215 9.35869Z" fill="#0097A4"/>
<path fill-rule="evenodd" clip-rule="evenodd" d="M53.5942 7.96678C53.6165 7.86711 53.6698 7.77663 53.7469 7.70781C53.824 7.639 53.9211 7.59525 54.0247 7.58258C54.3884 7.53184 54.9896 8.177 54.9896 8.177L54.1954 7.22013L53.6313 6.7417C53.6313 6.7417 53.1044 7.16939 53.5942 7.96678Z" fill="#E2000F"/>
<path fill-rule="evenodd" clip-rule="evenodd" d="M70.309 1.50077C70.223 1.44214 70.1207 1.4107 70.0158 1.4107C69.911 1.4107 69.8086 1.44214 69.7227 1.50077C69.4184 1.70374 69.4406 2.58087 69.4406 2.58087L69.3516 1.34854L69.4258 0.62364C69.4258 0.62364 70.1012 0.594643 70.309 1.50077Z" fill="#36A3B2"/>
<path fill-rule="evenodd" clip-rule="evenodd" d="M64.446 16.4264C64.2085 15.8393 61.0541 10.0038 61.3436 8.01761C61.6331 6.03138 63.3253 6.14736 64.4312 6.74178C65.5371 7.3362 65.8562 5.85015 66.3386 4.68307C66.8211 3.51598 69.0922 1.9212 68.3574 2.02994C67.6227 2.13867 62.4643 4.13939 59.7924 5.176C57.1205 6.2126 55.7029 6.88676 55.74 7.51018C55.8439 9.31518 66.6281 20.0509 64.446 16.4264Z" fill="#45B3C2"/>
<path fill-rule="evenodd" clip-rule="evenodd" d="M57.3875 6.5968C57.2337 6.69977 57.1031 6.83241 57.0038 6.98655C56.9044 7.14068 56.8385 7.31305 56.81 7.49303C56.7815 7.673 56.791 7.85677 56.838 8.03302C56.885 8.20926 56.9684 8.37424 57.0832 8.51779C57.7066 9.5109 59.7996 12.483 60.1485 12.3308C60.4973 12.1785 58.523 9.43116 59.0352 8.08285C59.5473 6.73454 59.9332 6.31409 61.8778 5.64719C63.8224 4.98028 67.8154 2.6896 67.3107 2.6751C66.806 2.6606 58.7234 5.86465 57.3875 6.5968Z" fill="#54BECD"/>
<path fill-rule="evenodd" clip-rule="evenodd" d="M56.8227 0.0146261C56.8227 0.0146261 57.5278 -0.0868607 58.1736 1.18171C58.8193 2.45029 63.5917 15.6797 63.369 16.5278C63.4061 16.5278 56.3923 5.44412 56.8227 0.0146261Z" fill="#006B77"/>
<path fill-rule="evenodd" clip-rule="evenodd" d="M42.6769 9.21362C42.6769 9.21362 42.3058 9.80804 43.2558 10.8809C44.2058 11.9537 54.849 21.3557 55.7322 21.5152C55.7322 21.5152 47.9762 10.9244 42.6769 9.21362Z" fill="#006B77"/>
<path fill-rule="evenodd" clip-rule="evenodd" d="M51.368 3.56679L48.1691 5.669L42.7139 9.21375C48.3027 12.8745 51.4422 16.7165 55.7692 21.537L59.51 18.9637L63.4065 16.5642C60.5416 10.8085 58.122 6.49538 56.8232 0.0510254L51.368 3.56679Z" fill="#36A3B2"/>
<path fill-rule="evenodd" clip-rule="evenodd" d="M45.5713 11.2869C49.4753 14.3387 52.214 17.608 55.7321 21.5152L59.5099 18.9636L63.4065 16.5642C60.9349 11.6059 58.7974 7.71316 57.4243 2.60986C57.1942 4.1104 59.1165 9.60514 60.3189 12.4323C61.5213 15.2594 61.1576 16.3032 59.9998 16.2452C58.8419 16.1872 54.4406 6.52432 51.739 7.7639C49.0374 9.00348 57.8177 17.9415 57.0755 18.3764C54.3738 20.1524 47.9612 12.8237 45.5713 11.2869Z" fill="#0097A4"/>
<path fill-rule="evenodd" clip-rule="evenodd" d="M42.9063 10.4171C42.9052 10.3154 42.9369 10.2159 42.9968 10.1326C43.0567 10.0494 43.1419 9.98662 43.2403 9.95321C43.5892 9.82273 44.3091 10.3374 44.3091 10.3374L43.3294 9.54002L42.6763 9.18481C42.6763 9.18481 42.2309 9.73574 42.9063 10.4171Z" fill="#E2000F"/>
<path fill-rule="evenodd" clip-rule="evenodd" d="M57.8694 0.68888C57.7728 0.648873 57.6659 0.639243 57.5635 0.661328C57.461 0.683414 57.3682 0.736116 57.2979 0.812111C57.0455 1.08032 57.2459 1.92846 57.2459 1.92846L56.8971 0.739623L56.8154 0.0147232C56.8154 0.0147232 57.476 -0.159252 57.8694 0.68888Z" fill="#36A3B2"/>
<path fill-rule="evenodd" clip-rule="evenodd" d="M55.3237 16.4773C54.9601 15.9481 50.633 10.8883 50.492 8.88757C50.351 6.88685 52.0283 6.65488 53.2381 7.01008C54.4479 7.36528 54.4405 5.85024 54.6706 4.61067C54.9007 3.37109 56.771 1.34137 56.0733 1.60958C55.3757 1.87779 50.7592 4.87163 48.3693 6.42291C45.9794 7.9742 44.7325 8.93107 44.9032 9.53273C45.3856 11.2797 58.2332 19.5798 55.3237 16.4773Z" fill="#45B3C2"/>
<path fill-rule="evenodd" clip-rule="evenodd" d="M46.3211 8.30017C46.1921 8.43278 46.0922 8.58977 46.0276 8.76148C45.963 8.93319 45.9351 9.116 45.9455 9.29865C45.9559 9.4813 46.0045 9.65994 46.0883 9.82357C46.172 9.98721 46.2891 10.1324 46.4324 10.2502C47.2489 11.091 49.9356 13.5702 50.2474 13.3455C50.5591 13.1208 48.0208 10.8591 48.2508 9.42377C48.4809 7.98847 48.7481 7.51003 50.4774 6.45893C52.2068 5.40782 55.6729 2.356 55.1534 2.44298C54.6338 2.52997 47.4715 7.31431 46.3211 8.30017Z" fill="#54BECD"/>
<path fill-rule="evenodd" clip-rule="evenodd" d="M44.6885 1.89941C44.6885 1.89941 45.3565 1.6602 46.2545 2.76929C47.1526 3.87839 54.5746 15.8755 54.5672 16.7599C54.5672 16.7888 45.3936 7.29991 44.6885 1.89941Z" fill="#006B77"/>
<path fill-rule="evenodd" clip-rule="evenodd" d="M32.7533 13.7083C32.7533 13.7083 32.5084 14.3679 33.6588 15.2305C34.8092 16.0932 47.1892 23.2044 48.0872 23.1682C48.0872 23.1682 38.2901 14.3317 32.7533 13.7083Z" fill="#006B77"/>
<path fill-rule="evenodd" clip-rule="evenodd" d="M40.0785 6.45184L37.3546 9.15571L32.7529 13.7081C38.98 16.18 42.8543 19.3261 48.0869 23.1318L51.2487 19.848L54.5663 16.7889C50.5658 11.7146 47.3001 7.98138 44.6876 1.92847L40.0785 6.45184Z" fill="#36A3B2"/>
<path fill-rule="evenodd" clip-rule="evenodd" d="M36.0117 15.165C40.4649 17.3759 43.8271 20.0435 48.0874 23.1389L51.2492 19.8551L54.5668 16.7888C51.1156 12.4394 48.2136 9.03958 45.8088 4.31323C45.8905 5.82827 48.9187 10.8373 50.6851 13.36C52.4516 15.8826 52.3105 16.9845 51.1675 17.1512C50.0246 17.3179 43.7158 8.70612 41.3111 10.4531C38.9063 12.2001 49.3491 19.2607 48.7776 19.8188C46.4768 22.1023 38.6762 16.1943 36.0117 15.165Z" fill="#0097A4"/>
<path fill-rule="evenodd" clip-rule="evenodd" d="M33.2206 14.8463C33.2002 14.7468 33.2113 14.6436 33.2524 14.5504C33.2935 14.4571 33.3626 14.3783 33.4507 14.3244C33.7698 14.1287 34.5788 14.4839 34.5788 14.4839L33.4581 13.9257L32.753 13.7083C32.753 13.7083 32.4412 14.3099 33.2206 14.8463Z" fill="#E2000F"/>
<path fill-rule="evenodd" clip-rule="evenodd" d="M45.8534 2.34896C45.7507 2.32866 45.644 2.34009 45.5483 2.38165C45.4525 2.42322 45.3724 2.49287 45.319 2.58093C45.126 2.89264 45.4971 3.68278 45.4971 3.68278L44.9107 2.59543L44.6807 1.87053C44.6807 1.87053 45.2893 1.56607 45.8534 2.34896Z" fill="#36A3B2"/>
<path fill-rule="evenodd" clip-rule="evenodd" d="M46.6396 18.3111C46.1795 17.8689 40.8875 13.766 40.3309 11.845C39.7742 9.92405 41.37 9.35138 42.6317 9.45287C43.8935 9.55435 43.5669 8.08281 43.5298 6.82148C43.4927 5.56016 44.9103 3.19698 44.272 3.60293C43.6337 4.00887 39.752 7.85084 37.7332 9.85156C35.7144 11.8523 34.6975 13.0266 34.987 13.5848C35.8331 15.1941 50.1354 20.7758 46.6396 18.3111Z" fill="#45B3C2"/>
<path fill-rule="evenodd" clip-rule="evenodd" d="M36.1307 12.0917C36.0312 12.2466 35.9654 12.4198 35.9373 12.6006C35.9092 12.7814 35.9195 12.9659 35.9676 13.1427C36.0156 13.3194 36.1003 13.4847 36.2165 13.6281C36.3327 13.7715 36.4778 13.8901 36.6428 13.9764C37.6151 14.6433 40.7621 16.5353 41.0218 16.2526C41.2816 15.9699 38.3425 14.2591 38.246 12.8093C38.1495 11.3595 38.3351 10.8376 39.8417 9.46026C41.3484 8.08296 44.0575 4.38597 43.5899 4.60344C43.1223 4.82091 37.0362 10.9028 36.1307 12.0917Z" fill="#54BECD"/>
<path fill-rule="evenodd" clip-rule="evenodd" d="M32.7754 6.35753C32.7754 6.35753 33.3766 5.98058 34.4899 6.88671C35.6032 7.79283 45.4522 17.9849 45.623 18.8475C45.6378 18.8475 34.6309 11.4898 32.7754 6.35753Z" fill="#006B77"/>
<path fill-rule="evenodd" clip-rule="evenodd" d="M23.6761 20.3627C23.6761 20.3627 23.587 21.0876 24.8933 21.653C26.1996 22.2184 39.8339 26.6476 40.7097 26.4518C40.6874 26.4518 29.2055 19.8263 23.6761 20.3627Z" fill="#006B77"/>
<path fill-rule="evenodd" clip-rule="evenodd" d="M29.2581 11.7582L27.1725 14.9622L23.6768 20.3627C30.2972 21.4936 34.7653 23.7697 40.7475 26.4519L43.0706 22.5882L45.6386 18.8477C40.6361 14.723 36.6357 11.7364 32.7762 6.35767L29.2581 11.7582Z" fill="#36A3B2"/>
<path fill-rule="evenodd" clip-rule="evenodd" d="M27.1572 21.1385C31.9964 22.3853 35.8485 24.299 40.6876 26.481L43.0701 22.5883L45.6381 18.8478C41.3259 15.2885 37.7559 12.5846 34.3789 8.45996C34.7945 9.90976 38.8321 14.1867 41.1033 16.2961C43.3744 18.4056 43.4709 19.5002 42.3947 19.9206C41.3185 20.3411 33.2804 13.2298 31.321 15.4335C29.3616 17.6372 41.081 22.3853 40.6431 23.0522C38.884 25.7343 29.9776 21.5734 27.1572 21.1385Z" fill="#0097A4"/>
<path fill-rule="evenodd" clip-rule="evenodd" d="M24.3591 21.3703C24.3163 21.2774 24.3041 21.1739 24.324 21.0739C24.344 20.974 24.3951 20.8825 24.4704 20.8121C24.7376 20.5584 25.6134 20.7396 25.6134 20.7396L24.4185 20.4134L23.6763 20.3481C23.6763 20.3481 23.4833 21.0078 24.3591 21.3703Z" fill="#E2000F"/>
<path fill-rule="evenodd" clip-rule="evenodd" d="M34.008 6.56069C33.9042 6.56163 33.8033 6.5943 33.7194 6.6541C33.6356 6.7139 33.573 6.79784 33.5405 6.89414C33.4143 7.24209 33.9561 7.938 33.9561 7.938L33.1397 6.98838L32.7686 6.36497C32.7686 6.36497 33.3252 5.91553 34.008 6.56069Z" fill="#36A3B2"/>
<path fill-rule="evenodd" clip-rule="evenodd" d="M38.2229 22.0009C37.6811 21.6602 31.6172 18.7389 30.6598 16.9774C29.7024 15.2159 31.1422 14.3243 32.3966 14.1648C33.6509 14.0053 33.0126 12.628 32.7083 11.4102C32.404 10.1923 33.2724 7.58993 32.7454 8.10461C32.2184 8.61929 29.2422 13.1789 27.6984 15.5566C26.1546 17.9342 25.4124 19.2898 25.8206 19.7755C26.9859 21.1818 42.1714 23.6899 38.2229 22.0009Z" fill="#45B3C2"/>
<path fill-rule="evenodd" clip-rule="evenodd" d="M26.6453 18.0865C26.581 18.258 26.5537 18.4405 26.565 18.6228C26.5763 18.8051 26.626 18.9831 26.711 19.1457C26.796 19.3084 26.9145 19.4521 27.059 19.568C27.2035 19.6838 27.3709 19.7693 27.5508 19.819C28.6493 20.2685 32.1302 21.4718 32.3232 21.1456C32.5161 20.8194 29.2801 19.7465 28.8719 18.3475C28.4637 16.9484 28.5305 16.4047 29.7106 14.723C30.8907 13.0412 32.7388 8.92377 32.3158 9.20649C31.8927 9.4892 27.2465 16.7309 26.6453 18.0865Z" fill="#54BECD"/>
<path fill-rule="evenodd" clip-rule="evenodd" d="M21.8652 13.3457C21.8652 13.3457 22.3699 12.8528 23.6614 13.5052C24.9528 14.1576 36.8132 22.0373 37.1844 22.8347C37.1844 22.8347 24.8118 17.9706 21.8652 13.3457Z" fill="#006B77"/>
<path fill-rule="evenodd" clip-rule="evenodd" d="M16.0537 28.9382C16.0537 28.9382 16.1131 29.6631 17.5381 29.953C19.0671 30.2865 33.2283 31.6783 34.0448 31.3013C34.067 31.2868 21.3531 27.2564 16.0537 28.9382Z" fill="#006B77"/>
<path fill-rule="evenodd" clip-rule="evenodd" d="M19.6245 19.3624L18.296 22.9289L16.0693 28.9383C22.7863 28.6556 27.6477 29.9386 34.0455 31.3015L35.5299 27.0318L37.2147 22.8346C31.4181 19.8625 26.8239 17.7603 21.8956 13.3457L19.6245 19.3624Z" fill="#36A3B2"/>
<path fill-rule="evenodd" clip-rule="evenodd" d="M19.6387 28.9381C24.6337 29.112 28.8197 30.1921 34.0671 31.2867L35.5515 27.0171L37.2363 22.8199C32.2413 20.2538 28.1592 18.3618 23.9509 15.0417C24.6931 16.3828 29.562 19.6956 32.2413 21.2759C34.9207 22.8562 35.2621 23.9073 34.2972 24.5307C33.3323 25.1541 23.9064 19.9131 22.4962 22.4792C21.086 25.0454 33.5624 27.2128 33.2804 27.9522C32.1077 30.9823 22.4962 28.7931 19.6387 28.9381Z" fill="#0097A4"/>
<path fill-rule="evenodd" clip-rule="evenodd" d="M16.9963 29.7792C16.9359 29.6967 16.9034 29.5979 16.9034 29.4965C16.9034 29.3951 16.9359 29.2962 16.9963 29.2138C17.1967 28.9093 18.0948 28.9021 18.0948 28.9021L16.833 28.8513L16.0908 28.9383C16.0908 28.9383 16.024 29.6052 16.9963 29.7792Z" fill="#E2000F"/>
<path fill-rule="evenodd" clip-rule="evenodd" d="M23.1121 13.2876C23.0107 13.3104 22.9193 13.3641 22.8513 13.441C22.7832 13.5179 22.742 13.614 22.7336 13.7153C22.6891 14.0705 23.3645 14.6359 23.3645 14.6359L22.3699 13.911L21.8652 13.3746C21.8652 13.3746 22.2809 12.8309 23.1121 13.2876Z" fill="#36A3B2"/>
<path fill-rule="evenodd" clip-rule="evenodd" d="M30.6378 27.4739C30.0292 27.2637 23.4755 25.6834 22.147 24.1611C20.8185 22.6389 22.0283 21.4718 23.2158 21.0513C24.4033 20.6309 23.483 19.4203 22.9115 18.2967C22.34 17.1731 22.622 14.4475 22.2212 15.0637C21.8204 15.6798 19.9278 20.7614 18.9407 23.4C17.9535 26.0386 17.5305 27.5247 18.0352 27.9161C19.4899 29.0397 34.8684 28.2931 30.6378 27.4739Z" fill="#45B3C2"/>
<path fill-rule="evenodd" clip-rule="evenodd" d="M18.429 26.0966C18.4053 26.2779 18.4198 26.462 18.4717 26.6377C18.5235 26.8133 18.6115 26.9768 18.7304 27.118C18.8493 27.2592 18.9964 27.3752 19.1629 27.4588C19.3293 27.5425 19.5115 27.592 19.6982 27.6043C20.8709 27.8073 24.5374 28.2495 24.6561 27.8871C24.7749 27.5246 21.3682 27.1622 20.6631 25.8863C19.958 24.6105 19.9209 24.0596 20.6631 22.1894C21.4053 20.3191 22.3479 15.89 21.999 16.2524C21.6502 16.6149 18.763 24.6395 18.429 26.0966Z" fill="#54BECD"/>
<path fill-rule="evenodd" clip-rule="evenodd" d="M12.7734 22.4577C12.7734 22.4577 13.1594 21.8633 14.5547 22.2258C16.0391 22.6172 29.2801 27.793 29.8219 28.4962C29.8219 28.4962 16.67 26.3505 12.7734 22.4577Z" fill="#006B77"/>
<path fill-rule="evenodd" clip-rule="evenodd" d="M10.5244 38.9057C10.5244 38.9057 10.7397 39.5726 12.187 39.5799C13.753 39.5799 27.892 37.9706 28.6045 37.4052C28.6045 37.4269 15.3339 36.1438 10.5244 38.9057Z" fill="#006B77"/>
<path fill-rule="evenodd" clip-rule="evenodd" d="M11.9049 28.8004L11.3928 32.5554L10.5244 38.9055C17.0261 37.2165 22.0509 37.4557 28.6045 37.4557L29.1018 32.9759L29.844 28.525C23.5278 26.8432 18.607 25.7776 12.7733 22.4866L11.9049 28.8004Z" fill="#45B3C2"/>
<path fill-rule="evenodd" clip-rule="evenodd" d="M14.0283 38.1444C18.9566 37.2891 23.2762 37.4195 28.6052 37.4195L29.1025 32.9397L29.8447 28.4888C24.3969 27.039 19.9956 26.0459 15.1565 23.6899C16.1585 24.8498 21.6582 27.0607 24.627 28.0393C27.5958 29.0179 28.1599 29.9748 27.3583 30.7867C26.5567 31.5986 16.2252 28.4598 15.3717 31.2651C14.5182 34.0705 27.247 33.5631 27.1134 34.346C26.6458 37.5283 16.7893 37.405 14.0283 38.1444Z" fill="#0097A4"/>
<path fill-rule="evenodd" clip-rule="evenodd" d="M11.6006 39.529C11.5222 39.4623 11.4671 39.3733 11.4431 39.2745C11.4192 39.1757 11.4275 39.072 11.467 38.9781C11.6006 38.6374 12.469 38.4417 12.469 38.4417L11.2221 38.6591L10.5244 38.9056C10.5244 38.9056 10.6506 39.558 11.6006 39.529Z" fill="#E2000F"/>
<path fill-rule="evenodd" clip-rule="evenodd" d="M13.9754 22.1313C13.8811 22.1758 13.8032 22.2478 13.7527 22.3374C13.7022 22.427 13.6814 22.5298 13.6934 22.6315C13.6934 22.9867 14.5172 23.3999 14.5172 23.3999L13.3742 22.8779L12.7656 22.4575C12.7656 22.4575 13.0625 21.8631 13.9754 22.1313Z" fill="#36A3B2"/>
<path fill-rule="evenodd" clip-rule="evenodd" d="M24.4181 34.4039C23.7798 34.3242 16.9961 34.1647 15.3929 32.9541C13.7897 31.7436 14.6878 30.3518 15.7566 29.6921C16.8254 29.0324 15.6601 28.0466 14.8511 27.0607C14.0421 26.0748 13.7229 23.371 13.4706 24.0524C13.2182 24.7338 12.5428 30.1053 12.1272 32.8816C11.7116 35.658 11.6596 37.231 12.2385 37.4848C13.9011 38.2749 28.76 34.317 24.4181 34.4039Z" fill="#45B3C2"/>
<path fill-rule="evenodd" clip-rule="evenodd" d="M12.2236 35.6364C12.2406 35.8182 12.2957 35.9946 12.3853 36.1548C12.475 36.315 12.5973 36.4555 12.7448 36.5676C12.8923 36.6797 13.0618 36.7611 13.2428 36.8066C13.4238 36.8522 13.6125 36.861 13.7971 36.8324C14.9846 36.7889 18.666 36.4555 18.6956 36.1075C18.7253 35.7596 15.3335 36.1075 14.3612 34.9839C13.3889 33.8604 13.2108 33.3602 13.567 31.3594C13.9233 29.3587 13.8194 24.8354 13.567 25.2775C13.3147 25.7197 12.2236 34.1286 12.2236 35.6364Z" fill="#54BECD"/>
<path fill-rule="evenodd" clip-rule="evenodd" d="M6.16797 32.7367C6.16797 32.7367 6.42031 32.0843 7.86761 32.1567C9.43366 32.2365 23.4539 34.6576 24.1219 35.2376C24.1219 35.2086 10.7993 35.7378 6.16797 32.7367Z" fill="#006B77"/>
<path fill-rule="evenodd" clip-rule="evenodd" d="M7.42188 49.2571C7.42188 49.2571 7.7707 49.866 9.18831 49.5833C10.7247 49.2788 24.2254 44.8642 24.7746 44.1973C24.8043 44.1973 11.5485 45.5891 7.42188 49.2571Z" fill="#006B77"/>
<path fill-rule="evenodd" clip-rule="evenodd" d="M6.6504 39.094L6.93986 42.8779L7.4223 49.2571C13.4267 46.2995 18.3995 45.5166 24.8047 44.1828L24.352 39.6956L24.1219 35.194C17.5905 34.8098 12.5509 34.7518 6.16797 32.6931L6.6504 39.094Z" fill="#36A3B2"/>
<path fill-rule="evenodd" clip-rule="evenodd" d="M10.6877 47.8147C15.3339 45.9952 19.5942 45.2703 24.7896 44.1902L24.3369 39.7031L24.1068 35.2014C18.4809 34.9115 13.9683 34.7882 8.74316 33.4617C9.96038 34.3895 15.8164 35.4551 18.9262 35.8248C22.0361 36.1945 22.7857 37.0064 22.1696 37.9995C21.5536 38.9927 10.7694 37.956 10.5393 40.8991C10.3092 43.8422 22.6224 40.7759 22.6818 41.566C22.9341 44.6759 13.2409 46.5099 10.6877 47.8147Z" fill="#0097A4"/>
<path fill-rule="evenodd" clip-rule="evenodd" d="M8.6094 49.6558C8.51788 49.6062 8.44442 49.53 8.39921 49.4378C8.354 49.3456 8.33927 49.2419 8.35705 49.1412C8.41643 48.786 9.22543 48.4163 9.22543 48.4163L8.05274 48.8729L7.42188 49.2499C7.42188 49.2499 7.68164 49.8733 8.6094 49.6558Z" fill="#E2000F"/>
<path fill-rule="evenodd" clip-rule="evenodd" d="M7.28128 32.1494C7.19881 32.2117 7.13813 32.2974 7.10756 32.3948C7.07699 32.4921 7.07804 32.5963 7.11056 32.6931C7.22189 33.041 8.07543 33.2802 8.07543 33.2802L6.8508 32.9975L6.16797 32.7148C6.16797 32.7148 6.33125 32.0697 7.28128 32.1494Z" fill="#36A3B2"/>
<path fill-rule="evenodd" clip-rule="evenodd" d="M20.107 42.0662C19.4613 42.1169 12.8186 43.313 10.9705 42.4504C9.12237 41.5877 9.73098 40.0509 10.6439 39.1883C11.5568 38.3257 10.1986 37.5935 9.20401 36.7961C8.20946 35.9988 7.32624 33.4109 7.21491 34.1285C7.10358 34.8462 7.5192 40.2467 7.72702 43.0448C7.93484 45.8429 8.17977 47.3942 8.80323 47.5247C10.5994 47.9596 24.3079 41.1165 20.107 42.0662Z" fill="#45B3C2"/>
<path fill-rule="evenodd" clip-rule="evenodd" d="M8.40204 45.7124C8.45611 45.8873 8.54638 46.0494 8.66726 46.1888C8.78814 46.3282 8.93705 46.4419 9.10475 46.5228C9.27246 46.6037 9.45539 46.65 9.6422 46.659C9.82901 46.668 10.0157 46.6394 10.1908 46.575C11.3412 46.2923 14.8741 45.2195 14.8221 44.8498C14.7702 44.4801 11.5267 45.5022 10.3689 44.6178C9.21105 43.7334 8.88447 43.2622 8.83252 41.2398C8.78056 39.2173 7.71922 34.8244 7.54851 35.2956C7.3778 35.7668 8.09031 44.2481 8.40204 45.7124Z" fill="#54BECD"/>
<path fill-rule="evenodd" clip-rule="evenodd" d="M1.70703 44.6541C1.70703 44.6541 1.81095 43.9292 3.23598 43.7335C4.77977 43.4798 19.0078 42.8999 19.7946 43.3275C19.7946 43.3275 6.89504 46.6403 1.70703 44.6541Z" fill="#006B77"/>
<path fill-rule="evenodd" clip-rule="evenodd" d="M6.60547 60.5512C6.60547 60.5512 7.08048 61.0732 8.4016 60.5005C9.84148 59.8843 22.0507 52.7368 22.5035 51.9612C22.4367 51.9612 9.79695 56.1076 6.60547 60.5512Z" fill="#006B77"/>
<path fill-rule="evenodd" clip-rule="evenodd" d="M3.58481 50.7865L4.69812 54.411L6.5759 60.5437C11.7713 56.3973 16.4695 54.5923 22.4368 51.9536L21.0044 47.6695L19.7946 43.3201C13.3225 44.3204 8.3943 45.3135 1.70703 44.6466L3.58481 50.7865Z" fill="#36A3B2"/>
<path fill-rule="evenodd" clip-rule="evenodd" d="M9.44817 58.456C13.5822 55.7014 17.6124 54.1066 22.4367 51.9319L21.0043 47.6477L19.7945 43.2983C14.2131 44.19 9.78216 45.0598 4.37891 44.8424C5.77425 45.4948 11.7193 45.2991 14.844 45.0091C17.9687 44.7191 18.8742 45.3571 18.4808 46.4227C18.0874 47.4883 7.34773 48.7713 7.75594 51.6564C8.16415 54.5415 19.5273 49.0033 19.7574 49.7572C20.7074 52.8235 11.6525 56.6582 9.44817 58.456Z" fill="#0097A4"/>
<path fill-rule="evenodd" clip-rule="evenodd" d="M7.82307 60.696C7.72262 60.6665 7.63388 60.6076 7.56883 60.5272C7.50379 60.4468 7.46558 60.3489 7.45939 60.2466C7.45939 59.8842 8.15706 59.355 8.15706 59.355L7.11055 60.0799L6.57617 60.5801C6.57617 60.5801 6.96211 61.102 7.82307 60.696Z" fill="#E2000F"/>
<path fill-rule="evenodd" clip-rule="evenodd" d="M2.67209 43.8711C2.60418 43.9497 2.56275 44.0469 2.55346 44.1494C2.54416 44.2519 2.56744 44.3547 2.62014 44.4438C2.80569 44.7555 3.69633 44.8135 3.69633 44.8135H2.43459L1.69238 44.683C1.69238 44.683 1.72207 43.9943 2.67209 43.8711Z" fill="#36A3B2"/>
<path fill-rule="evenodd" clip-rule="evenodd" d="M17.3822 50.8593C16.7587 51.0405 10.5391 53.6066 8.54254 53.1572C6.54601 52.7078 6.80579 51.0622 7.50346 50.0401C8.20113 49.018 6.71672 48.5903 5.5663 48.0032C4.41589 47.416 2.98343 45.1036 3.0428 45.8285C3.10218 46.5534 4.68308 51.7436 5.50693 54.4258C6.33077 57.1079 6.90226 58.5577 7.54056 58.5794C9.38865 58.6229 21.2714 49.0543 17.3822 50.8593Z" fill="#45B3C2"/>
<path fill-rule="evenodd" clip-rule="evenodd" d="M6.74656 56.8831C6.83731 57.0431 6.96098 57.1831 7.10979 57.2942C7.2586 57.4054 7.42934 57.4852 7.61127 57.5288C7.7932 57.5724 7.98239 57.5787 8.16695 57.5474C8.35151 57.5161 8.52745 57.4479 8.68371 57.347C9.75249 56.8324 12.9588 55.0491 12.8326 54.6939C12.7065 54.3387 9.75991 56.0277 8.37941 55.4188C6.99891 54.8099 6.65007 54.3967 6.15279 52.4395C5.65552 50.4822 3.63672 46.4011 3.63672 46.894C3.63672 47.3869 6.11568 55.5203 6.74656 56.8831Z" fill="#54BECD"/>
<path fill-rule="evenodd" clip-rule="evenodd" d="M0 56.4843C0 56.4843 -8.13995e-06 55.7594 1.31369 55.281C2.7981 54.73 16.5809 51.352 17.4418 51.613C17.4418 51.584 5.49974 57.3832 0 56.4843Z" fill="#006B77"/>
<path fill-rule="evenodd" clip-rule="evenodd" d="M8.08984 71.0985C8.08984 71.0985 8.66134 71.5117 9.84145 70.6926C11.0216 69.8734 21.5683 60.3917 21.8206 59.5581C21.8206 59.5581 10.3165 66.0822 8.08984 71.0985Z" fill="#006B77"/>
<path fill-rule="evenodd" clip-rule="evenodd" d="M3.10983 62.1243L4.95792 65.4588L8.06776 71.0985C12.3132 66.0242 16.5215 63.3059 21.8208 59.5436L19.5274 55.6292L17.4418 51.5842C11.3112 53.8387 6.69469 55.7959 0 56.4556L3.10983 62.1243Z" fill="#36A3B2"/>
<path fill-rule="evenodd" clip-rule="evenodd" d="M10.4424 68.4744C13.9233 64.9586 17.5082 62.6027 21.8204 59.5436L19.527 55.6292L17.4414 51.5842C12.1569 53.527 7.99309 55.2087 2.66406 56.1148C4.14847 56.4773 9.95251 55.1145 12.951 54.2084C15.9495 53.3022 16.9663 53.7517 16.8031 54.868C16.6398 55.9844 6.37509 59.3769 7.38449 62.117C8.39388 64.8571 18.3617 57.1949 18.7476 57.8909C20.2988 60.7325 12.2385 66.2924 10.4424 68.4744Z" fill="#0097A4"/>
<path fill-rule="evenodd" clip-rule="evenodd" d="M9.31428 70.9896C9.21031 70.9797 9.11192 70.939 9.03232 70.8729C8.95272 70.8068 8.89572 70.7185 8.86897 70.6199C8.77248 70.2647 9.35882 69.6123 9.35882 69.6123L8.48302 70.4967L8.06738 71.0983C8.06738 71.0983 8.55723 71.555 9.31428 70.9896Z" fill="#E2000F"/>
<path fill-rule="evenodd" clip-rule="evenodd" d="M0.786287 55.5349C0.736198 55.6243 0.715728 55.7267 0.727691 55.828C0.739654 55.9293 0.783458 56.0244 0.853083 56.1003C1.10543 56.3686 1.98865 56.2526 1.98865 56.2526L0.749174 56.4773H0.0069698C0.0069698 56.4773 -0.119203 55.8394 0.786287 55.5349Z" fill="#36A3B2"/>
<path fill-rule="evenodd" clip-rule="evenodd" d="M16.6397 59.4782C16.0756 59.7754 10.5091 63.5159 8.47541 63.4724C6.44177 63.4289 6.33786 61.7689 6.81287 60.6163C7.28788 59.4637 5.73668 59.3404 4.49719 59.007C3.25771 58.6735 1.36509 56.6656 1.56549 57.3687C1.76588 58.0719 4.4007 62.8345 5.76636 65.2991C7.13201 67.7638 7.99297 69.0686 8.609 68.9236C10.42 68.6482 20.0761 56.9338 16.6397 59.4782Z" fill="#45B3C2"/>
<path fill-rule="evenodd" clip-rule="evenodd" d="M7.47388 67.4667C7.59582 67.6049 7.74564 67.7171 7.91399 67.7962C8.08233 67.8753 8.26557 67.9196 8.45226 67.9264C8.63895 67.9332 8.82506 67.9024 8.99897 67.8357C9.17288 67.7691 9.33085 67.6681 9.463 67.5391C10.4056 66.8142 13.174 64.4438 12.981 64.1176C12.7881 63.7914 10.2423 66.0314 8.795 65.6979C7.3477 65.3644 6.88754 65.0382 5.98205 63.226C5.07656 61.4137 2.27102 57.811 2.32298 58.3039C2.37493 58.7969 6.6055 66.2561 7.47388 67.4667Z" fill="#54BECD"/>
<path fill-rule="evenodd" clip-rule="evenodd" d="M0.943035 69.2934C0.943035 69.2934 0.750062 68.6192 1.95243 67.8436C3.1548 67.0679 15.9875 60.7758 16.8856 60.8483C16.8856 60.841 6.50957 69.0251 0.943035 69.2934Z" fill="#006B77"/>
<path fill-rule="evenodd" clip-rule="evenodd" d="M12.0605 81.8415C12.0605 81.8415 12.7137 82.1242 13.6785 81.0731C14.6434 80.022 22.867 68.5251 22.919 67.6479C22.9338 67.6479 13.1293 76.499 12.0605 81.8415Z" fill="#006B77"/>
<path fill-rule="evenodd" clip-rule="evenodd" d="M5.23232 74.1357L7.77067 76.9991L12.0606 81.8414C15.074 75.9697 18.5846 72.4177 22.9191 67.6479L19.8166 64.3206L16.8478 60.8411C11.3629 64.3351 7.28823 67.2274 0.905273 69.2934L5.23232 74.1357Z" fill="#36A3B2"/>
<path fill-rule="evenodd" clip-rule="evenodd" d="M13.8047 78.7823C16.4099 74.6142 19.3935 71.5333 22.919 67.6479L19.8166 64.3206L16.8478 60.8411C12.1199 63.8566 8.43859 66.4155 3.42871 68.3873C4.97992 68.3873 10.3238 65.8719 13.0403 64.3496C15.7567 62.8273 16.87 63.052 16.9591 64.1829C17.0482 65.3137 7.77803 70.7867 9.37377 73.2513C10.9695 75.716 19.0224 66.1183 19.5197 66.7272C21.7018 69.1339 15.0665 76.2742 13.8047 78.7823Z" fill="#0097A4"/>
<path fill-rule="evenodd" clip-rule="evenodd" d="M13.2858 81.4715C13.1824 81.4849 13.0773 81.4662 12.9854 81.4181C12.8935 81.37 12.8194 81.2948 12.7736 81.2033C12.5955 80.8844 13.026 80.116 13.026 80.116L12.3654 81.1671L12.0908 81.8412C12.0908 81.8412 12.6475 82.1892 13.2858 81.4715Z" fill="#E2000F"/>
<path fill-rule="evenodd" clip-rule="evenodd" d="M1.4916 68.1987C1.46497 68.2974 1.4699 68.4017 1.50572 68.4976C1.54154 68.5935 1.60654 68.6764 1.692 68.7352C1.98888 68.9454 2.82757 68.6409 2.82757 68.6409L1.66973 69.1266L0.927527 69.3006C0.927527 69.3006 0.667751 68.6844 1.4916 68.1987Z" fill="#36A3B2"/>
<path fill-rule="evenodd" clip-rule="evenodd" d="M17.8493 68.6845C17.3594 69.0977 12.7578 73.9255 10.7538 74.317C8.74987 74.7084 8.2897 73.1064 8.4901 71.8885C8.69049 70.6707 7.16156 70.8664 5.87755 70.8084C4.59353 70.7505 2.30012 69.1774 2.64895 69.8226C2.99779 70.4677 6.6346 74.5562 8.51238 76.6801C10.3902 78.8041 11.5183 79.8842 12.1046 79.6522C13.8191 78.9563 20.64 65.4732 17.8493 68.6845Z" fill="#45B3C2"/>
<path fill-rule="evenodd" clip-rule="evenodd" d="M10.6799 78.4052C10.8295 78.5147 11.0007 78.5929 11.1826 78.6348C11.3646 78.6767 11.5534 78.6815 11.7374 78.6488C11.9213 78.6161 12.0963 78.5467 12.2515 78.445C12.4067 78.3432 12.5388 78.2112 12.6393 78.0573C13.3815 77.1584 15.6082 74.2443 15.3039 73.9688C14.9995 73.6934 13.0772 76.419 11.5928 76.3973C10.1084 76.3755 9.58887 76.158 8.29744 74.5778C7.006 72.9975 3.48795 70.0834 3.63639 70.5546C3.78483 71.0258 9.5295 77.4339 10.6799 78.4052Z" fill="#54BECD"/>
<path fill-rule="evenodd" clip-rule="evenodd" d="M4.6679 81.5008C4.6679 81.5008 4.32648 80.8847 5.33587 79.8626C6.34527 78.8404 17.4784 70.0039 18.369 69.8879C18.369 69.8879 10.0489 80.0655 4.6679 81.5008Z" fill="#006B77"/>
<path fill-rule="evenodd" clip-rule="evenodd" d="M18.2879 91.4534C18.2879 91.4534 18.993 91.5912 19.7055 90.3588C20.418 89.1265 25.9029 76.1725 25.7693 75.3099C25.7693 75.2737 18.1543 85.9732 18.2879 91.4534Z" fill="#006B77"/>
<path fill-rule="evenodd" clip-rule="evenodd" d="M9.92376 85.321L13.0336 87.59L18.2884 91.4174C19.9435 85.0456 22.5932 80.8629 25.7698 75.2739L21.9994 72.6716L18.37 69.8879C13.7906 74.4621 10.4433 78.1373 4.66895 81.4863L9.92376 85.321Z" fill="#36A3B2"/>
<path fill-rule="evenodd" clip-rule="evenodd" d="M19.3116 88.0539C20.9445 83.4363 23.1785 79.8191 25.7688 75.2739L21.9984 72.6716L18.369 69.8879C14.4205 73.8241 11.3923 77.1007 6.93164 80.0873C8.45316 79.7973 13.1068 76.1728 15.4299 74.1213C17.753 72.0699 18.8737 72.0481 19.2151 73.1282C19.5565 74.2083 11.704 81.5081 13.8045 83.5813C15.9049 85.6545 21.6273 74.5925 22.2804 75.0637C24.9078 76.9557 19.9647 85.3428 19.3116 88.0539Z" fill="#0097A4"/>
<path fill-rule="evenodd" clip-rule="evenodd" d="M19.3787 90.801C19.2799 90.834 19.1733 90.837 19.0727 90.8099C18.9721 90.7827 18.8821 90.7266 18.8147 90.6488C18.5772 90.3733 18.8147 89.5325 18.8147 89.5325L18.4064 90.6996L18.2803 91.4245C18.2803 91.4245 18.9408 91.6274 19.3787 90.801Z" fill="#E2000F"/>
<path fill-rule="evenodd" clip-rule="evenodd" d="M4.96513 80.3118C4.95975 80.4123 4.98603 80.5121 5.04043 80.5976C5.09484 80.6831 5.17475 80.7503 5.26944 80.7902C5.61085 80.9352 6.36048 80.464 6.36048 80.464L5.33623 81.1889L4.66825 81.5078C4.66825 81.5078 4.27488 80.9569 4.96513 80.3118Z" fill="#36A3B2"/>
<path fill-rule="evenodd" clip-rule="evenodd" d="M21.0417 77.3398C20.6557 77.8472 17.2267 83.5304 15.3489 84.335C13.4712 85.1397 12.677 83.6754 12.6102 82.4431C12.5434 81.2107 11.0887 81.7181 9.81952 81.9356C8.55035 82.1531 5.96747 81.102 6.44991 81.6529C6.93234 82.2038 11.3856 85.4369 13.6864 87.1187C15.9872 88.8004 17.3306 89.6196 17.8502 89.2934C19.3717 88.2278 23.0605 73.621 21.0417 77.3398Z" fill="#45B3C2"/>
<path fill-rule="evenodd" clip-rule="evenodd" d="M16.1879 88.3729C16.3593 88.4466 16.5442 88.4852 16.7314 88.4865C16.9186 88.4878 17.1041 88.4517 17.2765 88.3804C17.4489 88.3092 17.6045 88.2042 17.7339 88.072C17.8632 87.9398 17.9635 87.7832 18.0286 87.6117C18.563 86.5751 20.0474 83.2623 19.7282 83.0666C19.4091 82.8709 18.0731 85.9227 16.6184 86.2199C15.1637 86.5172 14.607 86.4084 13.0039 85.1398C11.4007 83.8713 7.30373 81.7546 7.55608 82.1895C7.80843 82.6244 14.852 87.6407 16.1879 88.3729Z" fill="#54BECD"/>
<path fill-rule="evenodd" clip-rule="evenodd" d="M11.103 92.7801C11.103 92.7801 10.6355 92.2509 11.3851 91.0476C12.2015 89.7355 21.0337 78.833 21.8799 78.5286C21.8799 78.5286 16.0313 90.2357 11.103 92.7801Z" fill="#006B77"/>
<path fill-rule="evenodd" clip-rule="evenodd" d="M26.6448 99.5507C26.6448 99.5507 27.387 99.5507 27.7804 98.1879C28.1738 96.825 30.6602 83.023 30.3262 82.2401C30.2965 82.2038 25.2718 94.2662 26.6448 99.5507Z" fill="#006B77"/>
<path fill-rule="evenodd" clip-rule="evenodd" d="M17.0853 95.397L20.633 96.941L26.6152 99.5506C26.8007 93.0266 28.4559 88.3437 30.3262 82.2038L26.0734 80.4713L21.9096 78.5286C18.4584 83.9653 16.0165 88.2712 11.1328 92.7801L17.0853 95.397Z" fill="#36A3B2"/>
<path fill-rule="evenodd" clip-rule="evenodd" d="M26.8677 96.0566C27.4243 91.1998 28.7974 87.1984 30.2967 82.2038L26.0439 80.4713L21.8801 78.5286C18.9113 83.2187 16.6847 87.0606 12.9736 90.9243C14.3912 90.3154 18.1245 85.7848 19.9355 83.2839C21.7465 80.783 22.8375 80.5293 23.4016 81.5151C23.9657 82.501 17.9538 91.294 20.4699 92.8671C22.986 94.4401 26.0884 82.4213 26.8306 82.7185C29.8439 84.0523 26.9196 93.2658 26.8677 96.0566Z" fill="#0097A4"/>
<path fill-rule="evenodd" clip-rule="evenodd" d="M27.544 98.7025C27.4576 98.7602 27.3554 98.791 27.2508 98.791C27.1462 98.791 27.044 98.7602 26.9576 98.7025C26.6608 98.485 26.7201 97.6079 26.7201 97.6079L26.5791 98.833V99.5579C26.5791 99.5579 27.299 99.6231 27.544 98.7025Z" fill="#E2000F"/>
<path fill-rule="evenodd" clip-rule="evenodd" d="M11.1254 91.5624C11.1437 91.6635 11.1933 91.7568 11.2677 91.8294C11.3421 91.902 11.4375 91.9505 11.5411 91.9683C11.9048 92.0336 12.5282 91.4102 12.5282 91.4102L11.6895 92.3308L11.1106 92.7875C11.1106 92.7875 10.6059 92.338 11.1254 91.5624Z" fill="#36A3B2"/>
<path fill-rule="evenodd" clip-rule="evenodd" d="M26.1546 85.2339C25.8874 85.8138 23.8167 92.0914 22.169 93.273C20.5213 94.4546 19.408 93.2005 19.0665 92.0117C18.7251 90.8228 17.4189 91.6347 16.2313 92.1132C15.0438 92.5916 12.2828 92.1132 12.8766 92.5554C13.4703 92.9975 18.5396 95.194 21.1596 96.3393C23.7796 97.4847 25.2714 98.0066 25.7093 97.5427C26.9562 96.2088 27.2902 81.1744 26.1546 85.2339Z" fill="#45B3C2"/>
<path fill-rule="evenodd" clip-rule="evenodd" d="M23.8836 97.0281C24.0664 97.0645 24.255 97.0639 24.4376 97.0264C24.6202 96.9889 24.793 96.9152 24.9453 96.8099C25.0976 96.7046 25.2262 96.57 25.3232 96.4142C25.4201 96.2585 25.4834 96.0851 25.509 95.9045C25.7985 94.7737 26.511 91.2362 26.1547 91.0984C25.7985 90.9607 25.1825 94.2445 23.8168 94.8389C22.4511 95.4333 21.9019 95.4551 20.0464 94.5562C18.1909 93.6573 13.7377 92.4758 14.1088 92.8382C14.4799 93.2007 22.414 96.6077 23.8836 97.0281Z" fill="#54BECD"/>
<path fill-rule="evenodd" clip-rule="evenodd" d="M19.8318 102.327C19.8318 102.327 19.2529 101.914 19.7205 100.573C20.2252 99.123 26.4004 86.6112 27.1871 86.1328C27.1871 86.1546 24.0773 98.8258 19.8318 102.327Z" fill="#006B77"/>
<path fill-rule="evenodd" clip-rule="evenodd" d="M36.4798 105.676C36.4798 105.676 37.17 105.517 37.2813 104.103C37.3927 102.689 36.7247 88.6916 36.22 87.9595C36.22 87.9595 33.986 100.805 36.4798 105.676Z" fill="#006B77"/>
<path fill-rule="evenodd" clip-rule="evenodd" d="M26.2511 103.632L30.0512 104.357L36.4787 105.64C35.2021 99.1954 35.781 94.3095 36.2189 87.9232L31.6841 87.133L27.1863 86.1182C25.0265 92.1566 23.594 96.8757 19.8311 102.312L26.2511 103.632Z" fill="#36A3B2"/>
<path fill-rule="evenodd" clip-rule="evenodd" d="M35.9447 102.211C35.4103 97.3542 35.863 93.1571 36.2193 87.9595L31.6844 87.1694L27.1867 86.1545C25.3237 91.3593 24.0026 95.5782 21.249 100.138C22.5033 99.2462 25.1382 94.0342 26.348 91.2143C27.5578 88.3945 28.5746 87.9088 29.3168 88.7497C30.059 89.5906 26.1624 99.4492 28.968 100.457C31.7735 101.464 32.1372 89.0686 32.9313 89.2281C36.1822 89.866 35.3806 99.4709 35.9447 102.211Z" fill="#0097A4"/>
<path fill-rule="evenodd" clip-rule="evenodd" d="M37.192 104.668C37.1179 104.741 37.0226 104.79 36.919 104.809C36.8154 104.827 36.7086 104.813 36.6131 104.77C36.2791 104.618 36.1455 103.755 36.1455 103.755L36.2717 104.98L36.4795 105.705C36.4795 105.705 37.1549 105.604 37.192 104.668Z" fill="#E2000F"/>
<path fill-rule="evenodd" clip-rule="evenodd" d="M19.5796 101.153C19.619 101.247 19.687 101.328 19.7746 101.384C19.8621 101.439 19.965 101.467 20.0695 101.464C20.4406 101.464 20.9156 100.74 20.9156 100.74L20.2996 101.82L19.832 102.378C19.832 102.378 19.2234 102.023 19.5796 101.153Z" fill="#36A3B2"/>
<path fill-rule="evenodd" clip-rule="evenodd" d="M32.8506 91.7942C32.717 92.4176 32.1084 98.9852 30.7354 100.493C29.3623 102.001 28.0337 101 27.4325 99.913C26.8313 98.8257 25.7403 99.913 24.6864 100.638C23.6324 101.363 20.8343 101.486 21.5172 101.783C22.2 102.08 27.6255 103.161 30.4236 103.726C33.2217 104.291 34.81 104.451 35.1292 103.943C36.0718 102.327 33.0584 87.5897 32.8506 91.7942Z" fill="#45B3C2"/>
<path fill-rule="evenodd" clip-rule="evenodd" d="M33.2432 103.777C33.4308 103.775 33.6159 103.735 33.7868 103.659C33.9578 103.583 34.1108 103.474 34.2363 103.338C34.3619 103.202 34.4571 103.042 34.5161 102.868C34.5751 102.694 34.5966 102.51 34.5791 102.327C34.6162 101.16 34.5272 97.5573 34.1486 97.4993C33.7701 97.4413 33.8963 100.776 32.7014 101.646C31.5064 102.516 30.9646 102.653 28.9903 102.168C27.0161 101.682 22.3624 101.443 22.7781 101.754C23.1937 102.066 31.7217 103.69 33.2432 103.777Z" fill="#54BECD"/>
<path fill-rule="evenodd" clip-rule="evenodd" d="M30.4451 109.83C30.4451 109.83 29.792 109.547 29.9479 108.141C30.1186 106.618 33.4065 93.0917 34.0374 92.4683C34.0671 92.4683 33.8073 105.487 30.4451 109.83Z" fill="#006B77"/>
<path fill-rule="evenodd" clip-rule="evenodd" d="M47.427 109.576C47.427 109.576 48.0653 109.272 47.8649 107.872C47.6423 106.357 43.909 92.9396 43.2559 92.3379C43.2633 92.3234 43.9238 105.328 47.427 109.576Z" fill="#006B77"/>
<path fill-rule="evenodd" clip-rule="evenodd" d="M37.0357 109.728L40.9174 109.663L47.4266 109.576C44.7472 103.552 44.2351 98.659 43.2554 92.3379L38.6463 92.5191H34.0298C33.2876 98.8692 32.909 103.777 30.4375 109.88L37.0357 109.728Z" fill="#36A3B2"/>
<path fill-rule="evenodd" clip-rule="evenodd" d="M46.1427 106.292C44.547 101.66 44.0646 97.463 43.263 92.3235L38.6539 92.5047H34.0374C33.3768 97.9777 33.0205 102.378 31.3506 107.401C32.3748 106.263 33.7999 100.616 34.3565 97.608C34.9132 94.5997 35.789 93.911 36.7316 94.5634C37.6742 95.2158 36.0265 105.683 38.9582 106.068C41.8899 106.452 39.5297 94.288 40.3387 94.2735C43.6489 94.1865 44.9849 103.733 46.1427 106.292Z" fill="#0097A4"/>
<path fill-rule="evenodd" clip-rule="evenodd" d="M47.9088 108.431C47.8529 108.518 47.7706 108.585 47.6735 108.624C47.5764 108.663 47.4693 108.672 47.367 108.648C47.0033 108.568 46.6768 107.757 46.6768 107.757L47.0776 108.924L47.4338 109.562C47.4338 109.562 48.0795 109.344 47.9088 108.431Z" fill="#E2000F"/>
<path fill-rule="evenodd" clip-rule="evenodd" d="M29.9332 108.713C29.9927 108.798 30.0775 108.862 30.1759 108.897C30.2743 108.932 30.3815 108.936 30.4825 108.909C30.8462 108.822 31.143 108.003 31.143 108.003L30.7794 109.177L30.4454 109.83C30.4454 109.83 29.7996 109.634 29.9332 108.713Z" fill="#36A3B2"/>
<path fill-rule="evenodd" clip-rule="evenodd" d="M40.8207 96.7743C40.8207 97.4122 41.6668 103.958 40.6796 105.712C39.6925 107.467 38.1487 106.778 37.3249 105.843C36.501 104.908 35.6698 106.183 34.794 107.104C33.9182 108.025 31.2239 108.742 31.9513 108.887C32.6787 109.032 38.2229 108.953 41.0953 108.887C43.9676 108.822 45.5485 108.699 45.7415 108.104C46.2981 106.394 40.0859 92.6279 40.8207 96.7743Z" fill="#45B3C2"/>
<path fill-rule="evenodd" clip-rule="evenodd" d="M43.8642 108.409C44.0459 108.366 44.2165 108.287 44.3655 108.177C44.5146 108.066 44.6389 107.927 44.7307 107.768C44.8226 107.609 44.88 107.434 44.8995 107.252C44.9189 107.07 44.9 106.887 44.8439 106.713C44.6213 105.567 43.7381 102.066 43.3595 102.095C42.981 102.124 43.842 105.343 42.8697 106.445C41.8974 107.546 41.3853 107.793 39.3294 107.749C37.2735 107.706 32.7015 108.474 33.1691 108.655C33.6367 108.837 42.3502 108.626 43.8642 108.409Z" fill="#54BECD"/>
<path fill-rule="evenodd" clip-rule="evenodd" d="M42.8767 115.02C42.8767 115.02 42.179 114.882 42.0157 113.476C41.8302 111.954 41.9415 98.0501 42.4165 97.3035C42.4165 97.3035 45.1998 110.054 42.8767 115.02Z" fill="#006B77"/>
<path fill-rule="evenodd" clip-rule="evenodd" d="M59.376 111.026C59.376 111.026 59.9326 110.583 59.376 109.264C58.8193 107.814 52.1098 95.5708 51.3379 95.1213C51.375 95.1503 54.9896 107.691 59.376 111.026Z" fill="#006B77"/>
<path fill-rule="evenodd" clip-rule="evenodd" d="M49.2453 113.49L53.0157 112.584L59.3764 111.026C55.3982 105.734 53.7802 101.073 51.3754 95.1213L46.9222 96.3102L42.417 97.2743C43.1147 103.639 43.9014 108.496 42.8772 114.991L49.2453 113.49Z" fill="#36A3B2"/>
<path fill-rule="evenodd" clip-rule="evenodd" d="M57.3798 108.126C54.7673 103.958 53.3274 99.971 51.3754 95.1287L46.9222 96.3175L42.417 97.2816C43.0182 102.769 43.6787 107.133 43.2037 112.389C43.9459 111.062 44.035 105.248 43.894 102.189C43.753 99.1301 44.4432 98.2747 45.512 98.7097C46.5808 99.1446 47.3675 109.699 50.3437 109.431C53.32 109.163 48.2062 97.8325 48.9929 97.6296C52.177 96.8829 55.6653 105.908 57.3798 108.126Z" fill="#0097A4"/>
<path fill-rule="evenodd" clip-rule="evenodd" d="M59.5842 109.844C59.55 109.94 59.4858 110.024 59.4005 110.082C59.3153 110.141 59.2134 110.172 59.1092 110.17C58.7381 110.17 58.2334 109.446 58.2334 109.446L58.894 110.497L59.3764 111.048C59.3764 111.048 59.9627 110.7 59.5842 109.844Z" fill="#E2000F"/>
<path fill-rule="evenodd" clip-rule="evenodd" d="M42.127 114.041C42.2044 114.109 42.3014 114.153 42.4048 114.166C42.5083 114.179 42.6133 114.161 42.7059 114.114C43.0399 113.947 43.1438 113.077 43.1438 113.077L43.0621 114.309L42.884 115.034C42.884 115.034 42.2309 114.969 42.127 114.041Z" fill="#36A3B2"/>
<path fill-rule="evenodd" clip-rule="evenodd" d="M50.0091 100.029C50.165 100.645 52.4732 106.843 51.9166 108.728C51.3599 110.613 49.69 110.323 48.6806 109.591C47.6712 108.859 47.1442 110.316 46.4985 111.374C45.8528 112.432 43.3961 113.752 44.1383 113.737C44.8805 113.723 50.2689 112.425 53.0447 111.751C55.8206 111.077 57.3421 110.598 57.3941 109.975C57.5499 108.213 48.3466 96.1438 50.0091 100.029Z" fill="#45B3C2"/>
<path fill-rule="evenodd" clip-rule="evenodd" d="M55.6353 110.7C55.8031 110.619 55.952 110.506 56.0727 110.366C56.1935 110.227 56.2835 110.065 56.3372 109.89C56.3908 109.715 56.4069 109.531 56.3845 109.35C56.3621 109.169 56.3016 108.994 56.2068 108.837C55.7318 107.771 54.0619 104.553 53.6982 104.661C53.3345 104.77 54.908 107.728 54.2103 109.011C53.5126 110.294 53.0821 110.649 51.0559 111.048C49.0297 111.446 44.762 113.222 45.2667 113.273C45.7714 113.324 54.2103 111.251 55.6353 110.7Z" fill="#54BECD"/>
<path fill-rule="evenodd" clip-rule="evenodd" d="M56.4371 117.376C56.4371 117.376 55.6949 117.376 55.2348 116.064C54.7746 114.752 51.5757 101.066 51.8652 100.232C51.88 100.232 57.5133 112.033 56.4371 117.376Z" fill="#006B77"/>
<path fill-rule="evenodd" clip-rule="evenodd" d="M71.5784 109.851C71.5784 109.851 72.0237 109.3 71.2073 108.133C70.3909 106.966 60.9426 96.4118 60.0742 96.1436C60.0891 96.1436 66.524 107.553 71.5784 109.851Z" fill="#006B77"/>
<path fill-rule="evenodd" clip-rule="evenodd" d="M62.2717 114.469L65.7304 112.751L71.5715 109.851C66.4652 105.582 63.8007 101.406 60.0822 96.1436L56.0224 98.3183L51.8809 100.232C54.0407 106.27 55.9333 110.83 56.4528 117.376L62.2717 114.469Z" fill="#36A3B2"/>
<path fill-rule="evenodd" clip-rule="evenodd" d="M68.9516 107.466C65.4409 103.987 63.1178 100.428 60.0896 96.1436L56.0298 98.3183L51.8809 100.232C53.7438 105.437 55.4063 109.54 56.1634 114.73C56.5716 113.28 55.3098 107.59 54.4563 104.647C53.6028 101.704 54.0852 100.71 55.1985 100.892C56.3118 101.073 59.5553 111.185 62.3905 110.265C65.2257 109.344 57.6107 99.4273 58.3306 99.0721C61.2698 97.6513 66.7695 105.661 68.9516 107.466Z" fill="#0097A4"/>
<path fill-rule="evenodd" clip-rule="evenodd" d="M71.5039 108.626C71.4914 108.729 71.4469 108.824 71.3765 108.901C71.3061 108.977 71.2132 109.031 71.1106 109.054C70.7469 109.141 70.0938 108.547 70.0938 108.547L70.977 109.424L71.5782 109.851C71.5782 109.851 72.0606 109.38 71.5039 108.626Z" fill="#E2000F"/>
<path fill-rule="evenodd" clip-rule="evenodd" d="M55.4795 116.586C55.5696 116.637 55.6736 116.659 55.7772 116.65C55.8808 116.641 55.979 116.601 56.0584 116.535C56.3404 116.296 56.244 115.433 56.244 115.433L56.4443 116.644V117.369C56.4443 117.369 55.769 117.477 55.4795 116.586Z" fill="#36A3B2"/>
<path fill-rule="evenodd" clip-rule="evenodd" d="M59.8881 101.196C60.185 101.762 63.8811 107.285 63.7847 109.286C63.6882 111.287 61.9885 111.33 60.8158 110.837C59.6432 110.345 59.4799 111.86 59.1088 113.063C58.7376 114.266 56.6372 116.064 57.3572 115.883C58.0771 115.702 63.0202 113.244 65.5808 111.976C68.1414 110.707 69.4922 109.895 69.3957 109.279C69.1359 107.488 57.372 97.782 59.8881 101.196Z" fill="#45B3C2"/>
<path fill-rule="evenodd" clip-rule="evenodd" d="M67.8523 110.344C67.9976 110.228 68.1168 110.084 68.2025 109.921C68.2882 109.758 68.3386 109.579 68.3504 109.396C68.3623 109.213 68.3353 109.03 68.2714 108.857C68.2074 108.685 68.1077 108.527 67.9785 108.394C67.2363 107.467 64.8909 104.697 64.5569 104.886C64.2229 105.074 66.4496 107.604 66.0413 109.011C65.6331 110.417 65.2991 110.852 63.4436 111.7C61.5881 112.548 57.8177 115.179 58.3224 115.15C58.8271 115.121 66.5906 111.193 67.8523 110.344Z" fill="#54BECD"/>
<path fill-rule="evenodd" clip-rule="evenodd" d="M69.6933 116.738C69.6933 116.738 69.0031 116.912 68.2089 115.723C67.4148 114.534 61.2693 101.863 61.3584 100.993C61.3955 100.993 69.5597 111.294 69.6933 116.738Z" fill="#006B77"/>
<path fill-rule="evenodd" clip-rule="evenodd" d="M82.7923 106.155C82.7923 106.155 83.0966 105.524 82.0501 104.553C81.0036 103.581 69.4326 95.3174 68.5049 95.2449C68.4975 95.2449 77.3445 104.995 82.7923 106.155Z" fill="#006B77"/>
<path fill-rule="evenodd" clip-rule="evenodd" d="M74.755 112.657L77.7238 110.236L82.7708 106.155C76.8332 103.081 73.2928 99.5798 68.4759 95.2449L64.995 98.2025L61.373 100.993C64.8391 106.423 67.704 110.461 69.6857 116.738L74.755 112.657Z" fill="#36A3B2"/>
<path fill-rule="evenodd" clip-rule="evenodd" d="M79.6973 104.386C75.489 101.747 72.4163 98.7679 68.4974 95.2449L65.0165 98.2025L61.3945 100.993C64.3634 105.669 66.924 109.322 68.8166 114.259C68.8834 112.744 66.3821 107.474 64.8903 104.785C63.3985 102.095 63.6434 101.022 64.7938 100.957C65.9442 100.892 71.3623 110.062 73.923 108.554C76.4836 107.046 66.82 99.0071 67.4435 98.5069C69.9893 96.4627 77.1515 103.096 79.6973 104.386Z" fill="#0097A4"/>
<path fill-rule="evenodd" clip-rule="evenodd" d="M82.4442 104.973C82.4533 105.075 82.4306 105.178 82.3789 105.267C82.3272 105.356 82.2491 105.428 82.1547 105.473C81.8207 105.633 81.0488 105.198 81.0488 105.198L82.1102 105.865L82.793 106.154C82.793 106.154 83.1567 105.589 82.4442 104.973Z" fill="#E2000F"/>
<path fill-rule="evenodd" clip-rule="evenodd" d="M68.5947 116.18C68.6953 116.209 68.8027 116.207 68.9023 116.175C69.0018 116.142 69.0888 116.081 69.1514 115.999C69.374 115.709 69.0846 114.882 69.0846 114.882L69.5596 116.028L69.7155 116.753C69.7155 116.753 69.0772 116.977 68.5947 116.18Z" fill="#36A3B2"/>
<path fill-rule="evenodd" clip-rule="evenodd" d="M69.4482 100.218C69.8564 100.703 74.703 105.292 75.0593 107.271C75.4155 109.25 73.7678 109.649 72.5283 109.446C71.2889 109.243 71.4521 110.721 71.3631 111.975C71.274 113.23 69.6263 115.433 70.2869 115.107C70.9474 114.781 75.2225 111.316 77.4343 109.525C79.6461 107.735 80.7816 106.626 80.5516 106.082C79.8762 104.371 66.2196 97.4267 69.4482 100.218Z" fill="#45B3C2"/>
<path fill-rule="evenodd" clip-rule="evenodd" d="M79.2671 107.401C79.3822 107.257 79.4656 107.092 79.512 106.915C79.5585 106.738 79.567 106.553 79.537 106.373C79.507 106.192 79.4392 106.02 79.3379 105.866C79.2365 105.713 79.1038 105.581 78.948 105.48C78.0425 104.755 75.1108 102.53 74.8287 102.784C74.5467 103.037 77.2854 105.031 77.2335 106.488C77.1815 107.945 76.944 108.438 75.3037 109.663C73.6635 110.888 70.5907 114.266 71.0806 114.128C71.5704 113.991 78.228 108.525 79.2671 107.401Z" fill="#54BECD"/>
<path fill-rule="evenodd" clip-rule="evenodd" d="M82.311 113.353C82.311 113.353 81.6801 113.672 80.6559 112.628C79.6316 111.584 70.8217 100.565 70.7178 99.6956C70.7178 99.7318 80.9602 108.068 82.311 113.353Z" fill="#006B77"/>
<path fill-rule="evenodd" clip-rule="evenodd" d="M92.7465 100.254C92.7465 100.254 92.9098 99.5725 91.6629 98.8548C90.416 98.1372 77.2715 92.5047 76.3809 92.6207C76.3734 92.6207 87.1725 100.276 92.7465 100.254Z" fill="#006B77"/>
<path fill-rule="evenodd" clip-rule="evenodd" d="M86.3412 108.3L88.7237 105.306L92.7464 100.232C86.267 98.4923 82.0438 95.8174 76.3808 92.5989L73.6346 96.2234L70.7178 99.7101C75.2972 104.277 78.9934 107.619 82.311 113.331L86.3412 108.3Z" fill="#36A3B2"/>
<path fill-rule="evenodd" clip-rule="evenodd" d="M89.3323 99.1882C84.6415 97.4992 80.9825 95.2375 76.3808 92.6206L73.6346 96.2451L70.7178 99.7319C74.6663 103.668 77.9543 106.698 80.9157 111.113C80.6485 109.619 77.0413 105.002 74.978 102.689C72.9147 100.377 72.9295 99.2752 74.0428 98.9707C75.1561 98.6663 82.4669 106.481 84.6341 104.465C86.8013 102.45 75.6312 96.6438 76.0988 96.0204C78.1101 93.4977 86.5713 98.4633 89.3323 99.1882Z" fill="#0097A4"/>
<path fill-rule="evenodd" clip-rule="evenodd" d="M92.1442 99.1809C92.1762 99.2788 92.177 99.3839 92.1465 99.4823C92.1161 99.5807 92.0557 99.6677 91.9735 99.7318C91.684 99.9565 90.8379 99.7318 90.8379 99.7318L92.018 100.16L92.7602 100.29C92.7602 100.29 92.9829 99.6303 92.1442 99.1809Z" fill="#E2000F"/>
<path fill-rule="evenodd" clip-rule="evenodd" d="M81.1006 113.041C81.2058 113.048 81.3108 113.024 81.4011 112.97C81.4914 112.917 81.5627 112.838 81.6053 112.744C81.7611 112.418 81.2936 111.671 81.2936 111.671L82.0358 112.686L82.3475 113.345C82.3475 113.345 81.7537 113.722 81.1006 113.041Z" fill="#36A3B2"/>
<path fill-rule="evenodd" clip-rule="evenodd" d="M78.4068 97.2529C78.9115 97.6443 84.6636 101.109 85.4429 102.958C86.2222 104.806 84.7007 105.553 83.4464 105.589C82.192 105.625 82.7042 107.039 82.8674 108.308C83.0307 109.576 81.9397 112.055 82.5112 111.591C83.0827 111.127 86.4894 106.858 88.2559 104.64C90.0223 102.421 90.8907 101.138 90.5344 100.616C89.5102 99.1303 74.6364 95.2304 78.4068 97.2529Z" fill="#45B3C2"/>
<path fill-rule="evenodd" clip-rule="evenodd" d="M89.5916 102.247C89.6704 102.082 89.7136 101.902 89.7187 101.719C89.7237 101.536 89.6905 101.355 89.6209 101.185C89.5514 101.015 89.4471 100.861 89.3144 100.732C89.1818 100.603 89.0235 100.502 88.8494 100.435C87.7954 99.8915 84.4481 98.3692 84.2254 98.6736C84.0028 98.9781 87.12 100.348 87.3872 101.783C87.6544 103.219 87.5357 103.748 86.2071 105.292C84.8786 106.836 82.6297 110.779 83.075 110.54C83.5203 110.301 88.8197 103.538 89.5916 102.247Z" fill="#54BECD"/>
<path fill-rule="evenodd" clip-rule="evenodd" d="M93.7775 107.445C93.7775 107.445 93.2282 107.887 92.011 107.126C90.7938 106.365 79.7572 97.3976 79.4678 96.564C79.4678 96.564 91.2985 102.566 93.7775 107.445Z" fill="#006B77"/>
<path fill-rule="evenodd" clip-rule="evenodd" d="M101.103 92.4683C101.103 92.4683 101.103 91.7434 99.7299 91.3302C98.3568 90.917 84.2846 88.1334 83.4014 88.4306C83.4385 88.4379 95.67 93.6281 101.103 92.4683Z" fill="#006B77"/>
<path fill-rule="evenodd" clip-rule="evenodd" d="M96.6051 101.667L98.275 98.2457L101.103 92.4465C94.3859 92.1058 89.6729 90.3732 83.4384 88.416L81.568 92.5479L79.4824 96.5639C84.9599 100.072 89.3018 102.566 93.7921 107.437L96.6051 101.667Z" fill="#36A3B2"/>
<path fill-rule="evenodd" clip-rule="evenodd" d="M97.5328 92.1784C92.5749 91.5115 88.5076 90.0689 83.431 88.4741L81.568 92.5481L79.4824 96.564C84.2028 99.5868 88.0772 101.856 91.9366 105.553C91.3503 104.146 86.8154 100.391 84.2993 98.5647C81.7832 96.738 81.5458 95.6651 82.57 95.1287C83.5942 94.5923 92.4487 100.696 94.1187 98.282C95.7887 95.8681 83.572 92.5336 83.9208 91.8159C85.3162 88.9308 94.6754 92.0116 97.5328 92.1784Z" fill="#0097A4"/>
<path fill-rule="evenodd" clip-rule="evenodd" d="M100.28 91.5479C100.332 91.6365 100.356 91.7387 100.348 91.8409C100.34 91.9432 100.301 92.0406 100.235 92.1205C99.9975 92.4032 99.1143 92.3235 99.1143 92.3235L100.361 92.4975H101.103C101.103 92.4975 101.192 91.8088 100.28 91.5479Z" fill="#E2000F"/>
<path fill-rule="evenodd" clip-rule="evenodd" d="M92.5309 107.401C92.6342 107.387 92.7303 107.341 92.8061 107.271C92.8819 107.201 92.9335 107.11 92.9539 107.01C93.0356 106.655 92.4121 106.031 92.4121 106.031L93.3325 106.872L93.7852 107.452C93.7852 107.452 93.3102 107.923 92.5309 107.401Z" fill="#36A3B2"/>
<path fill-rule="evenodd" clip-rule="evenodd" d="M86.4376 92.5626C87.0239 92.8308 93.392 95.02 94.5647 96.6583C95.7374 98.2965 94.4163 99.3476 93.1916 99.6521C91.967 99.9566 92.7686 101.247 93.1916 102.428C93.6147 103.61 93.1026 106.278 93.5627 105.705C94.0229 105.132 96.4128 100.247 97.6523 97.7311C98.8918 95.2157 99.4558 93.7587 98.9957 93.3237C97.6894 92.0552 82.3109 91.352 86.4376 92.5626Z" fill="#45B3C2"/>
<path fill-rule="evenodd" clip-rule="evenodd" d="M98.4528 95.0782C98.4937 94.9003 98.497 94.7161 98.4625 94.5369C98.4281 94.3576 98.3566 94.1872 98.2524 94.0359C98.1482 93.8846 98.0135 93.7556 97.8565 93.6569C97.6995 93.5582 97.5236 93.4917 97.3395 93.4617C96.189 93.15 92.5819 92.3598 92.4335 92.7368C92.2851 93.1137 95.6324 93.7661 96.2113 95.1144C96.7902 96.4627 96.7828 96.9992 95.8254 98.7824C94.8679 100.566 93.532 104.901 93.9105 104.582C94.289 104.263 97.9778 96.528 98.4528 95.0782Z" fill="#54BECD"/>
<path fill-rule="evenodd" clip-rule="evenodd" d="M103.834 99.1593C103.834 99.1593 103.389 99.7102 102.03 99.2173C100.672 98.7243 87.9284 92.3235 87.4385 91.5696C87.4088 91.5696 100.301 94.9259 103.834 99.1593Z" fill="#006B77"/>
<path fill-rule="evenodd" clip-rule="evenodd" d="M107.628 82.9868C107.628 82.9868 107.479 82.3054 106.039 82.1676C104.481 82.0081 90.2453 82.3199 89.4883 82.791C89.4883 82.791 102.573 85.2992 107.628 82.9868Z" fill="#006B77"/>
<path fill-rule="evenodd" clip-rule="evenodd" d="M105.319 92.9034L106.187 89.2064L107.672 82.965C101.036 84.0524 96.0563 83.3637 89.5323 82.7693L88.6045 87.1839L87.4541 91.5333C93.5847 93.795 98.3719 95.31 103.849 99.123L105.319 92.9034Z" fill="#36A3B2"/>
<path fill-rule="evenodd" clip-rule="evenodd" d="M104.064 83.4217C99.0766 83.8204 94.7941 83.2767 89.4874 82.791L88.5596 87.2057L87.4092 91.555C92.6937 93.505 96.9836 94.8968 101.57 97.6877C100.687 96.4481 95.4176 93.737 92.5601 92.4829C89.7026 91.2288 89.235 90.2357 90.1108 89.5036C90.9866 88.7714 100.984 92.8454 102.083 90.1342C103.181 87.4231 90.5116 86.749 90.6971 85.9806C91.4319 82.878 101.244 83.9074 104.064 83.4217Z" fill="#0097A4"/>
<path fill-rule="evenodd" clip-rule="evenodd" d="M106.618 82.2617C106.688 82.3371 106.733 82.4313 106.748 82.5321C106.762 82.633 106.745 82.7358 106.699 82.8271C106.536 83.1533 105.646 83.2693 105.646 83.2693L106.907 83.1678L107.649 82.9866C107.649 82.9866 107.546 82.327 106.618 82.2617Z" fill="#E2000F"/>
<path fill-rule="evenodd" clip-rule="evenodd" d="M102.573 99.3694C102.67 99.3326 102.753 99.2678 102.811 99.1836C102.87 99.0994 102.9 98.9999 102.899 98.8983C102.899 98.5358 102.157 98.0574 102.157 98.0574L103.248 98.688L103.812 99.152C103.812 99.152 103.456 99.7246 102.573 99.3694Z" fill="#36A3B2"/>
<path fill-rule="evenodd" clip-rule="evenodd" d="M93.3248 86.1836C93.9557 86.3285 100.665 87.1114 102.172 88.4598C103.679 89.8081 102.625 91.1201 101.497 91.6783C100.368 92.2365 101.437 93.3238 102.142 94.3749C102.847 95.426 102.884 98.1589 103.233 97.4992C103.582 96.8396 104.799 91.5696 105.46 88.8005C106.12 86.0313 106.343 84.538 105.801 84.2118C104.206 83.3057 89.0275 85.8791 93.3248 86.1836Z" fill="#45B3C2"/>
<path fill-rule="evenodd" clip-rule="evenodd" d="M105.616 86.0966C105.617 85.9139 105.58 85.7329 105.507 85.5648C105.433 85.3967 105.326 85.2451 105.19 85.1193C105.054 84.9936 104.893 84.8964 104.718 84.8339C104.542 84.7713 104.355 84.7446 104.168 84.7555C102.981 84.6903 99.2846 84.6903 99.2178 85.06C99.151 85.4297 102.565 85.3862 103.426 86.5751C104.287 87.7639 104.413 88.3003 103.871 90.243C103.33 92.1858 102.988 96.6946 103.292 96.2959C103.597 95.8972 105.475 87.5827 105.616 86.0966Z" fill="#54BECD"/>
<path fill-rule="evenodd" clip-rule="evenodd" d="M111.716 88.9961C111.716 88.9961 111.412 89.6195 109.98 89.4311C108.421 89.2281 94.6606 85.6761 94.0371 85.0454C94.0371 85.0454 107.36 85.5963 111.716 88.9961Z" fill="#006B77"/>
<path fill-rule="evenodd" clip-rule="evenodd" d="M111.873 72.396C111.873 72.396 111.576 71.7654 110.143 71.9321C108.585 72.1061 94.7574 75.4116 94.1191 76.035C94.1191 76.035 107.457 75.7161 111.873 72.396Z" fill="#006B77"/>
<path fill-rule="evenodd" clip-rule="evenodd" d="M111.784 82.5953V78.7969L111.843 72.396C105.608 74.8607 100.591 75.2376 94.0894 76.0205L94.1637 80.5221L94.0078 85.031C100.487 85.9444 105.505 86.4083 111.687 88.9817L111.784 82.5953Z" fill="#36A3B2"/>
<path fill-rule="evenodd" clip-rule="evenodd" d="M108.495 73.5703C103.715 75.0201 99.4107 75.3826 94.1188 76.035L94.193 80.5366L94.0371 85.0455C99.6259 85.8284 104.116 86.285 109.215 88.0393C108.08 87.0172 102.342 85.4804 99.2697 84.8642C96.1969 84.2481 95.5215 83.371 96.2192 82.4648C96.9169 81.5587 107.575 83.4362 108.05 80.5583C108.525 77.6805 96.004 79.6957 96.0114 78.9056C96.0411 75.7015 105.853 74.6359 108.495 73.5703Z" fill="#0097A4"/>
<path fill-rule="evenodd" clip-rule="evenodd" d="M110.73 71.8814C110.816 71.9392 110.883 72.0217 110.92 72.1176C110.957 72.2136 110.963 72.3184 110.938 72.4178C110.848 72.7658 110.01 73.063 110.01 73.063L111.212 72.7005L111.873 72.3743C111.873 72.3743 111.672 71.7654 110.73 71.8814Z" fill="#E2000F"/>
<path fill-rule="evenodd" clip-rule="evenodd" d="M110.565 89.46C110.653 89.4044 110.721 89.3236 110.759 89.2288C110.798 89.1341 110.805 89.0299 110.781 88.9308C110.699 88.5756 109.86 88.2639 109.86 88.2639L111.063 88.6481L111.723 88.9888C111.723 88.9888 111.501 89.6195 110.565 89.46Z" fill="#36A3B2"/>
<path fill-rule="evenodd" clip-rule="evenodd" d="M98.6389 78.5358C99.2846 78.5358 106.009 77.8907 107.775 78.891C109.542 79.8914 108.807 81.3919 107.827 82.1748C106.848 82.9577 108.132 83.7986 109.059 84.6757C109.987 85.5528 110.64 88.206 110.811 87.4956C110.982 86.7852 111.026 81.3702 111.056 78.5648C111.086 75.7595 110.974 74.2154 110.373 74.0124C108.599 73.4253 94.3564 79.1302 98.6389 78.5358Z" fill="#45B3C2"/>
<path fill-rule="evenodd" clip-rule="evenodd" d="M110.604 75.8537C110.564 75.6748 110.487 75.5058 110.378 75.3572C110.269 75.2085 110.13 75.0834 109.969 74.9895C109.808 74.8957 109.629 74.8352 109.443 74.8118C109.258 74.7883 109.069 74.8025 108.889 74.8533C107.716 75.0418 104.109 75.8174 104.124 76.1944C104.139 76.5713 107.464 75.8102 108.577 76.7888C109.691 77.7674 109.921 78.2386 109.817 80.2756C109.713 82.3125 110.388 86.7561 110.596 86.3067C110.804 85.8573 110.789 77.3397 110.604 75.8537Z" fill="#54BECD"/>
<path fill-rule="evenodd" clip-rule="evenodd" d="M116.452 76.9555C116.452 76.9555 116.296 77.637 114.849 77.7602C113.402 77.8834 99.0621 77.3832 98.3125 76.8976C98.3125 76.9048 111.435 74.5851 116.452 76.9555Z" fill="#006B77"/>
<path fill-rule="evenodd" clip-rule="evenodd" d="M112.867 60.7396C112.867 60.7396 112.437 60.1887 111.071 60.6526C109.587 61.1601 96.8506 67.3579 96.3682 68.0973C96.3682 68.0973 109.305 64.9295 112.867 60.7396Z" fill="#006B77"/>
<path fill-rule="evenodd" clip-rule="evenodd" d="M115.072 70.7069L114.255 66.9954L112.867 60.7395C107.338 64.48 102.528 65.9225 96.3682 68.0972L97.4518 72.4466L98.3127 76.8758C104.844 76.3756 109.839 75.7594 116.452 76.9338L115.072 70.7069Z" fill="#36A3B2"/>
<path fill-rule="evenodd" clip-rule="evenodd" d="M109.839 62.6099C105.497 65.0455 101.378 66.3286 96.3682 68.0974L97.4518 72.4467L98.3127 76.8759C103.939 76.4482 108.429 75.9263 113.795 76.5424C112.452 75.8175 106.514 75.5203 103.404 75.5783C100.294 75.6363 99.4038 74.9259 99.8862 73.8965C100.369 72.8672 111.183 72.4033 111.019 69.4892C110.856 66.5751 99.0698 71.2434 98.8991 70.4678C98.1643 67.3652 107.494 64.2191 109.839 62.6099Z" fill="#0097A4"/>
<path fill-rule="evenodd" clip-rule="evenodd" d="M111.634 60.5076C111.733 60.5426 111.817 60.607 111.876 60.6916C111.934 60.7762 111.964 60.8767 111.961 60.9788C111.961 61.3413 111.219 61.8124 111.219 61.8124L112.317 61.2035L112.889 60.7396C112.889 60.7396 112.525 60.1669 111.634 60.5076Z" fill="#E2000F"/>
<path fill-rule="evenodd" clip-rule="evenodd" d="M115.428 77.6804C115.5 77.6083 115.549 77.516 115.566 77.4162C115.583 77.3163 115.569 77.2137 115.524 77.1222C115.361 76.7888 114.478 76.6655 114.478 76.6655L115.732 76.7815L116.474 76.97C116.474 76.97 116.385 77.6224 115.428 77.6804Z" fill="#36A3B2"/>
<path fill-rule="evenodd" clip-rule="evenodd" d="M101.318 69.5687C101.957 69.4382 108.362 67.394 110.321 67.9594C112.281 68.5248 111.88 70.1776 111.108 71.1489C110.336 72.1203 111.769 72.664 112.867 73.3236C113.966 73.9833 115.213 76.4262 115.213 75.7013C115.213 74.9764 114.047 69.7064 113.483 66.9373C112.919 64.1682 112.422 62.7111 111.791 62.6459C109.906 62.4574 97.2957 71.0837 101.318 69.5687Z" fill="#45B3C2"/>
<path fill-rule="evenodd" clip-rule="evenodd" d="M112.407 64.3859C112.329 64.2204 112.216 64.0725 112.077 63.9513C111.937 63.8301 111.774 63.738 111.596 63.681C111.419 63.6239 111.231 63.603 111.045 63.6195C110.859 63.636 110.679 63.6896 110.515 63.777C109.409 64.2119 106.062 65.7414 106.165 66.1039C106.269 66.4663 109.335 65.0165 110.619 65.7269C111.903 66.4373 112.259 66.8795 112.615 68.8657C112.971 70.852 114.627 75.0709 114.723 74.5852C114.82 74.0995 112.919 65.7922 112.407 64.3859Z" fill="#54BECD"/>
<path fill-rule="evenodd" clip-rule="evenodd" d="M119.97 65.0671C119.97 65.0671 119.97 65.792 118.575 66.1835C117.09 66.6329 103.063 69.0831 102.246 68.7279C102.224 68.7279 114.552 63.7695 119.97 65.0671Z" fill="#006B77"/>
<path fill-rule="evenodd" clip-rule="evenodd" d="M112.986 49.9385C112.986 49.9385 112.444 49.4891 111.205 50.2285C109.965 50.9679 98.7359 59.6884 98.4316 60.5148C98.4316 60.5148 110.396 54.7664 112.986 49.9385Z" fill="#006B77"/>
<path fill-rule="evenodd" clip-rule="evenodd" d="M117.276 59.2318L115.71 55.774L113.016 49.9749C108.406 54.7664 104.013 57.1659 98.4609 60.5511L100.457 64.6106L102.254 68.7642C108.525 66.9375 113.275 65.3065 120 65.1035L117.276 59.2318Z" fill="#36A3B2"/>
<path fill-rule="evenodd" clip-rule="evenodd" d="M110.418 52.3887C106.707 55.658 102.952 57.7602 98.4316 60.5148L100.428 64.5742L102.224 68.7279C107.635 67.1549 111.91 65.7268 117.291 65.2339C115.807 64.7627 109.951 65.7268 106.9 66.4227C103.85 67.1186 102.855 66.5967 103.1 65.4949C103.345 64.393 113.832 61.7181 113.023 58.9128C112.214 56.1074 101.72 63.0664 101.386 62.3488C100.027 59.4274 108.474 54.4401 110.418 52.3887Z" fill="#0097A4"/>
<path fill-rule="evenodd" clip-rule="evenodd" d="M111.731 49.9601C111.834 49.9765 111.93 50.0236 112.004 50.095C112.079 50.1664 112.128 50.2585 112.147 50.3588C112.214 50.7213 111.583 51.3302 111.583 51.3302L112.526 50.511L112.986 49.9384C112.986 49.9384 112.526 49.4454 111.731 49.9601Z" fill="#E2000F"/>
<path fill-rule="evenodd" clip-rule="evenodd" d="M119.124 65.966C119.182 65.8828 119.213 65.7842 119.213 65.6833C119.213 65.5824 119.182 65.4839 119.124 65.4006C118.894 65.1107 118.003 65.1687 118.003 65.1687L119.257 65.0237H119.999C119.999 65.0237 120.044 65.7268 119.124 65.966Z" fill="#36A3B2"/>
<path fill-rule="evenodd" clip-rule="evenodd" d="M103.589 60.9425C104.176 60.6816 110.002 57.318 112.036 57.521C114.069 57.724 114.047 59.3695 113.52 60.4786C112.993 61.5877 114.5 61.8269 115.747 62.2473C116.994 62.6678 118.715 64.799 118.545 64.0886C118.374 63.3782 116.118 58.4416 114.938 55.8827C113.758 53.3238 112.993 51.9683 112.355 52.0335C110.455 52.2147 99.9748 63.2404 103.589 60.9425Z" fill="#45B3C2"/>
<path fill-rule="evenodd" clip-rule="evenodd" d="M113.313 53.5993C113.2 53.4534 113.059 53.3316 112.896 53.2414C112.734 53.1511 112.554 53.0944 112.369 53.0747C112.183 53.055 111.995 53.0727 111.816 53.1268C111.638 53.1809 111.473 53.2701 111.331 53.3891C110.344 54.0415 107.405 56.2234 107.575 56.5569C107.746 56.8903 110.448 54.8389 111.865 55.2811C113.283 55.7232 113.721 56.0639 114.493 57.9342C115.265 59.8044 117.796 63.5884 117.788 63.0955C117.781 62.6025 114.122 54.8679 113.313 53.5993Z" fill="#54BECD"/>
<path fill-rule="evenodd" clip-rule="evenodd" d="M119.94 52.1132C119.94 52.1132 120.088 52.7946 118.834 53.4978C117.58 54.2009 104.339 59.6087 103.448 59.4782C103.448 59.4782 114.366 52.0045 119.94 52.1132Z" fill="#006B77"/>
<path fill-rule="evenodd" clip-rule="evenodd" d="M109.773 38.8476C109.773 38.8476 109.142 38.5214 108.103 39.5073C107.064 40.4931 98.0236 51.4101 97.8975 52.309C97.8975 52.309 108.288 44.1104 109.773 38.8476Z" fill="#006B77"/>
<path fill-rule="evenodd" clip-rule="evenodd" d="M116.007 46.9955L113.669 43.9654L109.773 38.8477C106.314 44.5019 102.566 47.7857 97.8975 52.309L100.762 55.8393L103.442 59.5073C109.157 56.383 113.424 53.7806 119.934 52.1423L116.007 46.9955Z" fill="#36A3B2"/>
<path fill-rule="evenodd" clip-rule="evenodd" d="M107.784 41.7834C104.882 45.7849 101.698 48.6192 97.8975 52.309L100.762 55.8392L103.442 59.5072C108.363 56.8179 112.222 54.5054 117.358 52.8744C115.814 52.7294 110.307 54.9259 107.479 56.2597C104.652 57.5935 103.575 57.2963 103.568 56.1654C103.56 55.0346 113.217 50.1923 111.769 47.6261C110.322 45.06 101.668 54.0995 101.185 53.4688C99.2186 50.8592 106.344 44.2046 107.784 41.7834Z" fill="#0097A4"/>
<path fill-rule="evenodd" clip-rule="evenodd" d="M108.518 39.1375C108.622 39.1307 108.726 39.1556 108.815 39.2089C108.904 39.2621 108.974 39.341 109.015 39.4347C109.163 39.7682 108.681 40.5003 108.681 40.5003L109.423 39.4999L109.75 38.8475C109.75 38.8475 109.171 38.4633 108.518 39.1375Z" fill="#E2000F"/>
<path fill-rule="evenodd" clip-rule="evenodd" d="M119.316 53.1717C119.35 53.0752 119.353 52.971 119.325 52.8727C119.298 52.7745 119.24 52.6866 119.161 52.6207C118.871 52.3888 118.018 52.6207 118.018 52.6207L119.205 52.2148L119.947 52.0916C119.947 52.0916 120.163 52.7367 119.316 53.1717Z" fill="#36A3B2"/>
<path fill-rule="evenodd" clip-rule="evenodd" d="M103.033 51.584C103.553 51.1998 108.481 46.691 110.515 46.4373C112.548 46.1835 112.882 47.8073 112.593 49.0107C112.303 50.214 113.847 50.1197 115.131 50.2647C116.415 50.4097 118.582 52.1277 118.278 51.4608C117.974 50.7939 114.641 46.4735 112.912 44.2118C111.183 41.9501 110.143 40.8048 109.535 41.0005C107.776 41.6094 100.027 54.6069 103.033 51.584Z" fill="#45B3C2"/>
<path fill-rule="evenodd" clip-rule="evenodd" d="M110.878 42.3488C110.736 42.2292 110.571 42.1396 110.392 42.0855C110.213 42.0314 110.025 42.014 109.839 42.0344C109.653 42.0548 109.473 42.1126 109.311 42.2042C109.149 42.2957 109.008 42.419 108.897 42.5663C108.08 43.4144 105.698 46.1908 105.928 46.459C106.158 46.7272 108.34 44.1683 109.824 44.2843C111.309 44.4003 111.806 44.6612 112.986 46.314C114.166 47.9668 117.439 51.1273 117.358 50.6634C117.276 50.1995 111.947 43.4144 110.878 42.3488Z" fill="#54BECD"/>
<path fill-rule="evenodd" clip-rule="evenodd" d="M117.261 40.2031C117.261 40.2031 117.551 40.841 116.467 41.7762C115.383 42.7113 103.575 50.6852 102.677 50.7359C102.677 50.7359 111.784 41.218 117.261 40.2031Z" fill="#006B77"/>
<path fill-rule="evenodd" clip-rule="evenodd" d="M104.473 29.2791C104.473 29.2791 103.783 29.0834 102.989 30.2577C102.194 31.432 95.6705 43.9293 95.7299 44.8064C95.7299 44.8064 104.169 34.7158 104.473 29.2791Z" fill="#006B77"/>
<path fill-rule="evenodd" clip-rule="evenodd" d="M112.325 35.9843L109.401 33.4617L104.473 29.25C102.35 35.4986 99.3811 39.4711 95.7295 44.8063L99.2772 47.7059L102.677 50.7578C107.612 46.5099 111.256 43.1173 117.261 40.2032L112.325 35.9843Z" fill="#36A3B2"/>
<path fill-rule="evenodd" clip-rule="evenodd" d="M103.181 32.5483C101.184 37.0282 98.6682 40.4642 95.7588 44.8064L99.3065 47.706L102.706 50.7578C106.959 47.1333 110.239 44.096 114.923 41.4574C113.386 41.6313 108.458 44.8861 105.972 46.7564C103.485 48.6266 102.372 48.5614 102.127 47.4813C101.882 46.4012 110.291 39.6958 108.347 37.4704C106.402 35.245 99.8038 45.785 99.1952 45.2776C96.7237 43.1681 102.283 35.2015 103.181 32.5483Z" fill="#0097A4"/>
<path fill-rule="evenodd" clip-rule="evenodd" d="M103.338 29.8371C103.439 29.81 103.546 29.8143 103.644 29.8493C103.743 29.8844 103.828 29.9485 103.887 30.0328C104.102 30.3227 103.791 31.1419 103.791 31.1419L104.295 30.011L104.473 29.2861C104.473 29.2861 103.835 29.0179 103.338 29.8371Z" fill="#E2000F"/>
<path fill-rule="evenodd" clip-rule="evenodd" d="M116.874 41.3629C116.888 41.2609 116.87 41.1571 116.82 41.0661C116.771 40.9751 116.694 40.9014 116.6 40.8555C116.273 40.6887 115.486 41.1019 115.486 41.1019L116.57 40.464L117.26 40.1958C117.26 40.1958 117.609 40.7685 116.874 41.3629Z" fill="#36A3B2"/>
<path fill-rule="evenodd" clip-rule="evenodd" d="M100.606 43.0955C101.029 42.6243 104.904 37.2166 106.833 36.5714C108.763 35.9263 109.446 37.4341 109.416 38.6664C109.386 39.8987 110.901 39.5 112.162 39.3913C113.424 39.2826 115.94 40.5149 115.495 39.9277C115.049 39.3406 110.878 35.7813 108.718 33.9328C106.559 32.0843 105.289 31.1637 104.74 31.4826C103.137 32.3743 98.2979 46.6548 100.606 43.0955Z" fill="#45B3C2"/>
<path fill-rule="evenodd" clip-rule="evenodd" d="M106.328 32.4756C106.164 32.3871 105.984 32.3327 105.798 32.3156C105.611 32.2985 105.423 32.3192 105.246 32.3764C105.068 32.4336 104.904 32.526 104.765 32.6478C104.626 32.7697 104.513 32.9184 104.436 33.0845C103.812 34.0776 102.068 37.2599 102.372 37.4919C102.677 37.7239 104.25 34.7663 105.727 34.5923C107.204 34.4183 107.746 34.5923 109.245 35.9406C110.744 37.2889 114.656 39.7463 114.44 39.2969C114.225 38.8475 107.605 33.302 106.328 32.4756Z" fill="#54BECD"/>
<path fill-rule="evenodd" clip-rule="evenodd" d="M111.627 28.2712C111.627 28.2712 112.058 28.8367 111.211 29.982C110.365 31.1273 100.665 41.4354 99.8037 41.7109C99.8037 41.7109 106.521 30.4532 111.627 28.2712Z" fill="#006B77"/>
<path fill-rule="evenodd" clip-rule="evenodd" d="M96.6719 20.4136C96.6719 20.4136 95.9297 20.4136 95.4399 21.6966C94.95 22.9797 91.4171 36.6078 91.6843 37.4487C91.6843 37.4342 97.6145 25.7633 96.6719 20.4136Z" fill="#006B77"/>
<path fill-rule="evenodd" clip-rule="evenodd" d="M105.861 25.2342L102.439 23.4364L96.6722 20.4136C95.9894 26.9377 93.9928 31.461 91.6846 37.4487L95.7964 39.4857L99.8043 41.7256C103.656 36.5498 106.417 32.4397 111.628 28.286L105.861 25.2342Z" fill="#36A3B2"/>
<path fill-rule="evenodd" clip-rule="evenodd" d="M96.1603 23.864C95.2325 28.6701 93.5625 32.5628 91.707 37.4341L95.8189 39.4711L99.8268 41.711C103.144 37.2457 105.653 33.5777 109.624 29.9894C108.139 30.4968 104.094 34.7448 102.105 37.1007C100.116 39.4566 99.0029 39.6451 98.5056 38.623C98.0084 37.6009 104.688 29.2573 102.298 27.5103C99.9084 25.7633 95.9005 37.5211 95.188 37.1442C92.2785 35.6364 95.8931 26.6476 96.1603 23.864Z" fill="#0097A4"/>
<path fill-rule="evenodd" clip-rule="evenodd" d="M95.6709 21.1382C95.7629 21.0892 95.8684 21.0698 95.9724 21.0828C96.0764 21.0958 96.1735 21.1406 96.2498 21.2107C96.5244 21.4499 96.4057 22.3126 96.4057 22.3126L96.6358 21.102V20.3771C96.6358 20.3771 96.0049 20.2829 95.6709 21.1382Z" fill="#E2000F"/>
<path fill-rule="evenodd" clip-rule="evenodd" d="M111.516 29.4891C111.506 29.3875 111.464 29.2914 111.396 29.2137C111.328 29.1359 111.238 29.0803 111.137 29.0541C110.773 28.9599 110.105 29.5398 110.105 29.5398L111.011 28.6772L111.627 28.2712C111.627 28.2712 112.095 28.7569 111.516 29.4891Z" fill="#36A3B2"/>
<path fill-rule="evenodd" clip-rule="evenodd" d="M96.0485 34.7085C96.3528 34.1576 98.8986 28.0467 100.635 26.9811C102.372 25.9155 103.374 27.2565 103.604 28.4309C103.834 29.6052 105.222 28.9238 106.447 28.5324C107.671 28.1409 110.38 28.8151 109.816 28.3366C109.252 27.8582 104.376 25.2921 101.845 23.9872C99.3142 22.6824 97.8743 22.03 97.3919 22.4577C96.0782 23.7045 94.6086 38.6809 96.0485 34.7085Z" fill="#45B3C2"/>
<path fill-rule="evenodd" clip-rule="evenodd" d="M99.2102 23.1101C99.0298 23.0605 98.8408 23.0478 98.655 23.0727C98.4693 23.0976 98.2908 23.1596 98.1307 23.2548C97.9705 23.35 97.8321 23.4764 97.7242 23.6261C97.6162 23.7758 97.541 23.9456 97.5032 24.1249C97.1246 25.2268 96.1449 28.7063 96.4938 28.8658C96.8426 29.0252 97.7036 25.7994 99.1063 25.2993C100.509 24.7991 101.066 24.8281 102.817 25.8574C104.569 26.8868 108.955 28.3946 108.644 28.0321C108.332 27.6697 100.643 23.6392 99.2102 23.1101Z" fill="#54BECD"/>
<path fill-rule="evenodd" clip-rule="evenodd" d="M103.664 18.1155C103.664 18.1155 104.206 18.5722 103.664 19.8697C103.048 21.3195 95.9079 33.3094 95.1212 33.7298C95.0989 33.7298 99.1588 21.3195 103.664 18.1155Z" fill="#006B77"/>
<path fill-rule="evenodd" clip-rule="evenodd" d="M87.3206 13.5847C87.3206 13.5847 86.6155 13.7007 86.4003 15.0998C86.185 16.4988 85.7768 30.5111 86.2221 31.2723C86.2221 31.2868 89.4284 18.63 87.3206 13.5847Z" fill="#006B77"/>
<path fill-rule="evenodd" clip-rule="evenodd" d="M97.3624 16.3683L93.6514 15.3317L87.3426 13.5847C88.1219 20.1088 87.1719 24.9366 86.2441 31.2723L90.6974 32.3959L95.1061 33.7297C97.7186 27.8652 99.4999 23.2621 103.671 18.1153L97.3624 16.3683Z" fill="#36A3B2"/>
<path fill-rule="evenodd" clip-rule="evenodd" d="M87.5873 17.0789C87.7506 21.9647 86.9787 26.1184 86.2217 31.2724L90.6749 32.396L95.0836 33.7298C97.3102 28.6555 98.9728 24.5598 102.053 20.2177C100.739 21.0223 97.711 26.0169 96.286 28.7497C94.8609 31.4826 93.8219 31.8885 93.1093 30.9969C92.3968 30.1053 97.0727 20.5511 94.3488 19.3478C91.6249 18.1445 90.3187 30.4677 89.5468 30.2213C86.4072 29.3804 87.9436 19.8552 87.5873 17.0789Z" fill="#0097A4"/>
<path fill-rule="evenodd" clip-rule="evenodd" d="M86.5264 14.5344C86.6078 14.47 86.7072 14.4307 86.8116 14.4216C86.9161 14.4126 87.0209 14.4342 87.1127 14.4837C87.4319 14.6577 87.5061 15.5275 87.5061 15.5275L87.469 14.2952L87.3205 13.5703C87.3205 13.5703 86.6377 13.6138 86.5264 14.5344Z" fill="#E2000F"/>
<path fill-rule="evenodd" clip-rule="evenodd" d="M103.834 19.3261C103.801 19.2295 103.739 19.1452 103.655 19.0843C103.572 19.0234 103.471 18.9889 103.367 18.9854C102.996 18.9854 102.469 19.6668 102.469 19.6668L103.159 18.6447L103.671 18.1155C103.671 18.1155 104.228 18.4852 103.834 19.3261Z" fill="#36A3B2"/>
<path fill-rule="evenodd" clip-rule="evenodd" d="M89.881 27.6625C90.0591 27.0536 91.1873 20.5512 92.6494 19.1449C94.1116 17.7386 95.3882 18.8405 95.9003 19.9641C96.4124 21.0877 97.5851 20.1018 98.691 19.4639C99.7969 18.826 102.602 18.9057 101.942 18.5578C101.281 18.2098 95.9522 16.7383 93.1912 15.9699C90.4302 15.2015 88.879 14.897 88.5153 15.419C87.5059 16.9412 89.354 31.8669 89.881 27.6625Z" fill="#45B3C2"/>
<path fill-rule="evenodd" clip-rule="evenodd" d="M90.4005 15.7016C90.2168 15.6958 90.0338 15.7262 89.8624 15.7911C89.6911 15.8559 89.5349 15.9539 89.4032 16.0791C89.2715 16.2043 89.1671 16.3542 89.0962 16.5198C89.0252 16.6854 88.9892 16.8632 88.9903 17.0427C88.8641 18.2025 88.686 21.8053 89.0571 21.8923C89.4282 21.9793 89.5618 18.6375 90.8161 17.8618C92.0704 17.0862 92.6271 16.9847 94.5865 17.6081C96.5459 18.2315 101.14 18.7897 100.754 18.4708C100.368 18.1518 91.9146 15.9119 90.4005 15.7016Z" fill="#54BECD"/>
<path fill-rule="evenodd" clip-rule="evenodd" d="M93.6806 9.90234C93.6806 9.90234 94.3115 10.2358 94.0443 11.6276C93.7771 13.0194 89.4426 26.3793 88.7598 26.9592C88.7598 26.9375 89.9918 13.9835 93.6806 9.90234Z" fill="#006B77"/>
<path fill-rule="evenodd" clip-rule="evenodd" d="M78.1992 21.3413C78.7856 24.0017 79.32 26.1764 79.5575 26.4156C79.5575 26.4156 79.6168 24.1249 79.4535 21.1311L78.1992 21.3413Z" fill="#006B77"/>
<path fill-rule="evenodd" clip-rule="evenodd" d="M87.1416 9.53985L83.2673 9.31513L81.0407 9.19189C80.7883 13.8313 80.2985 20.5728 79.9199 21.073L79.1777 21.189C79.3188 22.8562 79.4301 24.5815 79.5785 26.43L84.1876 26.5895L88.7819 26.9664C90.0436 20.6888 90.771 15.8175 93.7027 9.90954L87.1416 9.53985Z" fill="#36A3B2"/>
<path fill-rule="evenodd" clip-rule="evenodd" d="M79.1562 21.1817C79.2973 22.849 79.4086 24.5742 79.557 26.4227L84.1661 26.5822L88.7604 26.9591C89.844 21.5442 90.5343 17.1803 92.5902 12.2944C91.4769 13.3528 89.6213 18.8765 88.842 21.8341C88.0627 24.7917 87.1201 25.4151 86.2369 24.6902C85.3537 23.9653 87.7955 13.6645 84.8712 13.0918C81.9469 12.5192 83.3942 24.7627 82.5852 24.7627C81.2938 24.6902 80.4106 23.1317 79.7649 21.1382L79.1562 21.1817Z" fill="#0097A4"/>
<path fill-rule="evenodd" clip-rule="evenodd" d="M94.1041 11.0549C94.0515 10.9676 93.9729 10.898 93.8788 10.8553C93.7846 10.8125 93.6795 10.7987 93.5772 10.8157C93.2061 10.881 92.835 11.6783 92.835 11.6783L93.2877 10.5258L93.6662 9.90234C93.6662 9.90234 94.312 10.1488 94.1041 11.0549Z" fill="#36A3B2"/>
<path fill-rule="evenodd" clip-rule="evenodd" d="M82.3102 22.1603C82.3547 21.5296 82.0207 14.9113 83.134 13.2657C84.2474 11.6202 85.7392 12.3814 86.4888 13.3745C87.2385 14.3676 88.1662 13.157 89.1088 12.3016C90.0514 11.4462 92.8198 10.9316 92.0776 10.7286C91.3354 10.5256 85.8283 10.2139 82.9559 10.0472C82.2137 10.0037 81.5235 9.9747 80.9446 9.96021C80.7738 12.9105 80.5141 16.4843 80.2617 18.7532C81.4121 21.8631 82.5329 24.2045 82.3102 22.1603Z" fill="#45B3C2"/>
<path fill-rule="evenodd" clip-rule="evenodd" d="M80.8262 12.6859C80.8925 12.571 80.9722 12.464 81.0637 12.367C82.1176 11.3449 82.6371 11.1346 84.6931 11.3304C86.749 11.5261 91.3729 11.0984 90.9053 10.8809C90.4377 10.6635 83.5872 10.3228 80.9746 10.3228C80.9078 11.0839 80.8262 11.8885 80.8262 12.6859Z" fill="#54BECD"/>
<path fill-rule="evenodd" clip-rule="evenodd" d="M60.2146 11.5913C63.4506 11.5913 63.51 18.1154 66.7015 18.6373C69.8929 19.1593 72.0231 12.9179 75.0958 13.8892C78.1685 14.8606 76.1497 21.1382 79.0295 22.5445C81.9092 23.9508 85.9023 18.7171 88.5149 20.5728C91.1274 22.4286 87.2383 27.7566 89.5243 29.9965C91.8103 32.2364 97.2655 28.4307 99.1729 30.9824C101.08 33.534 95.6697 37.4267 97.1541 40.2393C98.6385 43.0519 105.014 41.0802 106.016 44.0813C107.018 47.0824 100.65 49.1556 101.162 52.2799C101.674 55.4042 108.369 55.455 108.369 58.6155C108.369 61.7761 101.689 61.8268 101.162 64.9439C100.635 68.061 107.011 70.1414 106.016 73.1425C105.021 76.1436 98.594 74.1791 97.1541 76.9917C95.7142 79.8043 101.073 83.6971 99.1729 86.256C97.2729 88.8148 91.8177 85.0019 89.5243 87.2346C87.2309 89.4672 91.1348 94.8025 88.5149 96.6582C85.8949 98.514 81.9167 93.244 79.0295 94.6793C76.1423 96.1146 78.1685 102.356 75.0958 103.335C72.0231 104.313 69.9004 98.1008 66.7015 98.5937C63.5026 99.0867 63.4506 105.64 60.2146 105.64C56.9786 105.64 56.9266 99.1157 53.7351 98.5937C50.5437 98.0718 48.4135 104.313 45.3408 103.335C42.2681 102.356 44.2795 96.0856 41.3997 94.6793C38.52 93.273 34.5343 98.514 31.9217 96.6582C29.3092 94.8025 33.1983 89.4672 30.9124 87.2346C28.6264 85.0019 23.1712 88.8076 21.2637 86.256C19.3562 83.7043 24.7595 79.8043 23.2899 76.9917C21.8203 74.1791 15.43 76.1436 14.428 73.1425C13.426 70.1414 19.7867 68.0682 19.282 64.9439C18.7773 61.8196 12.0752 61.7688 12.0752 58.6155C12.0752 55.4622 18.755 55.397 19.282 52.2799C19.809 49.1628 13.4334 47.0824 14.428 44.0813C15.4225 41.0802 21.85 43.0519 23.2899 40.2393C24.7298 37.4267 19.3711 33.5268 21.2637 30.9751C23.1563 28.4235 28.6264 32.2219 30.9124 29.9893C33.1983 27.7566 29.3018 22.4286 31.9217 20.5656C34.5417 18.7026 38.52 23.9726 41.3997 22.5373C44.2795 21.102 42.2681 14.8606 45.3408 13.882C48.4135 12.9034 50.5362 19.123 53.7351 18.6301C56.9341 18.1371 56.986 11.5913 60.2146 11.5913Z" fill="url(#paint4_linear_602_4420)"/>
<path d="M99.9287 64.8177C103.438 43.2735 88.4013 23.0298 66.3428 19.6021C44.2843 16.1745 23.5574 30.8608 20.0479 52.4049C16.5384 73.9491 31.5753 94.1927 53.6337 97.6204C75.6922 101.048 96.4191 86.3618 99.9287 64.8177Z" fill="#959696"/>
<path d="M93.5473 78.0518C104.793 60.0655 98.98 36.5812 80.5644 25.5981C62.1488 14.615 38.1039 20.2921 26.8586 38.2783C15.6132 56.2645 21.4259 79.7488 39.8414 90.7319C58.257 101.715 82.302 96.038 93.5473 78.0518Z" fill="white"/>
<path d="M87.8431 86.0355C103.101 71.1336 103.101 46.9728 87.8431 32.0709C72.5855 17.169 47.8479 17.169 32.5903 32.0709C17.3326 46.9728 17.3326 71.1336 32.5903 86.0355C47.8479 100.937 72.5855 100.937 87.8431 86.0355Z" fill="url(#paint5_linear_602_4420)"/>
<path fill-rule="evenodd" clip-rule="evenodd" d="M59.5252 24.0379C60.0448 24.0379 60.5495 24.0379 61.0616 24.0379C51.8084 24.4058 43.0594 28.2548 36.6455 34.7793C30.2317 41.3039 26.65 49.9983 26.65 59.0433C26.65 68.0883 30.2317 76.7827 36.6455 83.3073C43.0594 89.8318 51.8084 93.6808 61.0616 94.0487C60.5495 94.0487 60.0448 94.0487 59.5252 94.0487C50.1001 93.9163 41.1069 90.1665 34.4898 83.61C27.8726 77.0535 24.1631 68.217 24.1631 59.0107C24.1631 49.8043 27.8726 40.9678 34.4898 34.4113C41.1069 27.8548 50.1001 24.1051 59.5252 23.9727V24.0379Z" fill="white"/>
<path d="M96.1147 62.4913C98.0591 43.1231 83.5595 25.8826 63.7289 23.9835C43.8984 22.0845 26.2463 36.246 24.3019 55.6142C22.3575 74.9823 36.8571 92.2228 56.6876 94.1219C76.5182 96.021 94.1703 81.8595 96.1147 62.4913Z" fill="url(#paint6_linear_602_4420)"/>
<path fill-rule="evenodd" clip-rule="evenodd" d="M95.9454 57.1659C95.9455 65.1851 93.1942 72.9731 88.1308 79.2859C83.0673 85.5988 75.9839 90.0722 68.012 91.9918C60.04 93.9114 51.6393 93.1665 44.1517 89.8759C36.6641 86.5853 30.5215 80.9389 26.7051 73.8386C28.7848 78.1709 31.7309 82.0532 35.3699 85.2568C39.009 88.4604 43.2674 90.9207 47.8945 92.4927C52.5217 94.0648 57.4241 94.717 62.3132 94.4108C67.2023 94.1046 71.9793 92.8463 76.363 90.7099C80.7467 88.5735 84.6485 85.6022 87.8388 81.9709C91.0291 78.3396 93.4434 74.1217 94.9396 69.5654C96.4358 65.0091 96.9836 60.2065 96.5509 55.4403C96.1182 50.6741 94.7136 46.0406 92.4199 41.8125C94.7478 46.6111 95.9522 51.8559 95.9454 57.1659Z" fill="white"/>
<path fill-rule="evenodd" clip-rule="evenodd" d="M24.6115 60.37C24.6137 52.3669 27.4046 44.6029 32.5251 38.3549C37.6456 32.1069 44.7909 27.747 52.7856 25.9923C60.7803 24.2376 69.1485 25.1927 76.5136 28.7003C83.8787 32.208 89.8023 38.0594 93.31 45.292C92.9611 44.3932 92.5678 43.516 92.167 42.6607C87.9047 34.7217 80.7053 28.6672 72.034 25.7295C63.3626 22.7918 53.871 23.1916 45.4908 26.8476C37.1106 30.5036 30.4716 37.1409 26.925 45.4088C23.3784 53.6768 23.1908 62.9539 26.4002 71.3522C25.2095 67.8077 24.6057 64.1003 24.6115 60.37Z" fill="#959696"/>
<path fill-rule="evenodd" clip-rule="evenodd" d="M60.4074 25.4007C69.3306 25.422 77.8955 28.8318 84.2913 34.9092C90.687 40.9865 94.4122 49.2549 94.6792 57.9661C94.9462 66.6774 91.7341 75.1486 85.722 81.5887C79.71 88.0288 71.3692 91.9329 62.4633 92.4756C70.8379 90.8579 78.2965 86.2543 83.3869 79.561C88.4773 72.8677 90.8353 64.5637 90.0018 56.2658C89.1684 47.9679 85.203 40.2698 78.8778 34.6703C72.5526 29.0708 64.3203 25.9706 55.7835 25.9733C55.0932 25.9733 54.4104 25.9733 53.7275 26.0313C55.9279 25.6096 58.1651 25.3983 60.4074 25.4007Z" fill="url(#paint7_linear_602_4420)"/>
<path d="M91.1086 66.0405C95.0597 49.3786 84.433 32.7431 67.3733 28.8841C50.3136 25.0252 33.281 35.404 29.3299 52.066C25.3788 68.7279 36.0054 85.3634 53.0651 89.2224C70.1248 93.0814 87.1575 82.7025 91.1086 66.0405Z" fill="url(#paint8_linear_602_4420)"/>
<path d="M60.215 88.7278C76.9966 88.7278 90.6008 75.4408 90.6008 59.0504C90.6008 42.6601 76.9966 29.373 60.215 29.373C43.4333 29.373 29.8291 42.6601 29.8291 59.0504C29.8291 75.4408 43.4333 88.7278 60.215 88.7278Z" fill="#959696"/>
<path d="M63.7462 86.898C79.4806 84.9893 90.6516 70.9842 88.6973 55.6168C86.7431 40.2493 72.4036 29.3387 56.6693 31.2474C40.9349 33.1561 29.7639 47.1612 31.7182 62.5287C33.6724 77.8962 48.0119 88.8067 63.7462 86.898Z" fill="url(#paint9_linear_602_4420)"/>
<path d="M85.839 64.8678C89.1266 51.0475 80.3208 37.2409 66.1705 34.0299C52.0203 30.8189 37.884 39.4195 34.5964 53.2398C31.3087 67.0601 40.1146 80.8667 54.2648 84.0777C68.4151 87.2887 82.5513 78.6882 85.839 64.8678Z" fill="url(#paint10_linear_602_4420)"/>
<path d="M59.1389 41.8486H50.6035V75.3752H59.1389V41.8486Z" fill="#F6F7F8"/>
<path d="M57.7066 43.2478H52.0361V73.9835H57.7066V43.2478Z" fill="#B2B3B3"/>
<path d="M70.591 41.8486H62.0557V75.3752H70.591V41.8486Z" fill="#F6F7F8"/>
<path d="M69.1587 43.2478H63.4883V73.9835H69.1587V43.2478Z" fill="#B2B3B3"/>
<defs>
<linearGradient id="paint0_linear_602_4420" x1="87.4914" y1="142.972" x2="72.6288" y2="104.754" gradientUnits="userSpaceOnUse">
<stop stop-color="#0097A4"/>
<stop offset="1" stop-color="#006B77"/>
</linearGradient>
<linearGradient id="paint1_linear_602_4420" x1="66.0188" y1="123.965" x2="91.7588" y2="99.968" gradientUnits="userSpaceOnUse">
<stop stop-color="#CCCCCE"/>
<stop offset="0.4" stop-color="#F8F8F8"/>
<stop offset="1" stop-color="#B2B3B3"/>
</linearGradient>
<linearGradient id="paint2_linear_602_4420" x1="41.4892" y1="159.681" x2="50.533" y2="114.574" gradientUnits="userSpaceOnUse">
<stop stop-color="#0097A4"/>
<stop offset="1" stop-color="#006B77"/>
</linearGradient>
<linearGradient id="paint3_linear_602_4420" x1="29.0579" y1="138.231" x2="70.5475" y2="111.661" gradientUnits="userSpaceOnUse">
<stop stop-color="#CCCCCE"/>
<stop offset="0.4" stop-color="#F8F8F8"/>
<stop offset="1" stop-color="#B2B3B3"/>
</linearGradient>
<linearGradient id="paint4_linear_602_4420" x1="43.3888" y1="85.734" x2="79.4261" y2="24.8571" gradientUnits="userSpaceOnUse">
<stop stop-color="#CCCCCE"/>
<stop offset="0.4" stop-color="#F8F8F8"/>
<stop offset="1" stop-color="#B2B3B3"/>
</linearGradient>
<linearGradient id="paint5_linear_602_4420" x1="55.8269" y1="80.0076" x2="62.8279" y2="45.0314" gradientUnits="userSpaceOnUse">
<stop stop-color="#CCCCCE"/>
<stop offset="0.4" stop-color="#F8F8F8"/>
<stop offset="1" stop-color="#B2B3B3"/>
</linearGradient>
<linearGradient id="paint6_linear_602_4420" x1="47.5594" y1="79.4407" x2="74.6429" y2="33.6912" gradientUnits="userSpaceOnUse">
<stop stop-color="#CCCCCE"/>
<stop offset="0.4" stop-color="#F8F8F8"/>
<stop offset="1" stop-color="#B2B3B3"/>
</linearGradient>
<linearGradient id="paint7_linear_602_4420" x1="62.916" y1="77.6152" x2="72.5277" y2="48.9366" gradientUnits="userSpaceOnUse">
<stop stop-color="#CCCCCE"/>
<stop offset="0.4" stop-color="#F8F8F8"/>
<stop offset="1" stop-color="#B2B3B3"/>
</linearGradient>
<linearGradient id="paint8_linear_602_4420" x1="60.8047" y1="100.344" x2="59.7143" y2="19.415" gradientUnits="userSpaceOnUse">
<stop stop-color="#CCCCCE"/>
<stop offset="0.4" stop-color="#F8F8F8"/>
<stop offset="1" stop-color="#B2B3B3"/>
</linearGradient>
<linearGradient id="paint9_linear_602_4420" x1="70.856" y1="82.5683" x2="57.9726" y2="52.7241" gradientUnits="userSpaceOnUse">
<stop stop-color="#CCCCCE"/>
<stop offset="0.4" stop-color="#F8F8F8"/>
<stop offset="1" stop-color="#B2B3B3"/>
</linearGradient>
<linearGradient id="paint10_linear_602_4420" x1="50.759" y1="72.677" x2="70.2896" y2="39.3435" gradientUnits="userSpaceOnUse">
<stop stop-color="#CCCCCE"/>
<stop offset="0.4" stop-color="#F8F8F8"/>
<stop offset="1" stop-color="#B2B3B3"/>
</linearGradient>
</defs>
</svg>
