<svg width="120" height="180" viewBox="0 0 120 180" fill="none" xmlns="http://www.w3.org/2000/svg">
<path fill-rule="evenodd" clip-rule="evenodd" d="M38.4756 82.2938L53.6759 76.0549L63.1539 72.1638L78.3468 65.9321L115.873 153.073L87.9806 142.784L76.0015 169.435L38.4756 82.2938Z" fill="url(#paint0_linear_602_4675)"/>
<path fill-rule="evenodd" clip-rule="evenodd" d="M69.8123 155.052L62.8652 138.929L71.1779 95.9021L80.5297 96.3658L69.8123 155.052Z" fill="#4E781C"/>
<path fill-rule="evenodd" clip-rule="evenodd" d="M100.547 147.414L87.981 142.784L83.1716 153.494L55.1904 79.5186L72.5061 73.2725L100.547 147.414Z" fill="url(#paint1_linear_602_4675)"/>
<path fill-rule="evenodd" clip-rule="evenodd" d="M67.8672 113.032L71.1774 95.9021L80.5292 96.3658L74.3541 130.176L67.8672 113.032Z" fill="#DF914D"/>
<path fill-rule="evenodd" clip-rule="evenodd" d="M35.3664 79.3591L51.5762 82.2938L61.685 84.1198L77.8948 87.0545L60.2451 180L42.7217 156.45L17.7168 172.305L35.3664 79.3591Z" fill="url(#paint2_linear_602_4675)"/>
<path fill-rule="evenodd" clip-rule="evenodd" d="M50.4106 166.783L42.7213 156.45L32.3379 163.037L45.178 86.8445L63.3917 89.7646L50.4106 166.783Z" fill="url(#paint3_linear_602_4675)"/>
<path fill-rule="evenodd" clip-rule="evenodd" d="M80.3732 3.3479C80.3732 3.3479 81.0634 3.52181 81.1599 4.93479C81.2564 6.34777 80.4177 20.3327 79.8907 21.0501C79.8981 21.0501 77.8274 8.18828 80.3732 3.3479Z" fill="#345511"/>
<path fill-rule="evenodd" clip-rule="evenodd" d="M63.6955 6.47095C63.6955 6.47095 63.1166 6.87673 63.5619 8.2245C64.0072 9.57227 70.0933 22.2601 70.843 22.7166C70.843 22.7456 67.8964 10.0433 63.6955 6.47095Z" fill="#345511"/>
<path fill-rule="evenodd" clip-rule="evenodd" d="M73.9461 4.55074L70.1312 5.27535L63.6963 6.47819C67.4073 11.9635 68.7581 16.6879 70.8437 22.7529L75.3489 21.7964L79.8986 21.0718C79.5423 14.688 79.0228 9.7969 80.3811 3.36963L73.9461 4.55074Z" fill="#5C8F22"/>
<path fill-rule="evenodd" clip-rule="evenodd" d="M65.5293 9.47106C67.9192 13.7607 69.1364 17.8113 70.8361 22.7459L75.3412 21.7894L79.8909 21.0648C79.5792 15.565 79.1487 11.1739 79.8909 5.94946C79.0819 7.23926 78.6737 13.0361 78.6589 16.094C78.6441 19.1518 77.9167 19.9779 76.8553 19.4851C75.794 18.9924 75.5862 8.42037 72.6025 8.53631C69.6188 8.65225 74.0869 20.2387 73.3447 20.3909C70.131 20.9778 67.1325 11.797 65.5293 9.47106Z" fill="#4E781C"/>
<path fill-rule="evenodd" clip-rule="evenodd" d="M63.4214 7.66665C63.4632 7.5729 63.5331 7.49367 63.6218 7.43936C63.7105 7.38505 63.814 7.3582 63.9187 7.36231C64.2898 7.36231 64.75 8.08692 64.75 8.08692L64.1488 7.00001L63.696 6.43481C63.696 6.43481 63.0948 6.78987 63.4214 7.66665Z" fill="#E2000F"/>
<path fill-rule="evenodd" clip-rule="evenodd" d="M81.116 4.36228C81.0431 4.28996 80.949 4.2414 80.8467 4.22325C80.7444 4.20509 80.6389 4.21822 80.5445 4.26084C80.2031 4.40576 80.0547 5.26804 80.0547 5.26804L80.2031 4.04346L80.4109 3.31885C80.4109 3.31885 81.0567 3.43478 81.116 4.36228Z" fill="#5C8F22"/>
<path fill-rule="evenodd" clip-rule="evenodd" d="M72.4615 17.9486C72.3427 17.3254 70.361 11.0213 71.0216 9.1301C71.6822 7.23888 73.3299 7.68089 74.3021 8.4055C75.2744 9.1301 75.8756 7.78958 76.5733 6.73165C77.271 5.67373 79.8019 4.55783 79.0597 4.49986C78.3175 4.44189 72.8697 5.49257 70.0493 6.02154C67.2289 6.5505 65.7 6.95628 65.5961 7.5722C65.3734 9.39821 73.9162 21.8904 72.4615 17.9486Z" fill="#6BA426"/>
<path fill-rule="evenodd" clip-rule="evenodd" d="M67.4145 7.00723C67.2425 7.07926 67.0877 7.18521 66.9596 7.31843C66.8315 7.45166 66.7331 7.60928 66.6704 7.78141C66.6076 7.95354 66.582 8.13646 66.5951 8.31871C66.6082 8.50096 66.6598 8.6786 66.7465 8.84048C67.1622 9.9274 68.654 13.2316 69.0251 13.1374C69.3962 13.0432 67.986 10.0143 68.7505 8.78976C69.5149 7.56517 69.9603 7.21736 72.0013 6.91303C74.0424 6.60869 78.4066 5.09426 77.939 4.98557C77.4714 4.87688 68.8692 6.53623 67.4145 7.00723Z" fill="#7AB626"/>
<path fill-rule="evenodd" clip-rule="evenodd" d="M69.4335 0.630615C69.4335 0.630615 70.1757 0.674092 70.5022 2.0436C70.8288 3.41311 72.7289 17.3038 72.3503 18.1081C72.3503 18.1081 67.8526 5.84779 69.4335 0.630615Z" fill="#345511"/>
<path fill-rule="evenodd" clip-rule="evenodd" d="M53.6534 6.73901C53.6534 6.73901 53.1636 7.24624 53.8613 8.48532C54.5589 9.7244 62.9607 21.0862 63.792 21.4268C63.7697 21.4268 58.4481 9.48528 53.6534 6.73901Z" fill="#345511"/>
<path fill-rule="evenodd" clip-rule="evenodd" d="M63.3401 2.98559L59.7255 4.38408L53.6543 6.73906C58.3376 11.4563 60.5865 15.8546 63.7928 21.4269L68.0382 19.6661L72.3727 18.1081C70.7918 11.9055 69.3445 7.19556 69.4558 0.630615L63.3401 2.98559Z" fill="#5C8F22"/>
<path fill-rule="evenodd" clip-rule="evenodd" d="M56.0215 9.35486C59.1907 13.1373 61.165 16.8908 63.7701 21.4268L68.0155 19.666L72.35 18.1081C70.9918 12.7605 69.73 8.52156 69.4702 3.25366C68.9284 4.66665 69.6335 10.4345 70.2124 13.4489C70.7914 16.4633 70.2124 17.398 69.0843 17.0719C67.9561 16.7459 65.7295 6.43469 62.8201 7.09408C59.9106 7.75348 66.5311 18.311 65.7889 18.6008C62.7384 19.8182 58.0254 11.3475 56.0215 9.35486Z" fill="#4E781C"/>
<path fill-rule="evenodd" clip-rule="evenodd" d="M53.5952 7.9636C53.6184 7.86443 53.6721 7.77454 53.749 7.70592C53.8259 7.6373 53.9224 7.59322 54.0257 7.57956C54.3968 7.52159 54.9905 8.17374 54.9905 8.17374L54.1964 7.21725L53.6323 6.73901C53.6323 6.73901 53.1054 7.16653 53.5952 7.9636Z" fill="#E2000F"/>
<path fill-rule="evenodd" clip-rule="evenodd" d="M70.309 1.50017C70.223 1.44157 70.1207 1.41014 70.0159 1.41014C69.911 1.41014 69.8086 1.44157 69.7227 1.50017C69.4184 1.70306 69.4406 2.57259 69.4406 2.57259L69.3516 1.348L69.4258 0.623396C69.4258 0.623396 70.1086 0.594412 70.309 1.50017Z" fill="#5C8F22"/>
<path fill-rule="evenodd" clip-rule="evenodd" d="M64.446 16.4126C64.2085 15.8257 61.0616 9.99259 61.3436 8.01441C61.6256 6.03623 63.3253 6.14492 64.4312 6.73185C65.5371 7.31879 65.8562 5.84783 66.3386 4.68121C66.8211 3.51459 69.0922 1.91321 68.3574 2.02915C67.6227 2.14509 62.4643 4.13776 59.7998 5.17395C57.1353 6.21013 55.7029 6.88402 55.74 7.50718C55.881 9.31146 66.6281 20.0429 64.446 16.4126Z" fill="#6BA426"/>
<path fill-rule="evenodd" clip-rule="evenodd" d="M57.3654 6.59423C57.2101 6.69588 57.078 6.82772 56.9774 6.98151C56.8767 7.13529 56.8097 7.30769 56.7804 7.48794C56.7512 7.66819 56.7603 7.85239 56.8073 8.02902C56.8543 8.20565 56.9382 8.37091 57.0536 8.51444C57.6771 9.50715 59.7701 12.478 60.1264 12.3186C60.4826 12.1592 58.5009 9.4202 59.0131 8.07968C59.5252 6.73915 59.9037 6.31163 61.8483 5.63775C63.7929 4.96386 67.7859 2.6886 67.2812 2.66686C66.7765 2.64512 58.731 5.86238 57.3654 6.59423Z" fill="#7AB626"/>
<path fill-rule="evenodd" clip-rule="evenodd" d="M56.8227 0.0146253C56.8227 0.0146253 57.5649 -0.0868193 58.1735 1.18124C58.7822 2.44931 63.5991 15.6734 63.4135 16.5139C63.4135 16.5139 56.3922 5.44194 56.8227 0.0146253Z" fill="#345511"/>
<path fill-rule="evenodd" clip-rule="evenodd" d="M42.6774 9.21021C42.6774 9.21021 42.3137 9.80438 43.2563 10.8768C44.1989 11.9492 54.8495 21.3401 55.7328 21.5068C55.7328 21.5068 47.9767 10.913 42.6774 9.21021Z" fill="#345511"/>
<path fill-rule="evenodd" clip-rule="evenodd" d="M51.368 3.56521L48.1394 5.66658L42.6768 9.20991C48.2656 12.8329 51.4051 16.7096 55.7321 21.5282L59.51 18.9414L63.414 16.5357C60.5416 10.7896 58.122 6.47814 56.8232 0.036377L51.368 3.56521Z" fill="#5C8F22"/>
<path fill-rule="evenodd" clip-rule="evenodd" d="M45.5713 11.2823C49.4753 14.3329 52.214 17.6009 55.7321 21.5065L59.5099 18.9197L63.4139 16.514C60.9424 11.5649 58.7974 7.67375 57.4243 2.57251C57.1942 4.07245 59.124 9.56497 60.3189 12.3909C61.5139 15.2169 61.1576 16.2603 59.9998 16.2024C58.8419 16.1444 54.4407 6.48539 51.739 7.71722C49.0374 8.94905 57.7806 17.9342 57.1052 18.369C54.3961 20.1442 47.9612 12.8185 45.5713 11.2823Z" fill="#4E781C"/>
<path fill-rule="evenodd" clip-rule="evenodd" d="M42.9067 10.4127C42.9056 10.311 42.9372 10.2115 42.9971 10.1283C43.0571 10.0451 43.1422 9.98237 43.2407 9.94897C43.5895 9.81854 44.3169 10.333 44.3169 10.333L43.3297 9.57218L42.6766 9.22437C42.6766 9.22437 42.2609 9.73159 42.9067 10.4127Z" fill="#E2000F"/>
<path fill-rule="evenodd" clip-rule="evenodd" d="M57.8693 0.688603C57.7728 0.648612 57.6659 0.638985 57.5635 0.661062C57.461 0.683138 57.3682 0.735821 57.2979 0.811786C57.0455 1.07264 57.2533 1.92768 57.2533 1.92768L56.8971 0.739325L56.8154 0.0147173C56.8154 0.0147173 57.476 -0.159188 57.8693 0.688603Z" fill="#5C8F22"/>
<path fill-rule="evenodd" clip-rule="evenodd" d="M55.3238 16.4704C54.9601 15.9414 50.6331 10.8764 50.4921 8.88374C50.351 6.89107 52.0284 6.65195 53.2382 6.99976C54.448 7.34757 54.4406 5.84039 54.6707 4.60856C54.9008 3.37672 56.7711 1.34058 56.0734 1.60143C55.3758 1.86229 50.7667 4.86217 48.3694 6.42008C45.972 7.97798 44.7325 8.92722 44.9033 9.52864C45.3931 11.2749 58.2333 19.5717 55.3238 16.4704Z" fill="#6BA426"/>
<path fill-rule="evenodd" clip-rule="evenodd" d="M46.3216 8.29684C46.1927 8.42877 46.093 8.58509 46.0285 8.75614C45.9639 8.9272 45.936 9.10935 45.9465 9.29135C45.9569 9.47335 46.0055 9.65132 46.0891 9.81428C46.1728 9.97723 46.2898 10.1217 46.4329 10.2388C47.2567 11.0866 49.9361 13.5647 50.2478 13.3401C50.5596 13.1155 48.0212 10.8547 48.2513 9.41273C48.4814 7.97076 48.7486 7.50701 50.4779 6.45633C52.2072 5.40565 55.6733 2.35505 55.1538 2.44201C54.6342 2.52896 47.472 7.31137 46.3216 8.29684Z" fill="#7AB626"/>
<path fill-rule="evenodd" clip-rule="evenodd" d="M44.6885 1.8986C44.6885 1.8986 45.3564 1.65224 46.2545 2.76813C47.1526 3.88403 54.5746 15.869 54.5672 16.7458C54.5672 16.7458 45.3936 7.29693 44.6885 1.8986Z" fill="#345511"/>
<path fill-rule="evenodd" clip-rule="evenodd" d="M32.7533 13.7026C32.7533 13.7026 32.5084 14.362 33.6588 15.2171C34.8092 16.0721 47.1892 23.1877 48.0872 23.1877C48.0872 23.1588 38.2901 14.3258 32.7533 13.7026Z" fill="#345511"/>
<path fill-rule="evenodd" clip-rule="evenodd" d="M40.0863 6.44931L37.3253 9.1521L32.7236 13.7026C38.9507 16.1735 42.825 19.3183 48.0576 23.1225L51.2194 19.8401L54.537 16.7098C50.5366 11.6375 47.2709 7.91302 44.6583 1.86255L40.0863 6.44931Z" fill="#5C8F22"/>
<path fill-rule="evenodd" clip-rule="evenodd" d="M36.0117 15.159C40.4649 17.3328 43.8345 20.0284 48.0874 23.1297L51.2492 19.8472L54.5668 16.7169C51.1156 12.3693 48.2135 8.9781 45.8088 4.25366C45.8904 5.76085 48.9186 10.7751 50.6851 13.2895C52.4515 15.8039 52.3105 16.9126 51.1675 17.0865C50.0245 17.2604 43.7009 8.67377 41.311 10.4201C38.9211 12.1664 49.3491 19.2241 48.7851 19.782C46.4768 22.0935 38.6762 16.1879 36.0117 15.159Z" fill="#4E781C"/>
<path fill-rule="evenodd" clip-rule="evenodd" d="M33.2213 14.8403C33.2003 14.7397 33.2111 14.6353 33.2522 14.5409C33.2933 14.4465 33.3627 14.3664 33.4514 14.3113C33.7705 14.1229 34.5869 14.478 34.5869 14.478L33.4588 13.92L32.7166 13.7026C32.7166 13.7026 32.4494 14.2968 33.2213 14.8403Z" fill="#E2000F"/>
<path fill-rule="evenodd" clip-rule="evenodd" d="M45.8533 2.32622C45.7506 2.30593 45.644 2.31735 45.5482 2.3589C45.4525 2.40045 45.3723 2.47007 45.3189 2.5581C45.126 2.86968 45.5045 3.6595 45.5045 3.6595L44.9107 2.57259L44.6807 1.84798C44.6807 1.84798 45.2893 1.60161 45.8533 2.32622Z" fill="#5C8F22"/>
<path fill-rule="evenodd" clip-rule="evenodd" d="M46.6396 18.3039C46.1794 17.8618 40.8875 13.7606 40.3309 11.8404C39.7742 9.92015 41.3774 9.34771 42.6317 9.44915C43.886 9.5506 43.5669 8.0724 43.5298 6.81883C43.4927 5.56526 44.9103 3.19579 44.272 3.60157C43.6337 4.00735 39.7519 7.84777 37.7331 9.84044C35.7144 11.8331 34.6975 13.0215 34.987 13.5722C35.8405 15.188 50.1354 20.7675 46.6396 18.3039Z" fill="#6BA426"/>
<path fill-rule="evenodd" clip-rule="evenodd" d="M36.1307 12.0867C36.0312 12.2416 35.9654 12.4148 35.9373 12.5955C35.9092 12.7762 35.9195 12.9607 35.9676 13.1373C36.0156 13.314 36.1003 13.4792 36.2165 13.6225C36.3327 13.7659 36.4778 13.8844 36.6428 13.9707C37.6226 14.6374 40.7621 16.5286 41.0219 16.246C41.2816 15.9634 38.3499 14.2533 38.2534 12.8041C38.1569 11.3549 38.3351 10.8332 39.8418 9.45641C41.3484 8.07966 44.0575 4.38416 43.5899 4.5943C43.1223 4.80443 37.0511 10.8984 36.1307 12.0867Z" fill="#7AB626"/>
<path fill-rule="evenodd" clip-rule="evenodd" d="M32.7754 6.35506C32.7754 6.35506 33.3766 5.97826 34.4899 6.88402C35.6032 7.78978 45.4522 17.9778 45.623 18.84C45.6378 18.84 34.6309 11.4853 32.7754 6.35506Z" fill="#345511"/>
<path fill-rule="evenodd" clip-rule="evenodd" d="M23.6536 20.3544C23.6536 20.3544 23.5646 21.0428 24.8709 21.6442C26.1771 22.2456 39.8114 26.6368 40.6872 26.4339C40.6872 26.4339 29.2053 19.8182 23.6536 20.3544Z" fill="#345511"/>
<path fill-rule="evenodd" clip-rule="evenodd" d="M29.258 11.7462L27.1724 14.949L23.6543 20.3473C30.2822 21.4777 34.7428 23.753 40.6879 26.4268L43.0704 22.6153L45.6384 18.8763C40.636 14.7533 36.6355 11.7679 32.776 6.39136L29.258 11.7462Z" fill="#5C8F22"/>
<path fill-rule="evenodd" clip-rule="evenodd" d="M27.1572 21.1008C31.9964 22.3472 35.8485 24.2601 40.6876 26.434L43.0701 22.6153L45.6381 18.8763C41.3259 15.3185 37.7559 12.6084 34.3863 8.49268C34.7945 9.94189 38.8395 14.2098 41.0662 16.3257C43.2928 18.4415 43.4338 19.5284 42.3576 19.9487C41.2814 20.369 33.2433 13.2606 31.2839 15.4562C29.3245 17.6517 41.0439 22.4124 40.606 23.079C38.8841 25.7238 29.985 21.5646 27.1572 21.1008Z" fill="#4E781C"/>
<path fill-rule="evenodd" clip-rule="evenodd" d="M24.3592 21.3617C24.3184 21.2679 24.3079 21.1643 24.3291 21.0646C24.3504 20.9649 24.4023 20.8739 24.4779 20.8037C24.7377 20.5501 25.6135 20.7313 25.6135 20.7313L24.3963 20.4414L23.6541 20.3762C23.6541 20.3762 23.4834 20.9994 24.3592 21.3617Z" fill="#E2000F"/>
<path fill-rule="evenodd" clip-rule="evenodd" d="M34.008 6.5579C33.9042 6.55885 33.8033 6.5915 33.7194 6.65128C33.6356 6.71105 33.573 6.79496 33.5405 6.89122C33.4143 7.23179 33.9561 7.92741 33.9561 7.92741L33.1471 6.98542L32.7686 6.36226C32.7686 6.36226 33.2955 5.94923 34.008 6.5579Z" fill="#5C8F22"/>
<path fill-rule="evenodd" clip-rule="evenodd" d="M38.2241 21.9921C37.6823 21.6516 31.6259 18.7314 30.661 16.9706C29.6961 15.2098 31.1434 14.3185 32.3978 14.1591C33.6521 13.9997 33.0138 12.623 32.7095 11.4056C32.4052 10.1883 33.2736 7.58694 32.7466 8.10141C32.2196 8.61588 29.2434 13.1737 27.6996 15.5504C26.1558 17.9271 25.4507 19.2821 25.8218 19.7676C26.9871 21.1661 42.1726 23.6805 38.2241 21.9921Z" fill="#6BA426"/>
<path fill-rule="evenodd" clip-rule="evenodd" d="M26.6079 18.0792C26.5447 18.2507 26.5183 18.433 26.5301 18.6148C26.5419 18.7966 26.5918 18.9742 26.6766 19.1365C26.7615 19.2988 26.8795 19.4423 27.0234 19.5584C27.1673 19.6744 27.3341 19.7604 27.5134 19.811C28.6118 20.2603 32.1002 21.4631 32.2857 21.1371C32.4713 20.811 29.2427 19.7386 28.8345 18.3401C28.4263 16.9416 28.4931 16.3909 29.6732 14.717C30.8533 13.0432 32.7014 8.92017 32.2857 9.19552C31.8701 9.47087 27.2536 16.7242 26.6079 18.0792Z" fill="#7AB626"/>
<path fill-rule="evenodd" clip-rule="evenodd" d="M21.8652 13.3403C21.8652 13.3403 22.3699 12.8476 23.6614 13.4997C24.9528 14.1519 36.8132 22.0283 37.1843 22.8254C37.1843 22.8254 24.8118 17.9633 21.8652 13.3403Z" fill="#345511"/>
<path fill-rule="evenodd" clip-rule="evenodd" d="M16.0537 28.9267C16.0537 28.9267 16.1131 29.6513 17.5381 29.9339C19.0671 30.2744 33.2357 31.6657 34.0447 31.2889C34.0299 31.3106 21.3531 27.2383 16.0537 28.9267Z" fill="#345511"/>
<path fill-rule="evenodd" clip-rule="evenodd" d="M19.6245 19.3546L18.296 22.9196L16.0693 28.9266C22.7863 28.644 27.6477 29.9194 34.0455 31.2889L35.5299 27.0209L37.2148 22.8254C31.4181 19.8546 26.8239 17.7532 21.8956 13.3403L19.6245 19.3546Z" fill="#5C8F22"/>
<path fill-rule="evenodd" clip-rule="evenodd" d="M19.6387 28.9193C24.6337 29.1222 28.8272 30.1801 34.03 31.2887L35.5144 27.0208L37.1992 22.8253C32.2042 20.2602 28.1221 18.369 23.9138 15.0503C24.656 16.3908 29.5248 19.7023 32.2042 21.2892C34.8836 22.8761 35.2324 23.9195 34.2675 24.5427C33.3027 25.1658 23.8767 19.9269 22.459 22.492C21.0414 25.0571 33.5253 27.2237 33.2507 27.9628C32.13 30.9699 22.4813 28.7816 19.6387 28.9193Z" fill="#4E781C"/>
<path fill-rule="evenodd" clip-rule="evenodd" d="M16.9671 29.7671C16.9061 29.6836 16.8732 29.5835 16.8732 29.4809C16.8732 29.3783 16.9061 29.2782 16.9671 29.1947C17.1675 28.8976 18.0656 28.8903 18.0656 28.8903L16.8038 28.8396L16.0616 28.9266C16.0616 28.9266 16.0319 29.5932 16.9671 29.7671Z" fill="#E2000F"/>
<path fill-rule="evenodd" clip-rule="evenodd" d="M23.1195 13.275C23.0172 13.2999 22.9252 13.355 22.8561 13.4328C22.787 13.5106 22.7442 13.6073 22.7336 13.7098C22.6891 14.0649 23.3645 14.6301 23.3645 14.6301L22.3699 13.9054L21.8652 13.3692C21.8652 13.3692 22.2883 12.8258 23.1195 13.275Z" fill="#5C8F22"/>
<path fill-rule="evenodd" clip-rule="evenodd" d="M30.6453 27.463C30.0441 27.2456 23.483 25.6732 22.1545 24.1515C20.8259 22.6298 22.0357 21.4632 23.2307 21.0429C24.4256 20.6227 23.4905 19.4126 22.919 18.2822C22.3475 17.1518 22.6369 14.4418 22.2361 15.0577C21.8354 15.6736 19.9353 20.7531 18.9482 23.3907C17.961 26.0282 17.5454 27.5137 18.0427 27.8977C19.5122 29.0281 34.8685 28.2818 30.6453 27.463Z" fill="#6BA426"/>
<path fill-rule="evenodd" clip-rule="evenodd" d="M18.4368 26.086C18.412 26.267 18.4257 26.4511 18.4772 26.6267C18.5287 26.8024 18.6167 26.9657 18.7359 27.1065C18.8551 27.2474 19.0027 27.3626 19.1697 27.4451C19.3366 27.5276 19.5192 27.5755 19.706 27.5859C20.8713 27.796 24.5452 28.238 24.6565 27.8757C24.7678 27.5134 21.376 27.1511 20.6634 25.8686C19.9509 24.586 19.9212 24.0426 20.6634 22.1803C21.4056 20.3181 22.3483 15.8835 21.9994 16.2458C21.6506 16.6081 18.7708 24.6295 18.4368 26.086Z" fill="#7AB626"/>
<path fill-rule="evenodd" clip-rule="evenodd" d="M12.7734 22.4414C12.7734 22.4414 13.1594 21.8544 14.5547 22.2167C16.0391 22.608 29.2801 27.7817 29.8219 28.4846C29.8219 28.4846 16.67 26.3397 12.7734 22.4414Z" fill="#345511"/>
<path fill-rule="evenodd" clip-rule="evenodd" d="M10.5244 38.89C10.5244 38.89 10.7396 39.5494 12.1869 39.5639C13.753 39.5639 27.892 37.9553 28.6045 37.3901C28.6045 37.4118 15.3339 36.122 10.5244 38.89Z" fill="#345511"/>
<path fill-rule="evenodd" clip-rule="evenodd" d="M11.9049 28.7888L11.3928 32.5423L10.5244 38.8898C17.0261 37.1942 22.0508 37.4406 28.6045 37.4406L29.1018 32.9625L29.844 28.5134C23.5278 26.8324 18.6144 25.7672 12.7733 22.4702L11.9049 28.7888Z" fill="#5C8F22"/>
<path fill-rule="evenodd" clip-rule="evenodd" d="M14.0283 38.1291C18.9566 37.2741 23.2762 37.4045 28.6052 37.4045L29.1025 32.9264L29.8447 28.4773C24.3969 27.0281 19.9957 26.0354 15.1565 23.6804C16.1585 24.8398 21.6582 27.0426 24.627 28.0281C27.5958 29.0135 28.1599 29.9628 27.3583 30.7743C26.5568 31.5859 16.2253 28.4483 15.3717 31.2453C14.5182 34.0423 27.247 33.5496 27.1134 34.3321C26.6606 37.5059 16.7893 37.39 14.0283 38.1291Z" fill="#4E781C"/>
<path fill-rule="evenodd" clip-rule="evenodd" d="M11.6006 39.5129C11.5221 39.4463 11.4671 39.3573 11.4431 39.2586C11.4191 39.1598 11.4275 39.0561 11.467 38.9622C11.6006 38.6217 12.469 38.426 12.469 38.426L11.2295 38.6434L10.5244 38.8898C10.5244 38.8898 10.6506 39.5419 11.6006 39.5129Z" fill="#E2000F"/>
<path fill-rule="evenodd" clip-rule="evenodd" d="M13.9758 22.1152C13.8828 22.1613 13.8062 22.2336 13.7559 22.3228C13.7056 22.412 13.684 22.5139 13.6938 22.6152C13.6938 22.9775 14.5176 23.3905 14.5176 23.3905L13.382 22.8616L12.7734 22.4486C12.7734 22.4486 13.0629 21.8471 13.9758 22.1152Z" fill="#5C8F22"/>
<path fill-rule="evenodd" clip-rule="evenodd" d="M24.455 34.3901C23.8093 34.3103 17.033 34.1509 15.4298 32.9408C13.8266 31.7307 14.6876 30.3395 15.7935 29.6801C16.8993 29.0207 15.6896 28.0352 14.8806 27.0498C14.0716 26.0643 13.7524 23.3398 13.5001 24.0644C13.2477 24.789 12.5129 30.1076 12.1344 32.8901C11.7559 35.6726 11.6668 37.2378 12.2383 37.4841C13.9009 38.2595 28.7598 34.3031 24.455 34.3901Z" fill="#6BA426"/>
<path fill-rule="evenodd" clip-rule="evenodd" d="M12.2236 35.6073C12.2407 35.7893 12.2958 35.9659 12.3853 36.1264C12.4749 36.2868 12.5971 36.4277 12.7445 36.5403C12.8918 36.653 13.0612 36.735 13.2422 36.7814C13.4233 36.8278 13.6121 36.8376 13.7971 36.8102C14.9846 36.7667 18.666 36.4262 18.6957 36.0856C18.7253 35.745 15.3335 36.0856 14.3612 34.9624C13.3889 33.8393 13.2108 33.3393 13.567 31.3394C13.9233 29.3395 13.8194 24.8179 13.567 25.26C13.3147 25.702 12.2236 34.1147 12.2236 35.6073Z" fill="#7AB626"/>
<path fill-rule="evenodd" clip-rule="evenodd" d="M6.15332 32.6944C6.15332 32.6944 6.40568 32.0423 7.85298 32.1148C9.41903 32.1945 23.4393 34.6146 24.1147 35.1943C24.1295 35.1943 10.7995 35.7233 6.15332 32.6944Z" fill="#345511"/>
<path fill-rule="evenodd" clip-rule="evenodd" d="M7.42188 49.2372C7.42188 49.2372 7.77072 49.8459 9.19576 49.5633C10.6208 49.2807 24.2254 44.8461 24.7821 44.1794C24.8043 44.1794 11.5485 45.5707 7.42188 49.2372Z" fill="#345511"/>
<path fill-rule="evenodd" clip-rule="evenodd" d="M6.65042 39.0782L6.93987 42.8534L7.4223 49.2372C13.4267 46.2808 18.3995 45.4982 24.8047 44.165L24.352 39.6796L24.1293 35.1798C17.5905 34.7958 12.5509 34.7378 6.16797 32.6799L6.65042 39.0782Z" fill="#5C8F22"/>
<path fill-rule="evenodd" clip-rule="evenodd" d="M10.6948 47.7953C15.3335 45.9693 19.6012 45.2519 24.7966 44.1723L24.3439 39.687L24.1212 35.1871C18.4805 34.8538 13.9679 34.7669 8.73535 33.4336C9.95999 34.3611 15.8086 35.4263 18.9184 35.7958C22.0282 36.1654 22.7779 36.9769 22.1618 37.9696C21.5458 38.9624 10.7616 37.9262 10.5389 40.8318C10.3162 43.7375 22.6146 40.7087 22.674 41.4985C22.9263 44.6578 13.2405 46.5273 10.6948 47.7953Z" fill="#4E781C"/>
<path fill-rule="evenodd" clip-rule="evenodd" d="M8.60941 49.6358C8.51863 49.5854 8.44581 49.5091 8.40071 49.4172C8.3556 49.3252 8.34038 49.222 8.35706 49.1213C8.41644 48.7663 9.22545 48.3967 9.22545 48.3967L8.06018 48.8605L7.42188 49.2373C7.42188 49.2373 7.68165 49.8532 8.60941 49.6358Z" fill="#E2000F"/>
<path fill-rule="evenodd" clip-rule="evenodd" d="M7.28128 32.1367C7.19881 32.199 7.13814 32.2847 7.10757 32.382C7.077 32.4793 7.07806 32.5835 7.11058 32.6802C7.22191 33.028 8.08287 33.2671 8.08287 33.2671L6.85081 32.9845L6.16797 32.7019C6.16797 32.7019 6.33125 32.0353 7.28128 32.1367Z" fill="#5C8F22"/>
<path fill-rule="evenodd" clip-rule="evenodd" d="M20.1144 42.0493C19.4687 42.1 12.8185 43.2884 10.9705 42.4333C9.12236 41.5783 9.73839 40.0277 10.6439 39.1726C11.5494 38.3176 10.1986 37.5785 9.204 36.7814C8.20945 35.9843 7.32623 33.3902 7.2149 34.1149C7.10357 34.8395 7.51921 40.2305 7.73445 43.0275C7.94969 45.8245 8.17977 47.3752 8.80323 47.5056C10.6068 47.9766 24.3079 41.1001 20.1144 42.0493Z" fill="#6BA426"/>
<path fill-rule="evenodd" clip-rule="evenodd" d="M8.38002 45.694C8.43692 45.8688 8.53018 46.0304 8.65395 46.1684C8.77772 46.3065 8.92934 46.4181 9.09932 46.4963C9.26931 46.5745 9.454 46.6176 9.64184 46.623C9.82969 46.6283 10.0166 46.5957 10.191 46.5273C11.3414 46.2447 14.8743 45.1795 14.8224 44.81C14.7704 44.4404 11.527 45.4621 10.3691 44.5781C9.21128 43.6941 8.88471 43.2158 8.83275 41.2014C8.7808 39.187 7.71946 34.7887 7.54875 35.2596C7.37805 35.7306 8.08314 44.2303 8.38002 45.694Z" fill="#7AB626"/>
<path fill-rule="evenodd" clip-rule="evenodd" d="M1.69922 44.6359C1.69922 44.6359 1.80313 43.9113 3.22816 43.7157C4.77937 43.4621 19 42.8824 19.7867 43.3099C19.7942 43.3099 6.89465 46.6214 1.69922 44.6359Z" fill="#345511"/>
<path fill-rule="evenodd" clip-rule="evenodd" d="M6.57617 60.5267C6.57617 60.5267 7.05118 61.0484 8.37972 60.476C9.70827 59.9035 22.0214 52.7154 22.4371 51.9329C22.4371 51.9329 9.79734 56.0849 6.57617 60.5267Z" fill="#345511"/>
<path fill-rule="evenodd" clip-rule="evenodd" d="M3.58443 50.7663L4.69773 54.3893L6.57551 60.5195C11.7709 56.3747 16.4691 54.5632 22.4364 51.9256L20.9965 47.6577L19.7867 43.3101C13.3221 44.3028 8.37906 45.3027 1.69922 44.6361L3.58443 50.7663Z" fill="#5C8F22"/>
<path fill-rule="evenodd" clip-rule="evenodd" d="M9.44818 58.4326C13.5823 55.6791 17.6124 54.085 22.4368 51.9112L20.9969 47.6577L19.7871 43.3101C14.2131 44.1651 9.77473 45.0274 4.37891 44.8245C5.77425 45.4766 11.7193 45.281 14.844 44.9911C17.9687 44.7013 18.8742 45.339 18.4808 46.3969C18.0874 47.4548 7.34774 48.7519 7.75595 51.6358C8.16416 54.5197 19.5273 48.9765 19.7574 49.7373C20.7074 52.8024 11.6525 56.6718 9.44818 58.4326Z" fill="#4E781C"/>
<path fill-rule="evenodd" clip-rule="evenodd" d="M7.82307 60.6716C7.72345 60.6418 7.63573 60.5826 7.57195 60.5021C7.50816 60.4217 7.47142 60.324 7.4668 60.2223C7.4668 59.86 8.15707 59.3311 8.15707 59.3311L7.11056 60.0557L6.57617 60.5556C6.57617 60.5556 6.96953 61.0774 7.82307 60.6716Z" fill="#E2000F"/>
<path fill-rule="evenodd" clip-rule="evenodd" d="M2.6721 43.8535C2.60419 43.9321 2.56275 44.0293 2.55346 44.1317C2.54416 44.2342 2.56744 44.3369 2.62014 44.426C2.80569 44.7375 3.69634 44.7955 3.69634 44.7955H2.43459L1.69238 44.6651C1.69238 44.6651 1.69981 43.9767 2.6721 43.8535Z" fill="#5C8F22"/>
<path fill-rule="evenodd" clip-rule="evenodd" d="M17.3818 50.8749C16.7658 51.0561 10.5387 53.6139 8.54212 53.1719C6.54559 52.7299 6.80537 51.0778 7.50304 50.0489C8.20071 49.0199 6.7163 48.5997 5.5733 48.02C4.43031 47.4403 2.99043 45.1215 3.04238 45.8461C3.09434 46.5708 4.68266 51.7517 5.50651 54.44C6.33035 57.1283 6.90184 58.5703 7.54014 58.592C9.38823 58.5992 21.2709 49.0344 17.3818 50.8749Z" fill="#6BA426"/>
<path fill-rule="evenodd" clip-rule="evenodd" d="M6.74603 56.8602C6.83759 57.0194 6.96166 57.1586 7.11054 57.269C7.25943 57.3795 7.42995 57.4589 7.61157 57.5024C7.79318 57.5458 7.98201 57.5524 8.16634 57.5218C8.35068 57.4911 8.5266 57.4238 8.6832 57.324C9.75197 56.8095 12.9657 55.0197 12.8321 54.6719C12.6985 54.3241 9.75939 55.998 8.37889 55.3965C6.99839 54.7951 6.64955 54.3821 6.15228 52.4256C5.655 50.4692 3.65105 46.3969 3.58426 46.8896C3.51746 47.3824 6.15227 55.498 6.74603 56.8602Z" fill="#7AB626"/>
<path fill-rule="evenodd" clip-rule="evenodd" d="M0 56.4615C0 56.4615 1.45103e-05 55.7369 1.31372 55.2587C2.62742 54.7805 16.5883 51.3313 17.4418 51.5922C17.4418 51.5994 5.49974 57.3963 0 56.4615Z" fill="#345511"/>
<path fill-rule="evenodd" clip-rule="evenodd" d="M8.06738 71.0625C8.06738 71.0625 8.63889 71.4828 9.819 70.6567C10.9991 69.8307 21.5681 60.3601 21.8204 59.5195C21.8204 59.5195 10.3014 66.0917 8.06738 71.0625Z" fill="#345511"/>
<path fill-rule="evenodd" clip-rule="evenodd" d="M3.10984 62.0992L4.95794 65.4324L8.06776 71.0626C12.3132 65.9903 16.5215 63.2803 21.8208 59.5196L19.5348 55.6067L17.4418 51.5996C11.3112 53.8531 6.69469 55.8023 0 56.469L3.10984 62.0992Z" fill="#5C8F22"/>
<path fill-rule="evenodd" clip-rule="evenodd" d="M10.4424 68.4467C13.9233 64.9324 17.5082 62.5774 21.8204 59.5196L19.5344 55.6067L17.4414 51.5996C12.1569 53.5416 8.00051 55.2589 2.66406 56.1212C4.14847 56.4907 9.95252 55.1212 12.951 54.2227C15.9495 53.3242 16.9738 53.7662 16.8031 54.8821C16.6324 55.998 6.3751 59.3819 7.3845 62.1282C8.39389 64.8744 18.3617 57.2081 18.7476 57.9037C20.3063 60.7079 12.2385 66.2657 10.4424 68.4467Z" fill="#4E781C"/>
<path fill-rule="evenodd" clip-rule="evenodd" d="M9.3143 70.9537C9.2106 70.9464 9.11185 70.9075 9.03197 70.8425C8.95209 70.7775 8.89509 70.6897 8.86898 70.5914C8.77249 70.2364 9.36624 69.5842 9.36624 69.5842L8.48304 70.4393L8.06738 71.0334C8.06738 71.0334 8.55726 71.5262 9.3143 70.9537Z" fill="#E2000F"/>
<path fill-rule="evenodd" clip-rule="evenodd" d="M0.786455 55.5051C0.736797 55.5959 0.716607 55.6993 0.728538 55.8015C0.740469 55.9037 0.783953 56 0.85325 56.0776C1.1056 56.3457 1.98885 56.2225 1.98885 56.2225L0.749354 56.4544H0.00714885C0.00714885 56.4544 -0.111613 55.8095 0.786455 55.5051Z" fill="#5C8F22"/>
<path fill-rule="evenodd" clip-rule="evenodd" d="M16.6475 59.4472C16.076 59.7515 10.5095 63.4905 8.48325 63.4398C6.45703 63.3891 6.34568 61.737 6.82069 60.5921C7.2957 59.4472 5.7445 59.3168 4.50502 58.9834C3.26554 58.6501 1.3729 56.643 1.5733 57.3386C1.7737 58.0342 4.40852 62.8021 5.77418 65.3093C7.13984 67.8164 8.00081 69.0772 8.61684 68.9323C10.4204 68.6207 20.0765 56.9111 16.6475 59.4472Z" fill="#6BA426"/>
<path fill-rule="evenodd" clip-rule="evenodd" d="M7.47388 67.4395C7.59709 67.577 7.74778 67.6884 7.91669 67.7669C8.0856 67.8455 8.26917 67.8895 8.45613 67.8963C8.6431 67.9031 8.82951 67.8725 9.00393 67.8064C9.17835 67.7403 9.33709 67.6401 9.47041 67.512C10.4056 66.7874 13.1814 64.4106 12.981 64.0918C12.7807 63.773 10.2423 66.0048 8.795 65.6642C7.3477 65.3237 6.88753 65.0121 5.98204 63.2006C5.07655 61.389 2.27102 57.7877 2.32298 58.2805C2.37493 58.7732 6.57581 66.2294 7.47388 67.4395Z" fill="#7AB626"/>
<path fill-rule="evenodd" clip-rule="evenodd" d="M0.957578 69.2656C0.957578 69.2656 0.764601 68.5917 1.97439 67.8164C3.18419 67.041 16.0021 60.7515 16.9001 60.8167C16.8853 60.8094 6.51669 68.9902 0.957578 69.2656Z" fill="#345511"/>
<path fill-rule="evenodd" clip-rule="evenodd" d="M12.0908 81.8084C12.0908 81.8084 12.744 82.091 13.7088 81.0403C14.6737 79.9897 22.8973 68.4974 22.9493 67.6206C22.9196 67.6206 13.1299 76.4681 12.0908 81.8084Z" fill="#345511"/>
<path fill-rule="evenodd" clip-rule="evenodd" d="M5.23234 74.1059L7.77067 76.9681L12.0606 81.8085C15.074 75.9391 18.5846 72.3886 22.9191 67.6206L19.8167 64.2874L16.8478 60.8093C11.3629 64.3092 7.28823 67.1931 0.905273 69.2655L5.23234 74.1059Z" fill="#5C8F22"/>
<path fill-rule="evenodd" clip-rule="evenodd" d="M13.8047 78.7434C16.4173 74.5841 19.3935 71.4973 22.919 67.6206L19.8166 64.2874L16.8478 60.8093C12.1199 63.8309 8.43859 66.3888 3.42871 68.3597C4.97992 68.396 10.3238 65.8381 13.0403 64.3237C15.7567 62.8092 16.87 63.0266 16.9591 64.1498C17.0482 65.2729 7.77804 70.7582 9.37378 73.2219C10.9695 75.6855 19.0224 66.0917 19.5197 66.7004C21.7389 69.1061 15.0591 76.2362 13.8047 78.7434Z" fill="#4E781C"/>
<path fill-rule="evenodd" clip-rule="evenodd" d="M13.2555 81.4388C13.1521 81.4521 13.0471 81.4335 12.9552 81.3853C12.8633 81.3372 12.7892 81.2621 12.7434 81.1707C12.5727 80.8518 12.9957 80.0837 12.9957 80.0837L12.3352 81.1344L12.0605 81.8083C12.0605 81.8083 12.6469 82.1561 13.2555 81.4388Z" fill="#E2000F"/>
<path fill-rule="evenodd" clip-rule="evenodd" d="M1.49853 68.1641C1.46947 68.263 1.47242 68.3683 1.50695 68.4656C1.54149 68.5629 1.60593 68.6473 1.69149 68.7075C1.99579 68.9177 2.82706 68.6133 2.82706 68.6133L1.66922 69.0988L0.927016 69.2655C0.927016 69.2655 0.682103 68.6568 1.49853 68.1641Z" fill="#5C8F22"/>
<path fill-rule="evenodd" clip-rule="evenodd" d="M17.8509 68.6495C17.361 69.0625 12.7593 73.8957 10.7554 74.287C8.75144 74.6783 8.29127 73.0769 8.52878 71.8595C8.76628 70.6422 7.19281 70.8378 5.9088 70.7726C4.62478 70.7074 2.33137 69.1495 2.6802 69.7944C3.02904 70.4393 6.66584 74.5261 8.54361 76.6492C10.4214 78.7723 11.5495 79.852 12.1359 79.6128C13.8207 78.9245 20.6416 65.4468 17.8509 68.6495Z" fill="#6BA426"/>
<path fill-rule="evenodd" clip-rule="evenodd" d="M10.6803 78.4101C10.8308 78.5182 11.0023 78.595 11.1844 78.6357C11.3664 78.6765 11.5551 78.6803 11.7388 78.647C11.9224 78.6138 12.0972 78.5441 12.2521 78.4422C12.4071 78.3404 12.539 78.2086 12.6397 78.055C13.3819 77.1565 15.6085 74.2436 15.3116 73.9755C15.0148 73.7074 13.085 76.4247 11.6006 76.4029C10.1162 76.3812 9.59667 76.1638 8.31266 74.5842C7.02865 73.0045 3.49575 70.0916 3.64419 70.5626C3.79263 71.0336 9.52988 77.4029 10.6803 78.4101Z" fill="#7AB626"/>
<path fill-rule="evenodd" clip-rule="evenodd" d="M4.6679 81.4606C4.6679 81.4606 4.32648 80.8447 5.33587 79.8302C6.34527 78.8158 17.4783 69.9756 18.369 69.8596C18.369 69.8596 10.0489 80.0331 4.6679 81.4606Z" fill="#345511"/>
<path fill-rule="evenodd" clip-rule="evenodd" d="M18.2957 91.3733C18.2957 91.3733 18.9934 91.5183 19.7059 90.2864C20.4184 89.0546 25.9033 76.1059 25.7697 75.2363C25.7697 75.2363 18.1621 85.9315 18.2957 91.3733Z" fill="#345511"/>
<path fill-rule="evenodd" clip-rule="evenodd" d="M9.92374 85.2865L13.041 87.5545L18.2958 91.3732C19.9435 85.0112 22.5932 80.8302 25.7698 75.2362L21.9994 72.6131L18.37 69.8379C13.7906 74.4029 10.4433 78.0767 4.66895 81.4316L9.92374 85.2865Z" fill="#5C8F22"/>
<path fill-rule="evenodd" clip-rule="evenodd" d="M19.319 88.0183C20.9445 83.4025 23.1859 79.7867 25.7688 75.2362L21.9984 72.6131L18.369 69.8379C14.4205 73.7725 11.3923 77.084 6.93164 80.0331C8.45316 79.736 13.1068 76.1202 15.4299 74.0696C17.753 72.019 18.8811 71.9972 19.2151 73.0769C19.5491 74.1566 11.704 81.4533 13.8119 83.5257C15.9198 85.5981 21.6273 74.5406 22.2804 75.0116C24.9079 76.9608 19.9944 85.3083 19.319 88.0183Z" fill="#4E781C"/>
<path fill-rule="evenodd" clip-rule="evenodd" d="M19.3787 90.7646C19.2799 90.7975 19.1733 90.8006 19.0727 90.7735C18.9721 90.7463 18.8821 90.6902 18.8147 90.6125C18.5772 90.3299 18.8147 89.4966 18.8147 89.4966L18.399 90.6632L18.2803 91.3878C18.2803 91.3878 18.9408 91.5907 19.3787 90.7646Z" fill="#E2000F"/>
<path fill-rule="evenodd" clip-rule="evenodd" d="M4.96567 80.2722C4.9604 80.3746 4.98747 80.476 5.04323 80.5629C5.09898 80.6497 5.18075 80.7177 5.27741 80.7577C5.61882 80.9026 6.36845 80.4316 6.36845 80.4316L5.3442 81.1562L4.67622 81.4751C4.67622 81.4751 4.28284 80.9244 4.96567 80.2722Z" fill="#5C8F22"/>
<path fill-rule="evenodd" clip-rule="evenodd" d="M21.0417 77.3086C20.6557 77.8158 17.2267 83.4967 15.3564 84.301C13.486 85.1053 12.6844 83.6416 12.6102 82.4098C12.536 81.178 11.0887 81.6852 9.81952 81.9026C8.55035 82.12 5.96747 81.0693 6.44991 81.62C6.93234 82.1707 11.3856 85.4024 13.6864 87.0835C15.9872 88.7646 17.3306 89.5834 17.8502 89.2211C19.3717 88.1922 23.0605 73.5913 21.0417 77.3086Z" fill="#6BA426"/>
<path fill-rule="evenodd" clip-rule="evenodd" d="M16.1879 88.3298C16.3568 88.4054 16.5397 88.4466 16.7254 88.4508C16.9111 88.4551 17.0958 88.4223 17.2681 88.3545C17.4404 88.2866 17.5967 88.1852 17.7275 88.0563C17.8582 87.9275 17.9607 87.774 18.0286 87.6051C18.563 86.569 20.0548 83.2575 19.7282 83.0546C19.4017 82.8517 18.0805 85.9168 16.6184 86.2139C15.1562 86.511 14.607 86.4023 13.0039 85.1342C11.4007 83.8662 7.30373 81.7503 7.55608 82.1851C7.80843 82.6198 14.8519 87.6051 16.1879 88.3298Z" fill="#7AB626"/>
<path fill-rule="evenodd" clip-rule="evenodd" d="M11.1037 92.7429C11.1037 92.7429 10.6361 92.2139 11.3932 91.011C12.1502 89.8082 21.0419 78.8014 21.8806 78.4971C21.8806 78.4971 16.032 90.1995 11.1037 92.7429Z" fill="#345511"/>
<path fill-rule="evenodd" clip-rule="evenodd" d="M26.6157 99.5108C26.6157 99.5108 27.3579 99.5108 27.7513 98.1485C28.204 96.6993 30.631 82.9897 30.3044 82.1709C30.3044 82.1709 25.2723 94.2284 26.6157 99.5108Z" fill="#345511"/>
<path fill-rule="evenodd" clip-rule="evenodd" d="M17.0859 95.3514L20.6336 96.9021L26.6158 99.5107C26.8013 92.9457 28.4565 88.3083 30.3268 82.1708L26.0665 80.4318L21.9028 78.4971C18.4515 83.9316 16.0097 88.2286 11.126 92.7429L17.0859 95.3514Z" fill="#5C8F22"/>
<path fill-rule="evenodd" clip-rule="evenodd" d="M26.8677 96.0181C27.4244 91.1632 28.7974 87.1634 30.3041 82.1708L26.0438 80.4318L21.8801 78.4971C18.9113 83.1853 16.6847 87.0257 12.9736 90.8806C14.3987 90.272 18.1245 85.7504 19.9355 83.2505C21.7465 80.7506 22.8375 80.497 23.409 81.4752C23.9805 82.4534 17.9538 91.2574 20.4402 92.8298C22.9266 94.4022 26.0587 82.3882 26.8009 82.6853C29.844 84.0186 26.9345 93.2211 26.8677 96.0181Z" fill="#4E781C"/>
<path fill-rule="evenodd" clip-rule="evenodd" d="M27.544 98.6989C27.4576 98.7565 27.3554 98.7874 27.2508 98.7874C27.1462 98.7874 27.044 98.7565 26.9576 98.6989C26.6608 98.4743 26.7201 97.6047 26.7201 97.6047L26.5791 98.8293L26.6162 99.5539C26.6162 99.5539 27.2991 99.5829 27.544 98.6989Z" fill="#E2000F"/>
<path fill-rule="evenodd" clip-rule="evenodd" d="M11.1254 91.5182C11.1452 91.6194 11.1952 91.7127 11.2692 91.7862C11.3432 91.8597 11.4378 91.9102 11.5411 91.9312C11.9048 91.9965 12.5282 91.3733 12.5282 91.3733L11.6895 92.2935L11.1106 92.7428C11.1106 92.7428 10.6059 92.3008 11.1254 91.5182Z" fill="#5C8F22"/>
<path fill-rule="evenodd" clip-rule="evenodd" d="M26.1921 85.1994C25.9323 85.7791 23.8541 92.0542 22.2065 93.2353C20.5588 94.4164 19.4455 93.1556 19.104 91.9673C18.7626 90.7789 17.4563 91.5977 16.2688 92.0759C15.0813 92.5542 12.3203 92.0759 12.9215 92.5179C13.5227 92.96 18.5771 95.1555 21.197 96.3004C23.817 97.4453 25.3163 97.967 25.7468 97.5033C26.9343 96.17 27.2906 81.1416 26.1921 85.1994Z" fill="#6BA426"/>
<path fill-rule="evenodd" clip-rule="evenodd" d="M23.8846 96.9889C24.068 97.0253 24.257 97.0245 24.4401 96.9865C24.6231 96.9485 24.7962 96.8743 24.9487 96.7683C25.1011 96.6623 25.2296 96.5268 25.3261 96.3703C25.4227 96.2138 25.4853 96.0396 25.51 95.8586C25.7995 94.7354 26.512 91.1921 26.1557 91.0617C25.7995 90.9312 25.1834 94.2064 23.8252 94.8006C22.467 95.3948 21.9029 95.4093 20.0548 94.518C18.2067 93.6268 13.7386 92.4384 14.08 92.8007C14.4215 93.163 22.415 96.5687 23.8846 96.9889Z" fill="#7AB626"/>
<path fill-rule="evenodd" clip-rule="evenodd" d="M19.8315 102.322C19.8315 102.322 19.26 101.909 19.7202 100.568C20.2249 99.1193 26.4 86.6125 27.1868 86.1343C27.1868 86.1198 24.0769 98.7859 19.8315 102.322Z" fill="#345511"/>
<path fill-rule="evenodd" clip-rule="evenodd" d="M36.4795 105.633C36.4795 105.633 37.1698 105.467 37.2811 104.061C37.3999 102.539 36.7245 88.6559 36.2272 87.9241C36.2272 87.9241 33.9857 100.764 36.4795 105.633Z" fill="#345511"/>
<path fill-rule="evenodd" clip-rule="evenodd" d="M26.2511 103.59L30.0586 104.351L36.4787 105.633C35.2021 99.1845 35.781 94.3079 36.2264 87.9241L31.6841 87.1053L27.1863 86.0908C25.0265 92.1268 23.594 96.844 19.8311 102.279L26.2511 103.59Z" fill="#5C8F22"/>
<path fill-rule="evenodd" clip-rule="evenodd" d="M35.9447 102.17C35.4103 97.315 35.863 93.1123 36.2267 87.9241L31.6844 87.1053L27.1867 86.0908C25.3237 91.2935 24.0026 95.5107 21.249 100.061C22.5033 99.17 25.1382 93.9601 26.348 91.1413C27.5578 88.3226 28.5746 87.8371 29.3168 88.6777C30.059 89.5182 26.1921 99.4236 29.0125 100.409C31.8329 101.395 32.1817 89.0255 32.9759 89.1849C36.1896 89.8225 35.3806 99.4236 35.9447 102.17Z" fill="#4E781C"/>
<path fill-rule="evenodd" clip-rule="evenodd" d="M37.192 104.626C37.1191 104.699 37.025 104.747 36.9227 104.765C36.8204 104.784 36.7149 104.77 36.6205 104.728C36.2791 104.576 36.1455 103.713 36.1455 103.713L36.2791 104.938L36.4795 105.663C36.4795 105.663 37.1549 105.561 37.192 104.626Z" fill="#E2000F"/>
<path fill-rule="evenodd" clip-rule="evenodd" d="M19.5795 101.112C19.6188 101.207 19.6868 101.287 19.7744 101.343C19.8619 101.398 19.9649 101.427 20.0693 101.424C20.4404 101.424 20.9154 100.699 20.9154 100.699L20.2994 101.771L19.8392 102.337C19.8392 102.337 19.2455 101.982 19.5795 101.112Z" fill="#5C8F22"/>
<path fill-rule="evenodd" clip-rule="evenodd" d="M32.8723 91.7573C32.7387 92.3804 32.1301 98.9454 30.7645 100.453C29.3988 101.96 28.0554 100.96 27.4542 99.8729C26.8531 98.7859 25.7694 99.8729 24.7081 100.597C23.6467 101.322 20.856 101.445 21.5389 101.742C22.2217 102.039 27.6472 103.119 30.4453 103.684C33.2434 104.249 34.8318 104.409 35.1509 103.894C36.0712 102.322 33.0579 87.5545 32.8723 91.7573Z" fill="#6BA426"/>
<path fill-rule="evenodd" clip-rule="evenodd" d="M33.2506 103.771C33.4379 103.768 33.6224 103.727 33.7929 103.651C33.9633 103.575 34.1159 103.466 34.2412 103.33C34.3665 103.194 34.4618 103.035 34.5212 102.861C34.5806 102.688 34.6029 102.504 34.5865 102.322C34.5865 101.155 34.5272 97.5541 34.1486 97.4961C33.7701 97.4381 33.8963 100.771 32.6642 101.641C31.4322 102.51 30.9275 102.648 28.9532 102.163C26.9789 101.677 22.3253 101.438 22.741 101.75C23.1566 102.061 31.7216 103.648 33.2506 103.771Z" fill="#7AB626"/>
<path fill-rule="evenodd" clip-rule="evenodd" d="M30.4452 109.785C30.4452 109.785 29.792 109.496 29.9479 108.097C30.126 106.575 33.4065 93.0542 34.0448 92.4238C34.0448 92.4238 33.8148 105.445 30.4452 109.785Z" fill="#345511"/>
<path fill-rule="evenodd" clip-rule="evenodd" d="M47.4339 109.517C47.4339 109.517 48.0722 109.213 47.8718 107.815C47.6491 106.3 43.9158 92.8877 43.2627 92.2791C43.2627 92.2791 43.9233 105.286 47.4339 109.517Z" fill="#345511"/>
<path fill-rule="evenodd" clip-rule="evenodd" d="M36.999 109.684L40.8807 109.619L47.4344 109.517C44.7624 103.496 44.2429 98.6049 43.2632 92.2791L38.6541 92.4674L34.045 92.424C33.3028 98.7788 32.9169 103.677 30.4453 109.815L36.999 109.684Z" fill="#5C8F22"/>
<path fill-rule="evenodd" clip-rule="evenodd" d="M46.1427 106.249C44.5544 101.619 44.0645 97.4238 43.263 92.2791L38.6539 92.4674L34.0448 92.424C33.3768 97.902 33.0205 102.3 31.3506 107.322C32.3748 106.184 33.7999 100.54 34.3565 97.5325C34.9132 94.5253 35.7964 93.837 36.7316 94.4891C37.6667 95.1413 36.0265 105.605 38.9582 105.989C41.8899 106.373 39.5297 94.2065 40.3387 94.1993C43.6489 94.1485 44.9849 103.692 46.1427 106.249Z" fill="#4E781C"/>
<path fill-rule="evenodd" clip-rule="evenodd" d="M47.9088 108.387C47.8514 108.472 47.7689 108.539 47.6723 108.577C47.5756 108.616 47.4692 108.626 47.367 108.604C47.0033 108.525 46.6768 107.713 46.6768 107.713L47.0776 108.88L47.4338 109.517C47.4338 109.517 48.0795 109.3 47.9088 108.387Z" fill="#E2000F"/>
<path fill-rule="evenodd" clip-rule="evenodd" d="M29.9033 108.67C29.9642 108.752 30.0491 108.815 30.147 108.85C30.245 108.885 30.3514 108.89 30.4525 108.865C30.8162 108.778 31.1131 107.952 31.1131 107.952L30.7494 109.133L30.4228 109.786C30.4228 109.786 29.7994 109.568 29.9033 108.67Z" fill="#5C8F22"/>
<path fill-rule="evenodd" clip-rule="evenodd" d="M40.8211 96.7354C40.8211 97.3658 41.6672 103.916 40.6801 105.67C39.6929 107.423 38.1491 106.735 37.3253 105.8C36.5014 104.866 35.6702 106.141 34.8018 107.061C33.9334 107.981 31.2244 108.699 31.9517 108.844C32.6791 108.989 38.2308 108.902 41.1031 108.844C43.9754 108.786 45.5563 108.655 45.7419 108.061C46.2985 106.351 40.0863 92.5907 40.8211 96.7354Z" fill="#6BA426"/>
<path fill-rule="evenodd" clip-rule="evenodd" d="M43.8642 108.365C44.0453 108.321 44.2153 108.242 44.3637 108.131C44.5122 108.021 44.6361 107.882 44.7277 107.723C44.8194 107.565 44.877 107.389 44.897 107.208C44.917 107.027 44.8989 106.844 44.844 106.67C44.6287 105.525 43.7381 102.025 43.3596 102.047C42.981 102.068 43.842 105.3 42.8697 106.394C41.8974 107.489 41.3853 107.742 39.3294 107.699C37.2735 107.655 32.7015 108.423 33.1691 108.604C33.6367 108.786 42.3502 108.583 43.8642 108.365Z" fill="#7AB626"/>
<path fill-rule="evenodd" clip-rule="evenodd" d="M42.8846 114.967C42.8846 114.967 42.1795 114.836 42.0163 113.43C41.8307 111.909 41.9494 98.0108 42.417 97.2644C42.417 97.2499 45.1706 110.003 42.8846 114.967Z" fill="#345511"/>
<path fill-rule="evenodd" clip-rule="evenodd" d="M59.3838 111.017C59.3838 111.017 59.9404 110.583 59.3838 109.264C58.8271 107.815 52.1176 95.576 51.3457 95.1267C51.3754 95.1122 54.9899 107.648 59.3838 111.017Z" fill="#345511"/>
<path fill-rule="evenodd" clip-rule="evenodd" d="M49.2453 113.437L53.0157 112.532L59.3838 111.003C55.3982 105.713 53.7802 101.061 51.3754 95.1121L46.9222 96.3004L42.417 97.2497C43.1147 103.612 43.9014 108.467 42.8846 114.952L49.2453 113.437Z" fill="#5C8F22"/>
<path fill-rule="evenodd" clip-rule="evenodd" d="M57.365 108.119C54.7524 103.96 53.3126 99.9744 51.3606 95.134L46.9073 96.3224L42.417 97.2499C43.0182 102.728 43.6862 107.097 43.2037 112.351C43.946 111.017 44.0424 105.213 43.894 102.155C43.7456 99.0976 44.4507 98.2426 45.5194 98.6774C46.5882 99.1121 47.3675 109.662 50.3438 109.394C53.32 109.126 48.2062 97.8006 48.9929 97.5977C52.1696 96.8441 55.6654 105.858 57.365 108.119Z" fill="#4E781C"/>
<path fill-rule="evenodd" clip-rule="evenodd" d="M59.5911 109.8C59.5568 109.896 59.4926 109.979 59.4074 110.038C59.3221 110.096 59.2202 110.127 59.116 110.126C58.7449 110.126 58.2402 109.402 58.2402 109.402L58.9008 110.452L59.3907 110.996C59.3907 110.996 59.9622 110.655 59.5911 109.8Z" fill="#E2000F"/>
<path fill-rule="evenodd" clip-rule="evenodd" d="M42.127 113.988C42.2053 114.057 42.303 114.102 42.4076 114.116C42.5121 114.13 42.6186 114.114 42.7133 114.068C43.0399 113.901 43.1438 113.032 43.1438 113.032L43.0621 114.264L42.884 114.988C42.884 114.988 42.2086 114.916 42.127 113.988Z" fill="#5C8F22"/>
<path fill-rule="evenodd" clip-rule="evenodd" d="M50.0104 99.9887C50.1663 100.605 52.4746 106.8 51.9179 108.72C51.3612 110.64 49.6913 110.314 48.6819 109.582C47.6725 108.851 47.1455 110.307 46.5072 111.365C45.8689 112.423 43.3974 113.742 44.1396 113.72C44.8818 113.698 50.2702 112.416 53.046 111.742C55.8219 111.068 57.336 110.59 57.3879 109.967C57.5512 108.162 48.3553 96.1048 50.0104 99.9887Z" fill="#6BA426"/>
<path fill-rule="evenodd" clip-rule="evenodd" d="M55.6353 110.655C55.8023 110.574 55.9504 110.46 56.0705 110.32C56.1907 110.181 56.2803 110.019 56.3338 109.845C56.3874 109.67 56.4037 109.487 56.3819 109.306C56.36 109.125 56.3005 108.95 56.2068 108.793C55.7318 107.728 54.0618 104.503 53.6982 104.612C53.3345 104.721 54.9079 107.677 54.2103 108.959C53.5126 110.242 53.0821 110.59 51.0559 110.996C49.0297 111.401 44.762 113.169 45.2667 113.22C45.7714 113.271 54.2103 111.206 55.6353 110.655Z" fill="#7AB626"/>
<path fill-rule="evenodd" clip-rule="evenodd" d="M56.4371 117.329C56.4371 117.329 55.6949 117.329 55.2348 116.017C54.7746 114.706 51.5757 101.018 51.8652 100.192C51.8652 100.192 57.5133 111.988 56.4371 117.329Z" fill="#345511"/>
<path fill-rule="evenodd" clip-rule="evenodd" d="M71.5858 109.807C71.5858 109.807 72.0237 109.257 71.2073 108.083C70.3909 106.909 60.9426 96.3658 60.0742 96.105C60.0891 96.105 66.5314 107.51 71.5858 109.807Z" fill="#345511"/>
<path fill-rule="evenodd" clip-rule="evenodd" d="M62.2784 114.423L65.7445 112.706L71.5856 109.807C66.4718 105.539 63.8147 101.366 60.0889 96.105L56.029 98.2788L51.8652 100.228C54.0251 106.264 55.9177 110.815 56.4372 117.365L62.2784 114.423Z" fill="#5C8F22"/>
<path fill-rule="evenodd" clip-rule="evenodd" d="M68.9582 107.394C65.4402 103.916 63.1171 100.358 60.0889 96.0759L56.029 98.2498L51.8652 100.199C53.7282 105.402 55.3907 109.503 56.1477 114.727C56.556 113.278 55.2942 107.59 54.4407 104.648C53.5872 101.706 54.0696 100.706 55.1829 100.895C56.2962 101.083 59.5471 111.184 62.3749 110.264C65.2027 109.343 57.5951 99.4309 58.315 99.0685C61.269 97.6121 66.7687 105.619 68.9582 107.394Z" fill="#4E781C"/>
<path fill-rule="evenodd" clip-rule="evenodd" d="M71.5039 108.583C71.4914 108.685 71.4469 108.781 71.3765 108.857C71.3061 108.934 71.2132 108.987 71.1106 109.01C70.7543 109.097 70.0938 108.503 70.0938 108.503L70.977 109.38L71.5856 109.807C71.5856 109.807 72.068 109.336 71.5039 108.583Z" fill="#E2000F"/>
<path fill-rule="evenodd" clip-rule="evenodd" d="M55.4795 116.539C55.57 116.59 55.6746 116.612 55.7785 116.601C55.8825 116.591 55.9804 116.549 56.0584 116.481C56.3404 116.249 56.244 115.38 56.244 115.38L56.4444 116.597V117.322C56.4444 117.322 55.769 117.423 55.4795 116.539Z" fill="#5C8F22"/>
<path fill-rule="evenodd" clip-rule="evenodd" d="M59.8956 101.156C60.1851 101.721 63.8812 107.242 63.7848 109.235C63.6883 111.228 61.9886 111.278 60.8159 110.793C59.6433 110.307 59.48 111.807 59.1089 113.017C58.7378 114.227 56.6225 116.017 57.3647 115.836C58.1069 115.655 63.0277 113.198 65.5883 111.93C68.1489 110.662 69.4997 109.851 69.4033 109.235C69.1361 107.445 57.3647 97.7426 59.8956 101.156Z" fill="#6BA426"/>
<path fill-rule="evenodd" clip-rule="evenodd" d="M67.8522 110.293C67.9972 110.177 68.1163 110.034 68.202 109.871C68.2876 109.709 68.3379 109.531 68.3497 109.349C68.3616 109.166 68.3347 108.984 68.2708 108.812C68.2069 108.64 68.1073 108.483 67.9783 108.351C67.2361 107.423 64.8908 104.655 64.5568 104.844C64.2228 105.032 66.4494 107.561 66.0412 108.967C65.633 110.372 65.299 110.807 63.4509 111.648C61.6028 112.488 57.8176 115.133 58.3223 115.104C58.827 115.075 66.5978 111.14 67.8522 110.293Z" fill="#7AB626"/>
<path fill-rule="evenodd" clip-rule="evenodd" d="M69.708 116.691C69.708 116.691 69.0177 116.865 68.2236 115.669C67.4294 114.474 61.284 101.822 61.373 100.953C61.3953 100.953 69.5596 111.249 69.708 116.691Z" fill="#345511"/>
<path fill-rule="evenodd" clip-rule="evenodd" d="M82.7923 106.105C82.7923 106.105 83.0966 105.474 82.0501 104.511C81.0036 103.547 69.4326 95.279 68.5049 95.2065C68.4975 95.2065 77.3445 104.953 82.7923 106.105Z" fill="#345511"/>
<path fill-rule="evenodd" clip-rule="evenodd" d="M74.755 112.611L77.7238 110.191L82.7708 106.104C76.8332 103.039 73.2929 99.5395 68.476 95.2354L65.0024 98.1918L61.373 100.981C64.8391 106.402 67.7041 110.445 69.6857 116.72L74.755 112.611Z" fill="#5C8F22"/>
<path fill-rule="evenodd" clip-rule="evenodd" d="M79.6973 104.344C75.489 101.706 72.4163 98.7281 68.4974 95.2065L65.0239 98.1629L61.3945 100.953C64.3634 105.626 66.924 109.278 68.8166 114.213C68.8908 112.699 66.3822 107.431 64.8903 104.735C63.3985 102.04 63.6434 100.974 64.8012 100.916C65.9591 100.858 71.3623 110.018 73.923 108.51C76.4836 107.003 66.8275 98.9673 67.4435 98.4673C69.9818 96.4239 77.159 103.047 79.6973 104.344Z" fill="#4E781C"/>
<path fill-rule="evenodd" clip-rule="evenodd" d="M82.4442 104.931C82.4533 105.033 82.4306 105.135 82.3789 105.224C82.3273 105.314 82.2491 105.386 82.1548 105.431C81.8282 105.59 81.0488 105.155 81.0488 105.155L82.1102 105.822L82.793 106.105C82.793 106.105 83.1567 105.547 82.4442 104.931Z" fill="#E2000F"/>
<path fill-rule="evenodd" clip-rule="evenodd" d="M68.6016 116.126C68.7002 116.158 68.8065 116.158 68.9052 116.126C69.0039 116.095 69.0899 116.034 69.1508 115.952C69.3734 115.662 69.084 114.836 69.084 114.836L69.559 115.981L69.7149 116.706C69.7149 116.706 69.084 116.93 68.6016 116.126Z" fill="#5C8F22"/>
<path fill-rule="evenodd" clip-rule="evenodd" d="M69.4482 100.148C69.8564 100.634 74.703 105.221 75.0593 107.199C75.4155 109.177 73.7678 109.575 72.5283 109.373C71.2889 109.17 71.4596 110.648 71.3631 111.901C71.2666 113.155 69.6263 115.358 70.2869 115.024C70.9474 114.691 75.2225 111.242 77.4343 109.452C79.6461 107.662 80.7816 106.59 80.5516 106.01C79.8762 104.329 66.2196 97.3875 69.4482 100.148Z" fill="#6BA426"/>
<path fill-rule="evenodd" clip-rule="evenodd" d="M79.2671 107.394C79.3813 107.249 79.4639 107.083 79.5098 106.906C79.5557 106.728 79.564 106.544 79.5341 106.363C79.5042 106.183 79.4368 106.01 79.336 105.856C79.2352 105.702 79.1031 105.569 78.948 105.467C78.0499 104.742 75.1108 102.525 74.8287 102.778C74.5467 103.032 77.2854 105.025 77.2335 106.474C77.1815 107.923 76.944 108.43 75.3037 109.655C73.6635 110.88 70.5907 114.256 71.0806 114.118C71.5704 113.981 78.228 108.481 79.2671 107.394Z" fill="#7AB626"/>
<path fill-rule="evenodd" clip-rule="evenodd" d="M82.3178 113.307C82.3178 113.307 81.6796 113.619 80.6553 112.619C79.6311 111.619 70.8211 100.561 70.7246 99.6917C70.7246 99.6917 80.9596 108.025 82.3178 113.307Z" fill="#345511"/>
<path fill-rule="evenodd" clip-rule="evenodd" d="M92.7539 100.213C92.7539 100.213 92.9098 99.5323 91.6629 98.8149C90.416 98.0976 77.2715 92.4674 76.3809 92.5833C76.3809 92.5833 87.1725 100.228 92.7539 100.213Z" fill="#345511"/>
<path fill-rule="evenodd" clip-rule="evenodd" d="M86.3109 108.257L88.6934 105.264L92.7236 100.192C86.2367 98.4526 82.0135 95.7788 76.3505 92.5615L73.6118 96.1846L70.7246 99.6917C75.304 104.257 79.0002 107.597 82.3253 113.307L86.3109 108.257Z" fill="#5C8F22"/>
<path fill-rule="evenodd" clip-rule="evenodd" d="M89.3317 99.141C84.641 97.4526 80.9893 95.1991 76.3802 92.5833L73.6415 96.2063L70.7246 99.6916C74.6731 103.626 77.9611 106.648 80.9225 111.068C80.6553 109.575 77.0482 104.96 74.9849 102.648C72.9215 100.337 72.9364 99.2352 74.0497 98.9308C75.163 98.6265 82.4737 106.438 84.6409 104.423C86.8082 102.409 75.6009 96.6048 76.0982 95.9817C78.1466 93.4528 86.5707 98.4236 89.3317 99.141Z" fill="#4E781C"/>
<path fill-rule="evenodd" clip-rule="evenodd" d="M92.1452 99.1411C92.1796 99.237 92.1824 99.341 92.1531 99.4385C92.1238 99.536 92.0639 99.6221 91.9819 99.6846C91.6924 99.9164 90.8389 99.6846 90.8389 99.6846L92.019 100.112L92.7612 100.243C92.7612 100.243 92.9913 99.5831 92.1452 99.1411Z" fill="#E2000F"/>
<path fill-rule="evenodd" clip-rule="evenodd" d="M81.1152 112.988C81.2187 112.997 81.3224 112.973 81.4115 112.921C81.5007 112.869 81.571 112.791 81.6125 112.698C81.7684 112.372 81.3008 111.626 81.3008 111.626L82.043 112.64L82.3547 113.3C82.3547 113.3 81.7535 113.677 81.1152 112.988Z" fill="#5C8F22"/>
<path fill-rule="evenodd" clip-rule="evenodd" d="M78.4068 97.2497C78.9189 97.6338 84.6636 101.105 85.4429 102.952C86.2222 104.8 84.7007 105.546 83.4464 105.583C82.192 105.619 82.7041 107.032 82.8748 108.3C83.0455 109.568 81.9397 112.046 82.5112 111.582C83.0827 111.119 86.4894 106.844 88.2558 104.633C90.0223 102.423 90.8907 101.134 90.5418 100.612C89.5102 99.0902 74.6364 95.1919 78.4068 97.2497Z" fill="#6BA426"/>
<path fill-rule="evenodd" clip-rule="evenodd" d="M89.5917 102.206C89.6705 102.04 89.7138 101.861 89.7188 101.678C89.7239 101.495 89.6906 101.314 89.6211 101.144C89.5516 100.974 89.4473 100.82 89.3146 100.691C89.1819 100.563 89.0236 100.462 88.8495 100.395C87.7956 99.8438 84.4482 98.3294 84.2256 98.6338C84.0029 98.9381 87.1202 100.308 87.3874 101.742C87.6546 103.177 87.5432 103.706 86.2073 105.249C84.8713 106.793 82.6298 110.735 83.0752 110.496C83.5205 110.256 88.8198 103.496 89.5917 102.206Z" fill="#7AB626"/>
<path fill-rule="evenodd" clip-rule="evenodd" d="M93.7849 107.394C93.7849 107.394 93.2282 107.836 92.011 107.075C90.7938 106.315 79.7572 97.3511 79.4678 96.5178C79.4678 96.5251 91.3059 102.525 93.7849 107.394Z" fill="#345511"/>
<path fill-rule="evenodd" clip-rule="evenodd" d="M101.103 92.4311C101.103 92.4311 101.103 91.7065 99.7377 91.2934C98.2533 90.8079 84.285 88.0979 83.4092 88.395C83.4389 88.4022 95.663 93.6267 101.103 92.4311Z" fill="#345511"/>
<path fill-rule="evenodd" clip-rule="evenodd" d="M96.6053 101.597L98.2826 98.1772L101.103 92.3804C94.4232 92.0326 89.6731 90.308 83.4386 88.3516L81.5534 92.4601L79.4678 96.5251C84.9452 100.032 89.2871 102.518 93.7849 107.394L96.6053 101.597Z" fill="#5C8F22"/>
<path fill-rule="evenodd" clip-rule="evenodd" d="M97.533 92.1051C92.5751 91.4312 88.5152 89.9892 83.4311 88.4023L81.5459 92.5109L79.4678 96.5252C84.1882 99.5468 88.0625 101.815 91.9219 105.51C91.3356 104.105 86.8007 100.351 84.2847 98.5251C81.7686 96.6991 81.5385 95.6267 82.5553 95.0905C83.5721 94.5543 92.4341 100.655 94.104 98.2425C95.774 95.8296 83.5573 92.4964 83.9061 91.779C85.3163 88.8951 94.6755 91.9747 97.533 92.1051Z" fill="#4E781C"/>
<path fill-rule="evenodd" clip-rule="evenodd" d="M100.28 91.511C100.332 91.5996 100.356 91.7018 100.348 91.8039C100.34 91.9061 100.301 92.0036 100.235 92.0834C100.005 92.366 99.1143 92.2863 99.1143 92.2863L100.361 92.453H101.103C101.103 92.453 101.192 91.7718 100.28 91.511Z" fill="#E2000F"/>
<path fill-rule="evenodd" clip-rule="evenodd" d="M92.5309 107.351C92.6347 107.336 92.7315 107.29 92.8083 107.22C92.8852 107.151 92.9385 107.06 92.9614 106.96C93.0356 106.605 92.4121 105.974 92.4121 105.974L93.3399 106.822L93.7852 107.394C93.7852 107.394 93.3176 107.88 92.5309 107.351Z" fill="#5C8F22"/>
<path fill-rule="evenodd" clip-rule="evenodd" d="M86.4375 92.5255C87.0238 92.7936 93.3919 94.9746 94.6017 96.6195C95.8115 98.2644 94.4533 99.3078 93.2287 99.6121C92.004 99.9165 92.8056 101.206 93.2658 102.38C93.7259 103.554 93.1693 106.235 93.6294 105.663C94.0896 105.09 96.4795 100.206 97.719 97.6919C98.9585 95.1775 99.5225 93.7211 99.0624 93.2863C97.6893 92.0182 82.3108 91.3154 86.4375 92.5255Z" fill="#6BA426"/>
<path fill-rule="evenodd" clip-rule="evenodd" d="M98.4537 95.0759C98.4946 94.898 98.4979 94.7139 98.4635 94.5348C98.429 94.3556 98.3575 94.1852 98.2533 94.034C98.1491 93.8827 98.0144 93.7538 97.8574 93.6551C97.7005 93.5564 97.5245 93.49 97.3404 93.46C96.19 93.1412 92.5829 92.3586 92.4418 92.7354C92.3008 93.1122 95.6333 93.7643 96.2123 95.1048C96.7912 96.4454 96.7912 96.9961 95.8263 98.7786C94.8614 100.561 93.5329 104.887 93.9188 104.575C94.3048 104.264 97.9861 96.4599 98.4537 95.0759Z" fill="#7AB626"/>
<path fill-rule="evenodd" clip-rule="evenodd" d="M103.805 99.1194C103.805 99.1194 103.367 99.6701 102.009 99.1773C100.651 98.6846 87.9068 92.2863 87.417 91.5327C87.417 91.5327 100.302 94.8876 103.805 99.1194Z" fill="#345511"/>
<path fill-rule="evenodd" clip-rule="evenodd" d="M107.628 82.9532C107.628 82.9532 107.479 82.2721 106.039 82.1344C104.481 81.975 90.2453 82.2866 89.4883 82.7576C89.4883 82.7576 102.581 85.2647 107.628 82.9532Z" fill="#345511"/>
<path fill-rule="evenodd" clip-rule="evenodd" d="M105.282 92.9022L106.15 89.2067L107.634 82.9679C100.999 84.0548 96.0189 83.3664 89.4949 82.7722L88.5375 87.1706L87.3945 91.5182C93.5177 93.779 98.3049 95.2934 103.782 99.1049L105.282 92.9022Z" fill="#5C8F22"/>
<path fill-rule="evenodd" clip-rule="evenodd" d="M104.064 83.3882C99.0842 83.7868 94.7943 83.2433 89.4876 82.7578L88.5375 87.1707L87.3945 91.5183C92.6716 93.4675 96.9616 94.8588 101.548 97.6485C100.665 96.4022 95.4029 93.6994 92.538 92.4458C89.6731 91.1922 89.2129 90.1995 90.0887 89.4604C90.9645 88.7213 100.969 92.8081 102.068 90.0981C103.166 87.3881 90.4895 86.7142 90.6751 85.9461C91.4321 82.8448 101.244 83.8737 104.064 83.3882Z" fill="#4E781C"/>
<path fill-rule="evenodd" clip-rule="evenodd" d="M106.617 82.2288C106.688 82.3036 106.734 82.3978 106.749 82.4989C106.763 82.5999 106.746 82.7029 106.699 82.794C106.536 83.12 105.652 83.236 105.652 83.236L106.907 83.1345L107.649 82.9534C107.649 82.9534 107.567 82.294 106.617 82.2288Z" fill="#E2000F"/>
<path fill-rule="evenodd" clip-rule="evenodd" d="M102.573 99.3294C102.671 99.2944 102.756 99.23 102.814 99.1454C102.873 99.0609 102.903 98.9604 102.899 98.8584C102.899 98.4961 102.157 98.0178 102.157 98.0178L103.241 98.641L103.805 99.112C103.805 99.112 103.456 99.6844 102.573 99.3294Z" fill="#5C8F22"/>
<path fill-rule="evenodd" clip-rule="evenodd" d="M93.3321 86.1488C93.963 86.2937 100.665 87.0691 102.172 88.4241C103.678 89.7791 102.625 91.0834 101.496 91.6341C100.368 92.1848 101.437 93.2862 102.15 94.3369C102.862 95.3875 102.892 98.1193 103.233 97.4599C103.575 96.8005 104.799 91.5326 105.46 88.8009C106.12 86.0691 106.343 84.5402 105.801 84.2141C104.205 83.2721 89.0274 85.8445 93.3321 86.1488Z" fill="#6BA426"/>
<path fill-rule="evenodd" clip-rule="evenodd" d="M105.609 86.0619C105.61 85.876 105.572 85.6918 105.497 85.5211C105.421 85.3504 105.31 85.197 105.17 85.0708C105.031 84.9446 104.865 84.8483 104.685 84.7881C104.505 84.7279 104.314 84.7052 104.124 84.7214C102.937 84.6561 99.2406 84.6561 99.1738 85.0257C99.107 85.3952 102.521 85.3518 103.382 86.5401C104.243 87.7285 104.369 88.2647 103.827 90.2066C103.286 92.1486 102.944 96.6556 103.249 96.2571C103.553 95.8586 105.475 87.5473 105.609 86.0619Z" fill="#7AB626"/>
<path fill-rule="evenodd" clip-rule="evenodd" d="M111.724 88.953C111.724 88.953 111.412 89.5834 109.98 89.395C108.428 89.1849 94.6606 85.6416 94.0371 85.0039C94.0371 85.0039 107.367 85.5619 111.724 88.953Z" fill="#345511"/>
<path fill-rule="evenodd" clip-rule="evenodd" d="M111.88 72.3667C111.88 72.3667 111.576 71.7363 110.143 71.8957C108.585 72.0769 94.7574 75.3811 94.1191 76.0042C94.1191 76.0042 107.457 75.6854 111.88 72.3667Z" fill="#345511"/>
<path fill-rule="evenodd" clip-rule="evenodd" d="M111.784 82.5547V78.765L111.85 72.3667C105.608 74.8231 100.591 75.1999 94.0894 75.9897L94.1637 80.4895L94.0078 84.9894C100.495 85.9096 105.505 86.3734 111.695 88.9385L111.784 82.5547Z" fill="#5C8F22"/>
<path fill-rule="evenodd" clip-rule="evenodd" d="M108.495 73.5405C103.715 74.9897 99.4107 75.352 94.1188 76.0042L94.193 80.504L94.0371 85.0038C99.6259 85.7936 104.124 86.2501 109.223 88.0037C108.087 86.9748 102.35 85.4458 99.2771 84.8299C96.2043 84.214 95.5289 83.33 96.2266 82.4315C96.9243 81.533 107.582 83.4024 108.057 80.5185C108.532 77.6346 96.0114 79.6635 96.0188 78.8736C96.0411 75.6709 105.853 74.6057 108.495 73.5405Z" fill="#4E781C"/>
<path fill-rule="evenodd" clip-rule="evenodd" d="M110.73 71.8886C110.817 71.9464 110.883 72.0288 110.92 72.1248C110.957 72.2207 110.963 72.3254 110.938 72.4248C110.848 72.7726 110.01 73.0697 110.01 73.0697L111.212 72.7074L111.88 72.3814C111.88 72.3814 111.672 71.7292 110.73 71.8886Z" fill="#E2000F"/>
<path fill-rule="evenodd" clip-rule="evenodd" d="M110.567 89.4241C110.654 89.3685 110.722 89.2878 110.761 89.193C110.799 89.0983 110.807 88.9942 110.782 88.8952C110.7 88.5401 109.869 88.2285 109.869 88.2285L111.064 88.6126L111.725 88.9531C111.725 88.9531 111.502 89.5835 110.567 89.4241Z" fill="#5C8F22"/>
<path fill-rule="evenodd" clip-rule="evenodd" d="M98.6241 78.5042C99.2698 78.5042 105.994 77.8593 107.761 78.8592C109.527 79.8592 108.792 81.3591 107.813 82.1345C106.833 82.9098 108.124 83.7576 109.045 84.6344C109.965 85.5111 110.626 88.1632 110.796 87.4603C110.967 86.7575 111.019 81.3374 111.041 78.5332C111.063 75.7289 110.96 74.1855 110.358 73.9826C108.577 73.3957 94.3564 79.1346 98.6241 78.5042Z" fill="#6BA426"/>
<path fill-rule="evenodd" clip-rule="evenodd" d="M110.604 75.823C110.564 75.645 110.487 75.4768 110.379 75.3288C110.27 75.1808 110.132 75.0562 109.972 74.9625C109.812 74.8688 109.634 74.8081 109.449 74.7841C109.264 74.7601 109.076 74.7733 108.896 74.823C107.716 75.0042 104.109 75.7867 104.124 76.1635C104.139 76.5403 107.471 75.7723 108.577 76.7505C109.683 77.7287 109.921 78.1997 109.824 80.2431C109.728 82.2865 110.388 86.7211 110.566 86.2718C110.745 85.8226 110.804 77.3084 110.604 75.823Z" fill="#7AB626"/>
<path fill-rule="evenodd" clip-rule="evenodd" d="M117.276 77.1493C117.276 77.1493 117.12 77.8232 115.673 77.9464C114.226 78.0696 99.8863 77.5696 99.1367 77.0914C99.1367 77.0914 112.289 74.7871 117.276 77.1493Z" fill="#345511"/>
<path fill-rule="evenodd" clip-rule="evenodd" d="M113.691 60.9324C113.691 60.9324 113.26 60.3744 111.894 60.8454C110.41 61.3527 97.6738 67.5408 97.1914 68.2872C97.1914 68.2654 110.128 65.1134 113.691 60.9324Z" fill="#345511"/>
<path fill-rule="evenodd" clip-rule="evenodd" d="M115.895 70.8885L115.071 67.1857L113.691 60.9324C108.161 64.6424 103.381 66.0916 97.1914 68.2654L98.275 72.613L99.136 77.0404C105.667 76.5404 110.662 75.9173 117.275 77.0984L115.895 70.8885Z" fill="#5C8F22"/>
<path fill-rule="evenodd" clip-rule="evenodd" d="M110.662 62.802C106.321 65.2294 102.201 66.5192 97.1914 68.2873L98.275 72.6349L99.136 77.0623C104.762 76.6275 109.252 76.1058 114.618 76.729C113.275 75.9681 107.337 75.7073 104.228 75.758C101.118 75.8087 100.234 75.1058 100.717 74.0769C101.199 73.048 112.013 72.5842 111.85 69.6785C111.687 66.7728 99.9005 71.4248 99.7298 70.6495C98.9876 67.5409 108.317 64.4106 110.662 62.802Z" fill="#4E781C"/>
<path fill-rule="evenodd" clip-rule="evenodd" d="M112.459 60.6934C112.557 60.7306 112.641 60.7965 112.699 60.8821C112.758 60.9677 112.788 61.0688 112.785 61.1716C112.785 61.5339 112.043 62.0049 112.043 62.0049L113.141 61.389L113.713 60.9325C113.713 60.9325 113.349 60.3528 112.459 60.6934Z" fill="#E2000F"/>
<path fill-rule="evenodd" clip-rule="evenodd" d="M116.251 77.8521C116.323 77.7784 116.371 77.6849 116.389 77.5841C116.406 77.4832 116.391 77.3796 116.347 77.2869C116.184 76.9608 115.301 76.8376 115.301 76.8376L116.555 76.9536L117.297 77.142C117.297 77.142 117.201 77.8014 116.251 77.8521Z" fill="#5C8F22"/>
<path fill-rule="evenodd" clip-rule="evenodd" d="M102.143 69.7582C102.774 69.6277 109.186 67.5843 111.138 68.1423C113.09 68.7002 112.704 70.3596 111.932 71.3306C111.161 72.3015 112.593 72.8522 113.691 73.5044C114.79 74.1565 116.037 76.6129 116.037 75.8811C116.037 75.1492 114.872 69.8669 114.27 67.1206C113.669 64.3743 113.209 62.9034 112.578 62.8309C110.73 62.6353 98.12 71.2653 102.143 69.7582Z" fill="#6BA426"/>
<path fill-rule="evenodd" clip-rule="evenodd" d="M113.231 64.5772C113.152 64.411 113.039 64.2623 112.899 64.1403C112.76 64.0183 112.596 63.9256 112.417 63.8679C112.239 63.8101 112.051 63.7887 111.864 63.8047C111.677 63.8208 111.496 63.8741 111.331 63.9613C110.232 64.3961 106.878 65.9322 106.989 66.2945C107.1 66.6569 110.158 65.2004 111.442 65.9178C112.726 66.6351 113.083 67.0699 113.439 69.0553C113.795 71.0407 115.45 75.2579 115.547 74.7725C115.643 74.287 113.773 65.983 113.231 64.5772Z" fill="#7AB626"/>
<path fill-rule="evenodd" clip-rule="evenodd" d="M119.97 65.0411C119.97 65.0411 119.97 65.7657 118.575 66.157C117.179 66.5483 103.063 69.0555 102.246 68.7004C102.224 68.7004 114.559 63.7441 119.97 65.0411Z" fill="#345511"/>
<path fill-rule="evenodd" clip-rule="evenodd" d="M112.986 49.9184C112.986 49.9184 112.444 49.4692 111.212 50.201C109.98 50.9329 98.7434 59.6644 98.4316 60.4905C98.4316 60.4905 110.396 54.7443 112.986 49.9184Z" fill="#345511"/>
<path fill-rule="evenodd" clip-rule="evenodd" d="M117.276 59.2081L115.68 55.7517L112.986 49.9548C108.385 54.7445 103.983 57.1429 98.4316 60.5269L100.428 64.5847L102.224 68.7367C108.503 66.9106 113.253 65.2803 119.97 65.1136L117.276 59.2081Z" fill="#5C8F22"/>
<path fill-rule="evenodd" clip-rule="evenodd" d="M110.426 52.3677C106.715 55.6357 102.952 57.737 98.4316 60.4905L100.428 64.5483L102.224 68.7003C107.635 67.1279 111.873 65.7005 117.291 65.2005C115.807 64.7367 109.951 65.7005 106.9 66.3888C103.85 67.0772 102.855 66.57 103.1 65.4686C103.345 64.3672 113.832 61.6934 113.023 58.8891C112.214 56.0849 101.72 63.0411 101.386 62.3238C100.027 59.4036 108.481 54.4183 110.426 52.3677Z" fill="#4E781C"/>
<path fill-rule="evenodd" clip-rule="evenodd" d="M111.731 49.94C111.834 49.9563 111.93 50.0034 112.004 50.0748C112.079 50.1462 112.128 50.2383 112.147 50.3385C112.221 50.6936 111.583 51.3095 111.583 51.3095L112.526 50.4907L112.986 49.9183C112.986 49.9183 112.526 49.4255 111.731 49.94Z" fill="#E2000F"/>
<path fill-rule="evenodd" clip-rule="evenodd" d="M119.124 65.9396C119.183 65.8552 119.214 65.7555 119.214 65.6533C119.214 65.5512 119.183 65.4514 119.124 65.3671C118.894 65.0845 118.003 65.1425 118.003 65.1425L119.257 64.9976L119.999 65.0338C119.999 65.0338 120.044 65.7004 119.124 65.9396Z" fill="#5C8F22"/>
<path fill-rule="evenodd" clip-rule="evenodd" d="M103.59 60.9182C104.176 60.6573 110.002 57.2951 112.044 57.498C114.085 57.7009 114.048 59.3458 113.528 60.4544C113.008 61.5631 114.508 61.8022 115.755 62.2152C117.001 62.6282 118.723 64.7731 118.553 64.063C118.382 63.3528 116.126 58.411 114.946 55.8604C113.765 53.3098 113.001 51.9475 112.37 52.0127C110.455 52.1939 99.9828 63.1934 103.59 60.9182Z" fill="#6BA426"/>
<path fill-rule="evenodd" clip-rule="evenodd" d="M113.313 53.5776C113.201 53.4318 113.059 53.31 112.896 53.2198C112.734 53.1296 112.554 53.0729 112.369 53.0532C112.183 53.0335 111.995 53.0512 111.816 53.1053C111.638 53.1593 111.473 53.2486 111.331 53.3675C110.344 54.0196 107.405 56.2007 107.583 56.534C107.761 56.8673 110.448 54.8167 111.865 55.2514C113.283 55.6862 113.721 56.0413 114.493 57.9107C115.265 59.7802 117.796 63.5627 117.788 63.07C117.781 62.5772 114.122 54.8457 113.313 53.5776Z" fill="#7AB626"/>
<path fill-rule="evenodd" clip-rule="evenodd" d="M119.947 52.0922C119.947 52.0922 120.088 52.7734 118.834 53.4762C117.58 54.1791 104.339 59.5847 103.448 59.4542C103.448 59.4542 114.373 51.9835 119.947 52.0922Z" fill="#345511"/>
<path fill-rule="evenodd" clip-rule="evenodd" d="M109.735 38.832C109.735 38.832 109.104 38.5059 108.065 39.4841C107.026 40.4623 98.023 51.3822 97.9043 52.2589C97.9043 52.2589 108.295 44.0854 109.735 38.832Z" fill="#345511"/>
<path fill-rule="evenodd" clip-rule="evenodd" d="M116 46.9766L113.669 43.9478L109.728 38.832C106.307 44.484 102.559 47.7664 97.8975 52.259L100.762 55.7878L103.442 59.4544C109.157 56.3313 113.424 53.7227 119.941 52.0924L116 46.9766Z" fill="#5C8F22"/>
<path fill-rule="evenodd" clip-rule="evenodd" d="M107.783 41.7666C104.888 45.7519 101.697 48.5997 97.9043 52.2589L100.769 55.7878L103.449 59.4543C108.377 56.7587 112.229 54.4545 117.365 52.8241C115.821 52.6792 110.314 54.8747 107.494 56.2008C104.673 57.5268 103.582 57.2442 103.575 56.1138C103.567 54.9834 113.223 50.1358 111.739 47.5707C110.255 45.0056 101.638 54.0487 101.155 53.4183C99.2254 50.8749 106.351 44.1868 107.783 41.7666Z" fill="#4E781C"/>
<path fill-rule="evenodd" clip-rule="evenodd" d="M108.518 39.1217C108.622 39.1149 108.726 39.1399 108.815 39.1931C108.904 39.2463 108.974 39.3251 109.015 39.4188C109.163 39.7521 108.681 40.484 108.681 40.484L109.423 39.484L109.742 38.8319C109.742 38.8319 109.178 38.4478 108.518 39.1217Z" fill="#E2000F"/>
<path fill-rule="evenodd" clip-rule="evenodd" d="M119.316 53.1502C119.35 53.0538 119.353 52.9496 119.325 52.8514C119.298 52.7532 119.24 52.6654 119.161 52.5995C118.871 52.3676 118.018 52.5995 118.018 52.5995L119.213 52.1937L119.955 52.0706C119.955 52.0706 120.163 52.7155 119.316 53.1502Z" fill="#5C8F22"/>
<path fill-rule="evenodd" clip-rule="evenodd" d="M103.033 51.5995C103.553 51.2155 108.481 46.7084 110.515 46.4548C112.548 46.2012 112.882 47.8243 112.593 49.0271C112.303 50.23 113.847 50.1285 115.131 50.2807C116.415 50.4329 118.59 52.143 118.278 51.4763C117.966 50.8097 114.641 46.491 112.912 44.2302C111.183 41.9695 110.143 40.8318 109.535 41.0275C107.776 41.5927 100.027 54.5849 103.033 51.5995Z" fill="#6BA426"/>
<path fill-rule="evenodd" clip-rule="evenodd" d="M110.878 42.3318C110.736 42.2123 110.571 42.1227 110.392 42.0686C110.213 42.0145 110.025 41.9972 109.839 42.0176C109.653 42.038 109.473 42.0958 109.311 42.1872C109.149 42.2787 109.008 42.402 108.897 42.5492C108.08 43.397 105.698 46.1722 105.928 46.4403C106.158 46.7084 108.34 44.1506 109.832 44.2665C111.324 44.3825 111.813 44.6361 112.986 46.2954C114.159 47.9548 117.439 51.1068 117.358 50.6431C117.276 50.1793 111.947 43.397 110.878 42.3318Z" fill="#7AB626"/>
<path fill-rule="evenodd" clip-rule="evenodd" d="M117.261 40.1797C117.261 40.1797 117.551 40.8173 116.467 41.7593C115.383 42.7013 103.575 50.6648 102.677 50.7082C102.677 50.7082 111.784 41.2014 117.261 40.1797Z" fill="#345511"/>
<path fill-rule="evenodd" clip-rule="evenodd" d="M104.473 29.2671C104.473 29.2671 103.782 29.0715 102.988 30.2453C102.194 31.4192 95.6627 43.9114 95.737 44.7882C95.737 44.7882 104.168 34.7017 104.473 29.2671Z" fill="#345511"/>
<path fill-rule="evenodd" clip-rule="evenodd" d="M112.333 35.9698L109.409 33.4844L104.473 29.2744C102.321 35.4915 99.3444 39.4189 95.7373 44.7955L99.285 47.6939L102.677 50.7373C107.613 46.5346 111.235 43.1217 117.261 40.2087L112.333 35.9698Z" fill="#5C8F22"/>
<path fill-rule="evenodd" clip-rule="evenodd" d="M103.181 32.5352C101.184 37.0132 98.6682 40.4479 95.7588 44.7883L99.3065 47.6867L102.698 50.7301C106.951 47.107 110.232 44.0709 114.915 41.4406C113.379 41.6145 108.45 44.868 106.009 46.7375C103.567 48.607 102.402 48.5417 102.157 47.4621C101.912 46.3824 110.321 39.6798 108.376 37.4552C106.432 35.2307 99.8038 45.8027 99.1952 45.2593C96.7014 43.1507 102.29 35.1872 103.181 32.5352Z" fill="#4E781C"/>
<path fill-rule="evenodd" clip-rule="evenodd" d="M103.338 29.7961C103.438 29.7694 103.544 29.7731 103.643 29.8067C103.741 29.8404 103.826 29.9024 103.887 29.9845C104.102 30.2816 103.791 31.1004 103.791 31.1004L104.295 29.97L104.473 29.2454C104.473 29.2454 103.843 29.0063 103.338 29.7961Z" fill="#E2000F"/>
<path fill-rule="evenodd" clip-rule="evenodd" d="M116.874 41.3463C116.888 41.2444 116.87 41.1406 116.82 41.0497C116.771 40.9587 116.694 40.8851 116.6 40.8391C116.273 40.6724 115.486 41.0854 115.486 41.0854L116.57 40.4405L117.26 40.1797C117.26 40.1797 117.609 40.7304 116.874 41.3463Z" fill="#5C8F22"/>
<path fill-rule="evenodd" clip-rule="evenodd" d="M100.605 43.0783C101.036 42.6 104.903 37.2017 106.84 36.5568C108.777 35.9119 109.445 37.4191 109.415 38.6509C109.386 39.8828 110.9 39.477 112.162 39.3755C113.423 39.2741 115.939 40.4987 115.494 39.9117C115.049 39.3248 110.885 35.767 108.718 33.9192C106.55 32.0715 105.289 31.1512 104.739 31.4628C103.136 32.3613 98.3045 46.6361 100.605 43.0783Z" fill="#6BA426"/>
<path fill-rule="evenodd" clip-rule="evenodd" d="M106.351 32.4553C106.186 32.3692 106.005 32.3169 105.819 32.3015C105.633 32.286 105.446 32.3078 105.269 32.3654C105.091 32.4231 104.928 32.5154 104.789 32.6367C104.649 32.7581 104.537 32.9059 104.458 33.0712C103.835 34.0639 102.09 37.2449 102.395 37.4768C102.699 37.7087 104.272 34.7523 105.749 34.5784C107.226 34.4045 107.768 34.5784 109.268 35.9261C110.767 37.2739 114.678 39.7303 114.463 39.2811C114.248 38.8318 107.605 33.2813 106.351 32.4553Z" fill="#7AB626"/>
<path fill-rule="evenodd" clip-rule="evenodd" d="M111.627 28.2598C111.627 28.2598 112.058 28.825 111.211 29.9698C110.365 31.1147 100.665 41.4549 99.8037 41.6867C99.8037 41.6867 106.521 30.4408 111.627 28.2598Z" fill="#345511"/>
<path fill-rule="evenodd" clip-rule="evenodd" d="M96.7025 20.3906C96.7025 20.3906 95.9603 20.3906 95.4704 21.6659C94.9064 23.1151 91.4477 36.5784 91.7149 37.4189C91.6852 37.4189 97.6154 25.7527 96.7025 20.3906Z" fill="#345511"/>
<path fill-rule="evenodd" clip-rule="evenodd" d="M105.861 25.2238L102.44 23.4267L96.7024 20.3906C96.0196 26.9121 94.0231 31.4336 91.7148 37.4189L95.8266 39.455L99.8345 41.6868C103.687 36.5204 106.448 32.4046 111.658 28.2599L105.861 25.2238Z" fill="#5C8F22"/>
<path fill-rule="evenodd" clip-rule="evenodd" d="M96.1603 23.8545C95.2325 28.6586 93.5625 32.5498 91.707 37.4191L95.8188 39.4553L99.8268 41.6871C103.144 37.2307 105.653 33.5642 109.624 29.9774C108.139 30.4847 104.094 34.7236 102.105 37.0858C100.116 39.448 99.0029 39.6292 98.513 38.6075C98.0232 37.5858 104.688 29.2456 102.298 27.4993C99.9084 25.753 95.9005 37.4989 95.188 37.1293C92.2488 35.6076 95.8931 26.637 96.1603 23.8545Z" fill="#4E781C"/>
<path fill-rule="evenodd" clip-rule="evenodd" d="M95.6924 21.166C95.7844 21.1169 95.8899 21.0975 95.9939 21.1106C96.0978 21.1236 96.1949 21.1683 96.2713 21.2384C96.5459 21.4775 96.4272 22.3398 96.4272 22.3398L96.6572 21.1297V20.4051C96.6572 20.4051 96.0041 20.2747 95.6924 21.166Z" fill="#E2000F"/>
<path fill-rule="evenodd" clip-rule="evenodd" d="M111.546 29.4771C111.536 29.3756 111.494 29.2795 111.426 29.2018C111.359 29.1241 111.268 29.0685 111.167 29.0423C110.804 28.9481 110.136 29.5278 110.136 29.5278L111.041 28.6655L111.657 28.2598C111.657 28.2598 112.095 28.738 111.546 29.4771Z" fill="#5C8F22"/>
<path fill-rule="evenodd" clip-rule="evenodd" d="M96.0485 34.6944C96.3528 34.1437 98.8986 28.028 100.635 26.9701C102.372 25.9121 103.381 27.2454 103.604 28.4555C103.827 29.6656 105.222 28.9482 106.447 28.557C107.671 28.1657 110.38 28.8396 109.816 28.3613C109.252 27.8831 104.376 25.318 101.845 24.0137C99.3142 22.7094 97.8743 22.0572 97.3919 22.4847C96.0782 23.6948 94.6086 38.6652 96.0485 34.6944Z" fill="#6BA426"/>
<path fill-rule="evenodd" clip-rule="evenodd" d="M99.2103 23.1007C99.0303 23.0511 98.8418 23.0381 98.6565 23.0625C98.4712 23.087 98.293 23.1483 98.1329 23.2427C97.9729 23.3372 97.8344 23.4627 97.7261 23.6115C97.6177 23.7603 97.5419 23.9293 97.5032 24.1079C97.1247 25.2093 96.1449 28.6946 96.4938 28.8541C96.8426 29.0135 97.7036 25.789 99.1063 25.289C100.509 24.789 101.066 24.818 102.817 25.8469C104.569 26.8759 108.955 28.3758 108.644 28.0208C108.332 27.6657 100.643 23.6296 99.2103 23.1007Z" fill="#7AB626"/>
<path fill-rule="evenodd" clip-rule="evenodd" d="M103.671 18.1082C103.671 18.1082 104.205 18.5647 103.671 19.8617C103.137 21.1588 95.8854 33.2959 95.0986 33.7162C95.0986 33.7162 99.1659 21.3109 103.671 18.1082Z" fill="#345511"/>
<path fill-rule="evenodd" clip-rule="evenodd" d="M87.3205 13.5793C87.3205 13.5793 86.5783 13.6953 86.4002 15.0865C86.1627 16.601 85.7768 30.4917 86.2221 31.2598C86.2221 31.2598 89.4358 18.6154 87.3205 13.5793Z" fill="#345511"/>
<path fill-rule="evenodd" clip-rule="evenodd" d="M97.3624 16.3618L93.6514 15.3256L87.3426 13.5793C88.0848 20.1008 87.1719 24.9267 86.2441 31.2598L90.6974 32.3757L95.1061 33.7162C97.7186 27.8541 99.5074 23.2529 103.679 18.1081L97.3624 16.3618Z" fill="#5C8F22"/>
<path fill-rule="evenodd" clip-rule="evenodd" d="M87.5873 17.072C87.7506 21.9559 86.9787 26.1079 86.2217 31.2598L90.6749 32.3757L95.0836 33.7163C97.3102 28.644 98.9728 24.55 102.053 20.2096C100.739 21.0139 97.711 26.0064 96.286 28.7382C94.8609 31.47 93.8218 31.8758 93.1167 30.9772C92.4117 30.0787 97.0727 20.5429 94.3488 19.3328C91.6249 18.1227 90.3261 30.4555 89.5467 30.2019C86.4072 29.3686 87.9436 19.8473 87.5873 17.072Z" fill="#4E781C"/>
<path fill-rule="evenodd" clip-rule="evenodd" d="M86.5332 14.5284C86.6121 14.4618 86.7104 14.421 86.8143 14.4119C86.9182 14.4028 87.0224 14.4258 87.1121 14.4777C87.4387 14.6516 87.5055 15.5211 87.5055 15.5211L87.4684 14.2893L87.3199 13.5647C87.3199 13.5647 86.6371 13.6082 86.5332 14.5284Z" fill="#E2000F"/>
<path fill-rule="evenodd" clip-rule="evenodd" d="M103.827 19.3183C103.792 19.2283 103.732 19.1499 103.653 19.0921C103.574 19.0344 103.48 18.9997 103.381 18.9922C103.01 18.9922 102.483 19.7168 102.483 19.7168L103.174 18.6879L103.686 18.1589C103.686 18.1589 104.228 18.4778 103.827 19.3183Z" fill="#5C8F22"/>
<path fill-rule="evenodd" clip-rule="evenodd" d="M89.881 27.6874C90.0591 27.0787 91.1872 20.579 92.6494 19.1733C94.1115 17.7675 95.3881 18.8689 95.9002 19.9921C96.4123 21.1152 97.585 20.1297 98.6983 19.4921C99.8117 18.8544 102.602 18.9341 101.942 18.5863C101.281 18.2385 95.9522 16.7676 93.1912 15.9995C90.4302 15.2314 88.879 14.9271 88.5153 15.4415C87.4762 16.9342 89.354 31.8539 89.881 27.6874Z" fill="#6BA426"/>
<path fill-rule="evenodd" clip-rule="evenodd" d="M90.4 15.6952C90.2103 15.6791 90.0192 15.7018 89.8391 15.762C89.6589 15.8222 89.4936 15.9185 89.3538 16.0447C89.214 16.1709 89.1029 16.3243 89.0274 16.495C88.9519 16.6657 88.9138 16.8499 88.9156 17.0358C88.7968 18.1951 88.6113 21.7964 88.9824 21.8761C89.3535 21.9558 89.487 18.6299 90.7414 17.8473C91.9957 17.0647 92.5524 16.9778 94.5192 17.601C96.4861 18.2241 101.073 18.7821 100.68 18.4632C100.286 18.1444 91.9141 15.9054 90.4 15.6952Z" fill="#7AB626"/>
<path fill-rule="evenodd" clip-rule="evenodd" d="M93.688 9.89844C93.688 9.89844 94.3115 10.2318 94.0443 11.623C93.7771 13.0143 89.4426 26.3688 88.7598 26.9629C88.7598 26.9629 90.0215 13.978 93.688 9.89844Z" fill="#345511"/>
<path fill-rule="evenodd" clip-rule="evenodd" d="M78.1992 21.3255C78.7856 23.9921 79.3274 26.1659 79.5575 26.3978C79.5575 26.3978 79.6168 24.108 79.4535 21.1082L78.1992 21.3255Z" fill="#345511"/>
<path fill-rule="evenodd" clip-rule="evenodd" d="M87.1416 9.52156L83.2673 9.29693L81.0407 9.1665C80.7883 13.8112 80.2985 20.5501 79.9199 21.0501L79.1777 21.1733C79.3188 22.8398 79.4375 24.5644 79.5785 26.4122L84.1876 26.5643L88.7893 26.9411C90.0214 20.666 90.7635 15.8039 93.6878 9.89836L87.1416 9.52156Z" fill="#5C8F22"/>
<path fill-rule="evenodd" clip-rule="evenodd" d="M79.1562 21.1659C79.2973 22.8325 79.4161 24.5571 79.5571 26.4048L84.1661 26.557L88.7604 26.941C89.8514 21.5282 90.5417 17.1661 92.5902 12.2822C91.4769 13.3474 89.6213 18.8617 88.842 21.8253C88.0627 24.789 87.1276 25.4049 86.2369 24.6803C85.3463 23.9557 87.7955 13.6517 84.8712 13.0865C81.9469 12.5213 83.3942 24.789 82.6001 24.7165C81.3087 24.644 80.4329 23.0861 79.7872 21.0935L79.1562 21.1659Z" fill="#4E781C"/>
<path fill-rule="evenodd" clip-rule="evenodd" d="M94.1041 11.0215C94.0531 10.9327 93.9747 10.8619 93.8802 10.819C93.7856 10.7761 93.6796 10.7633 93.5772 10.7824C93.2061 10.8476 92.835 11.6447 92.835 11.6447L93.2877 10.4925L93.6662 9.86938C93.6662 9.86938 94.3194 10.1447 94.1041 11.0215Z" fill="#5C8F22"/>
<path fill-rule="evenodd" clip-rule="evenodd" d="M82.3401 22.1514C82.3772 21.521 82.0432 14.9054 83.1565 13.2533C84.2698 11.6012 85.7617 12.3765 86.5187 13.3692C87.2758 14.3619 88.1886 13.1518 89.1312 12.2968C90.0738 11.4417 92.8423 10.9273 92.1001 10.7244C91.3579 10.5215 85.8507 10.2099 82.9784 10.0433C82.2362 9.99978 81.5459 9.96354 80.967 9.9563C80.7963 12.9055 80.5365 16.4778 80.2842 18.7458C81.4123 21.8906 82.5405 24.1948 82.3401 22.1514Z" fill="#6BA426"/>
<path fill-rule="evenodd" clip-rule="evenodd" d="M80.8037 12.6811C80.8682 12.5651 80.948 12.4579 81.0412 12.3622C82.1026 11.3333 82.6221 11.1304 84.6706 11.3261C86.7191 11.5217 91.3504 11.0942 90.8828 10.8696C90.4152 10.6449 83.5647 10.2971 80.9522 10.2971C80.9076 11.0797 80.8557 11.8768 80.8037 12.6811Z" fill="#7AB626"/>
<path fill-rule="evenodd" clip-rule="evenodd" d="M60.2228 11.6592C63.4588 11.6592 63.5182 18.1806 66.7097 18.7024C69.9011 19.2241 72.0313 12.9852 75.104 13.9634C78.1767 14.9417 76.1579 21.2095 79.0377 22.6152C81.9174 24.021 85.9105 18.7821 88.523 20.6371C91.1356 22.4921 87.2465 27.8179 89.5325 30.057C91.8185 32.296 97.2737 28.4918 99.1811 31.0424C101.089 33.593 95.6928 37.4914 97.1623 40.3029C98.6319 43.1144 105.022 41.1435 106.024 44.1433C107.026 47.1432 100.658 49.2156 101.17 52.3386C101.682 55.4617 108.377 55.5124 108.377 58.6717C108.377 61.831 101.697 61.8817 101.17 64.9975C100.643 68.1133 107.019 70.193 106.024 73.1928C105.03 76.1927 98.6022 74.229 97.1623 77.0405C95.7224 79.852 101.081 83.7431 99.1811 86.301C97.2811 88.8589 91.8259 85.0474 89.5325 87.2792C87.2391 89.511 91.143 94.8441 88.523 96.6991C85.9031 98.5541 81.9249 93.2862 79.0451 94.7209C76.1654 96.1556 78.1767 102.402 75.104 103.373C72.0313 104.344 69.9086 98.1411 66.7097 98.6338C63.5108 99.1265 63.4588 105.677 60.2228 105.677C56.9868 105.677 56.9348 99.1555 53.7433 98.6338C50.5519 98.1121 48.4217 104.351 45.349 103.373C42.2763 102.395 44.2877 96.1267 41.4079 94.7209C38.5282 93.3152 34.5425 98.5541 31.93 96.6991C29.3174 94.8441 33.2065 89.511 30.9206 87.2792C28.6346 85.0474 23.1794 88.8516 21.2719 86.301C19.3644 83.7504 24.7677 79.852 23.2981 77.0405C21.8286 74.229 15.4382 76.2 14.4362 73.1928C13.4342 70.1857 19.7949 68.1206 19.2902 64.9975C18.7855 61.8745 12.0908 61.8165 12.0908 58.6645C12.0908 55.5124 18.7707 55.4545 19.2976 52.3314C19.8246 49.2083 13.4491 47.1432 14.4436 44.1361C15.4382 41.129 21.8656 43.1071 23.3055 40.2957C24.7454 37.4842 19.3867 33.5858 21.2793 31.0352C23.1719 28.4846 28.642 32.2815 30.928 30.0497C33.214 27.8179 29.3174 22.4921 31.9374 20.6298C34.5574 18.7676 38.5282 24.0645 41.4079 22.6152C44.2877 21.166 42.2763 14.9344 45.349 13.9634C48.4217 12.9925 50.5444 19.1951 53.7433 18.7024C56.9422 18.2096 56.9942 11.6592 60.2228 11.6592Z" fill="url(#paint4_linear_602_4675)"/>
<path d="M59.9994 98.1411C82.3353 98.1411 100.442 80.4635 100.442 58.6572C100.442 36.8509 82.3353 19.1733 59.9994 19.1733C37.6635 19.1733 19.5566 36.8509 19.5566 58.6572C19.5566 80.4635 37.6635 98.1411 59.9994 98.1411Z" fill="#9A5B1A"/>
<path d="M66.3836 95.8638C87.6873 92.5436 102.2 72.9914 98.7996 52.1928C95.3987 31.3941 75.3717 17.2251 54.068 20.5453C32.7642 23.8655 18.2511 43.4178 21.652 64.2164C25.0528 85.015 45.0799 99.1841 66.3836 95.8638Z" fill="#FDEEE0"/>
<path d="M64.0356 97.031C85.5061 94.9757 101.205 76.3169 99.0995 55.3555C96.9943 34.394 77.8825 19.0675 56.4119 21.1228C34.9414 23.1781 19.2427 41.8369 21.3479 62.7983C23.4531 83.7598 42.565 99.0863 64.0356 97.031Z" fill="url(#paint5_linear_602_4675)"/>
<path fill-rule="evenodd" clip-rule="evenodd" d="M59.5321 24.0646C60.0516 24.0646 60.5563 24.0646 61.0684 24.0646C51.8315 24.454 43.1052 28.3104 36.7102 34.8292C30.3152 41.3481 26.7453 50.0259 26.7453 59.0522C26.7453 68.0786 30.3152 76.7564 36.7102 83.2752C43.1052 89.7941 51.8315 93.6505 61.0684 94.0399C60.5563 94.0399 60.0516 94.0761 59.5321 94.0761C50.107 93.9438 41.1138 90.1955 34.4966 83.6417C27.8795 77.0878 24.1699 68.2548 24.1699 59.0522C24.1699 49.8496 27.8795 41.0166 34.4966 34.4628C41.1138 27.9089 50.107 24.1607 59.5321 24.0283V24.0646Z" fill="#FDEEE0"/>
<path d="M91.0141 77.4864C101.407 60.8892 96.0515 39.2088 79.0512 29.0619C62.0509 18.915 39.8439 24.144 29.4506 40.7413C19.0573 57.3385 24.4133 79.0189 41.4136 89.1658C58.4139 99.3127 80.6208 94.0837 91.0141 77.4864Z" fill="url(#paint6_linear_602_4675)"/>
<path fill-rule="evenodd" clip-rule="evenodd" d="M95.96 57.2153C95.9535 65.2279 93.1985 73.0075 88.1346 79.3131C83.0706 85.6187 75.9896 90.0869 68.021 92.0049C60.0524 93.9229 51.6554 93.1802 44.1696 89.8954C36.6838 86.6105 30.5405 80.9726 26.7197 73.8812C28.8059 78.2025 31.7553 82.0733 35.395 85.2663C39.0346 88.4593 43.291 90.9101 47.9142 92.4749C52.5374 94.0397 57.4343 94.6869 62.3173 94.3785C67.2003 94.0701 71.9709 92.8123 76.3491 90.679C80.7273 88.5456 84.6247 85.5798 87.8126 81.9556C91.0005 78.3313 93.4145 74.1218 94.913 69.5742C96.4114 65.0265 96.9641 60.2324 96.5385 55.4733C96.1128 50.7142 94.7176 46.0862 92.4345 41.8608C94.7629 46.6599 95.9672 51.9051 95.96 57.2153Z" fill="#FDEEE0"/>
<path fill-rule="evenodd" clip-rule="evenodd" d="M24.6193 60.418C24.6215 52.4181 27.4124 44.6572 32.5329 38.4118C37.6534 32.1663 44.7987 27.8082 52.7934 26.0542C60.7881 24.3002 69.1562 25.2548 76.5214 28.7611C83.8865 32.2673 89.8101 38.1163 93.3178 45.3461C92.9689 44.4549 92.5756 43.5708 92.1748 42.7158C87.9126 34.78 80.7131 28.728 72.0418 25.7915C63.3704 22.855 53.8788 23.2546 45.4986 26.9091C37.1184 30.5636 30.4794 37.1983 26.9328 45.4629C23.3863 53.7275 23.1986 63.0009 26.408 71.3958C25.2173 67.8527 24.6135 64.1468 24.6193 60.418Z" fill="#DB9600"/>
<path fill-rule="evenodd" clip-rule="evenodd" d="M60.4162 25.4629C69.3394 25.4843 77.9043 28.8927 84.3 34.9676C90.6958 41.0424 94.421 49.3075 94.688 58.0153C94.955 66.723 91.7429 75.1909 85.7308 81.6284C79.7187 88.0659 71.378 91.9684 62.4721 92.5108C70.8467 90.8938 78.3052 86.292 83.3957 79.6014C88.4861 72.9108 90.8441 64.6102 90.0106 56.3156C89.1771 48.021 85.2118 40.3261 78.8866 34.7288C72.5614 29.1316 64.3291 26.0327 55.7922 26.0353C55.102 26.0353 54.4192 26.0353 53.7363 26.0933C55.9367 25.6717 58.1739 25.4606 60.4162 25.4629Z" fill="#FCE0C8"/>
<path d="M78.1005 84.6888C92.5649 75.0522 96.2888 55.7926 86.4182 41.6712C76.5476 27.5498 56.8203 23.9142 42.356 33.5507C27.8917 43.1873 24.1677 62.4469 34.0383 76.5683C43.9089 90.6897 63.6362 94.3253 78.1005 84.6888Z" fill="url(#paint7_linear_602_4675)"/>
<path d="M86.1315 74.5917C94.8949 60.6193 90.3971 42.3567 76.0853 33.8011C61.7735 25.2455 43.0674 29.6367 34.304 43.6091C25.5407 57.5815 30.0385 75.8441 44.3503 84.3998C58.662 92.9554 77.3681 88.5642 86.1315 74.5917Z" fill="#9A5B1A"/>
<path d="M66.2081 86.498C81.7152 83.2718 91.6072 68.3835 88.3026 53.2441C84.998 38.1047 69.7481 28.4472 54.2411 31.6735C38.734 34.8997 28.842 49.788 32.1466 64.9274C35.4512 80.0668 50.7011 89.7243 66.2081 86.498Z" fill="url(#paint8_linear_602_4675)"/>
<path d="M78.824 77.2599C89.0963 67.2312 89.0963 50.9715 78.824 40.9428C68.5518 30.9141 51.8972 30.9141 41.6249 40.9428C31.3527 50.9715 31.3527 67.2312 41.6249 77.2599C51.8972 87.2886 68.5518 87.2886 78.824 77.2599Z" fill="url(#paint9_linear_602_4675)"/>
<path d="M53.134 41.9043H44.5986V75.4174H53.134V41.9043Z" fill="#FCE0C8"/>
<path d="M51.7017 43.3027H46.0312V74.0261H51.7017V43.3027Z" fill="#DF914D"/>
<path d="M64.5939 41.9043H56.0586V75.4174H64.5939V41.9043Z" fill="#FCE0C8"/>
<path d="M63.1616 43.3027H57.4912V74.0261H63.1616V43.3027Z" fill="#DF914D"/>
<path d="M76.3283 41.9043H67.793V75.4174H76.3283V41.9043Z" fill="#FCE0C8"/>
<path d="M74.895 43.3027H69.2246V74.0261H74.895V43.3027Z" fill="#DF914D"/>
<defs>
<linearGradient id="paint0_linear_602_4675" x1="60.237" y1="93.6121" x2="97.6419" y2="149.375" gradientUnits="userSpaceOnUse">
<stop stop-color="#345511"/>
<stop offset="0.22" stop-color="#619824"/>
<stop offset="0.45" stop-color="#7AB626"/>
<stop offset="1" stop-color="#3F711D"/>
</linearGradient>
<linearGradient id="paint1_linear_602_4675" x1="93.7776" y1="134.734" x2="75.5263" y2="109.093" gradientUnits="userSpaceOnUse">
<stop stop-color="#C6864B"/>
<stop offset="0.39" stop-color="#FBD0A5"/>
<stop offset="0.48" stop-color="#FCD8B8"/>
<stop offset="0.58" stop-color="#F9C38E"/>
<stop offset="1" stop-color="#C4772F"/>
</linearGradient>
<linearGradient id="paint2_linear_602_4675" x1="47.0265" y1="92.9528" x2="48.7243" y2="176.755" gradientUnits="userSpaceOnUse">
<stop stop-color="#345511"/>
<stop offset="0.22" stop-color="#619824"/>
<stop offset="0.45" stop-color="#7AB626"/>
<stop offset="1" stop-color="#3F711D"/>
</linearGradient>
<linearGradient id="paint3_linear_602_4675" x1="56.2443" y1="150.835" x2="44.3031" y2="114.316" gradientUnits="userSpaceOnUse">
<stop stop-color="#C6864B"/>
<stop offset="0.39" stop-color="#FBD0A5"/>
<stop offset="0.48" stop-color="#FCD8B8"/>
<stop offset="0.58" stop-color="#F9C38E"/>
<stop offset="1" stop-color="#C4772F"/>
</linearGradient>
<linearGradient id="paint4_linear_602_4675" x1="102.855" y1="68.8742" x2="14.5935" y2="46.6918" gradientUnits="userSpaceOnUse">
<stop stop-color="#C6864B"/>
<stop offset="0.39" stop-color="#FBD0A5"/>
<stop offset="0.48" stop-color="#FCD8B8"/>
<stop offset="0.58" stop-color="#F9C38E"/>
<stop offset="1" stop-color="#C4772F"/>
</linearGradient>
<linearGradient id="paint5_linear_602_4675" x1="86.2703" y1="40.6912" x2="34.9823" y2="78.7139" gradientUnits="userSpaceOnUse">
<stop stop-color="#DB985F"/>
<stop offset="0.32" stop-color="#FBD0A5"/>
<stop offset="0.48" stop-color="#FCD8B8"/>
<stop offset="0.68" stop-color="#F9C38E"/>
<stop offset="1" stop-color="#DB9B60"/>
</linearGradient>
<linearGradient id="paint6_linear_602_4675" x1="79.4318" y1="43.6401" x2="40.037" y2="74.0991" gradientUnits="userSpaceOnUse">
<stop stop-color="#C6864B"/>
<stop offset="0.39" stop-color="#FBD0A5"/>
<stop offset="0.48" stop-color="#FCD8B8"/>
<stop offset="0.58" stop-color="#F9C38E"/>
<stop offset="1" stop-color="#C4772F"/>
</linearGradient>
<linearGradient id="paint7_linear_602_4675" x1="81.3767" y1="44.1645" x2="39.7596" y2="75.0178" gradientUnits="userSpaceOnUse">
<stop stop-color="#DB985F"/>
<stop offset="0.32" stop-color="#FBD0A5"/>
<stop offset="0.48" stop-color="#FCD8B8"/>
<stop offset="0.68" stop-color="#F9C38E"/>
<stop offset="1" stop-color="#DB9B60"/>
</linearGradient>
<linearGradient id="paint8_linear_602_4675" x1="83.045" y1="71.9001" x2="34.2467" y2="43.1794" gradientUnits="userSpaceOnUse">
<stop stop-color="#DB985F"/>
<stop offset="0.32" stop-color="#FBD0A5"/>
<stop offset="0.48" stop-color="#FCD8B8"/>
<stop offset="0.68" stop-color="#F9C38E"/>
<stop offset="1" stop-color="#DB9B60"/>
</linearGradient>
<linearGradient id="paint9_linear_602_4675" x1="75.2073" y1="48.0779" x2="46.3745" y2="70.351" gradientUnits="userSpaceOnUse">
<stop stop-color="#C6864B"/>
<stop offset="0.39" stop-color="#FBD0A5"/>
<stop offset="0.48" stop-color="#FCD8B8"/>
<stop offset="0.58" stop-color="#F9C38E"/>
<stop offset="1" stop-color="#C4772F"/>
</linearGradient>
</defs>
</svg>
